<mxfile host="app.diagrams.net" modified="2023-08-11T14:47:00.045Z" agent="Mozilla/5.0 (Windows NT 10.0; Win64; x64) AppleWebKit/537.36 (KHTML, like Gecko) Chrome/115.0.0.0 Safari/537.36" etag="OGO_wyYnkDfP090asJv5" version="21.6.8" type="device">
  <diagram name="Page-1" id="D4wqRlZZV2PhKTjeULIO">
    <mxGraphModel dx="1709" dy="937" grid="1" gridSize="10" guides="1" tooltips="1" connect="1" arrows="1" fold="1" page="1" pageScale="1" pageWidth="850" pageHeight="1100" math="0" shadow="0">
      <root>
        <mxCell id="0" />
        <mxCell id="1" parent="0" />
        <mxCell id="inQNlQKym5KlZ0pr-Kys-99" value="" style="rounded=1;whiteSpace=wrap;html=1;strokeWidth=2;fillColor=#f5f5f5;fontColor=#333333;strokeColor=#666666;dashed=1;" parent="1" vertex="1">
          <mxGeometry x="570" y="190" width="256.25" height="612.69" as="geometry" />
        </mxCell>
        <mxCell id="inQNlQKym5KlZ0pr-Kys-73" value="" style="rounded=1;whiteSpace=wrap;html=1;strokeWidth=2;fillColor=#f5f5f5;fontColor=#333333;strokeColor=#666666;dashed=1;" parent="1" vertex="1">
          <mxGeometry x="370" y="324.02" width="190" height="330.71" as="geometry" />
        </mxCell>
        <mxCell id="inQNlQKym5KlZ0pr-Kys-35" value="" style="rounded=1;whiteSpace=wrap;html=1;fillColor=#f8cecc;strokeColor=#b85450;strokeWidth=2;" parent="1" vertex="1">
          <mxGeometry x="190" y="331.42" width="150" height="400" as="geometry" />
        </mxCell>
        <mxCell id="inQNlQKym5KlZ0pr-Kys-33" value="" style="rounded=1;whiteSpace=wrap;html=1;fillColor=#d5e8d4;strokeColor=#82b366;strokeWidth=2;" parent="1" vertex="1">
          <mxGeometry x="10" y="332.63000000000005" width="160" height="400" as="geometry" />
        </mxCell>
        <mxCell id="inQNlQKym5KlZ0pr-Kys-3" value="&lt;font face=&quot;Comic Sans MS&quot; style=&quot;&quot;&gt;&lt;u style=&quot;font-size: 28px;&quot;&gt;&lt;b&gt;A&amp;nbsp;&lt;/b&gt;&lt;/u&gt;&lt;/font&gt;&lt;u style=&quot;border-color: var(--border-color); font-family: &amp;quot;Comic Sans MS&amp;quot;; font-size: 28px;&quot;&gt;&lt;b style=&quot;border-color: var(--border-color);&quot;&gt;Downstream Task Demonstration using&lt;/b&gt;&lt;/u&gt;&lt;font face=&quot;Comic Sans MS&quot; style=&quot;&quot;&gt;&lt;u style=&quot;font-size: 28px;&quot;&gt;&lt;b&gt;&lt;br&gt;Our Model as a Foundation Model&lt;/b&gt;&lt;/u&gt;&lt;br&gt;&lt;font style=&quot;&quot;&gt;&lt;font style=&quot;font-size: 11px;&quot;&gt;&amp;nbsp;&amp;nbsp;&lt;/font&gt;&lt;br&gt;&lt;span style=&quot;font-size: 20px;&quot;&gt;Searching stars by stellar spectroscopy - stellar parameters pairing &lt;br&gt;using contrastive objective&lt;/span&gt;&lt;/font&gt;&lt;/font&gt;" style="text;html=1;strokeColor=none;fillColor=none;align=center;verticalAlign=middle;whiteSpace=wrap;rounded=0;" parent="1" vertex="1">
          <mxGeometry x="85" width="680" height="140" as="geometry" />
        </mxCell>
        <mxCell id="inQNlQKym5KlZ0pr-Kys-12" value="" style="edgeStyle=orthogonalEdgeStyle;rounded=0;orthogonalLoop=1;jettySize=auto;html=1;strokeWidth=2;" parent="1" source="inQNlQKym5KlZ0pr-Kys-5" target="inQNlQKym5KlZ0pr-Kys-10" edge="1">
          <mxGeometry relative="1" as="geometry" />
        </mxCell>
        <mxCell id="inQNlQKym5KlZ0pr-Kys-30" style="edgeStyle=orthogonalEdgeStyle;rounded=0;orthogonalLoop=1;jettySize=auto;html=1;exitX=0.176;exitY=-0.007;exitDx=0;exitDy=0;entryX=0.5;entryY=1;entryDx=0;entryDy=0;exitPerimeter=0;strokeWidth=2;" parent="1" target="inQNlQKym5KlZ0pr-Kys-5" edge="1">
          <mxGeometry relative="1" as="geometry">
            <mxPoint x="94.55999999999995" y="572.4845299999998" as="sourcePoint" />
          </mxGeometry>
        </mxCell>
        <mxCell id="inQNlQKym5KlZ0pr-Kys-5" value="&lt;font style=&quot;font-size: 14px;&quot; face=&quot;Comic Sans MS&quot;&gt;Encoder&lt;br&gt;(Trained, &lt;br&gt;Fixed)&lt;/font&gt;" style="shape=trapezoid;perimeter=trapezoidPerimeter;whiteSpace=wrap;html=1;fixedSize=1;fillColor=#f5f5f5;fontColor=#333333;strokeColor=#666666;dashed=1;strokeWidth=2;" parent="1" vertex="1">
          <mxGeometry x="35" y="482.85" width="120" height="60" as="geometry" />
        </mxCell>
        <mxCell id="inQNlQKym5KlZ0pr-Kys-13" value="" style="edgeStyle=orthogonalEdgeStyle;rounded=0;orthogonalLoop=1;jettySize=auto;html=1;strokeWidth=2;" parent="1" source="inQNlQKym5KlZ0pr-Kys-6" target="inQNlQKym5KlZ0pr-Kys-11" edge="1">
          <mxGeometry relative="1" as="geometry" />
        </mxCell>
        <mxCell id="inQNlQKym5KlZ0pr-Kys-32" style="edgeStyle=orthogonalEdgeStyle;rounded=0;orthogonalLoop=1;jettySize=auto;html=1;exitX=0.824;exitY=-0.015;exitDx=0;exitDy=0;entryX=0.5;entryY=1;entryDx=0;entryDy=0;exitPerimeter=0;strokeWidth=2;" parent="1" target="inQNlQKym5KlZ0pr-Kys-6" edge="1">
          <mxGeometry relative="1" as="geometry">
            <mxPoint x="265.44000000000005" y="572.06685" as="sourcePoint" />
          </mxGeometry>
        </mxCell>
        <mxCell id="inQNlQKym5KlZ0pr-Kys-6" value="&lt;font face=&quot;Comic Sans MS&quot; style=&quot;font-size: 14px;&quot;&gt;Encoder&lt;br&gt;(Trained, &lt;br&gt;Fixed)&lt;/font&gt;" style="shape=trapezoid;perimeter=trapezoidPerimeter;whiteSpace=wrap;html=1;fixedSize=1;fillColor=#f5f5f5;fontColor=#333333;strokeColor=#666666;dashed=1;strokeWidth=2;" parent="1" vertex="1">
          <mxGeometry x="205" y="482.85" width="120" height="60" as="geometry" />
        </mxCell>
        <mxCell id="inQNlQKym5KlZ0pr-Kys-9" value="&lt;font color=&quot;#cc6600&quot; style=&quot;font-size: 16px;&quot; face=&quot;Comic Sans MS&quot;&gt;Common&lt;br&gt;Embedding Space&lt;/font&gt;" style="ellipse;shape=cloud;whiteSpace=wrap;html=1;strokeWidth=2;fillColor=#ffe6cc;strokeColor=#d79b00;" parent="1" vertex="1">
          <mxGeometry x="77.5" y="230" width="205" height="101.42" as="geometry" />
        </mxCell>
        <mxCell id="inQNlQKym5KlZ0pr-Kys-44" value="" style="edgeStyle=orthogonalEdgeStyle;orthogonalLoop=1;jettySize=auto;html=1;rounded=1;strokeWidth=2;" parent="1" source="inQNlQKym5KlZ0pr-Kys-10" target="inQNlQKym5KlZ0pr-Kys-9" edge="1">
          <mxGeometry relative="1" as="geometry" />
        </mxCell>
        <mxCell id="inQNlQKym5KlZ0pr-Kys-10" value="&lt;font face=&quot;Comic Sans MS&quot; style=&quot;font-size: 14px;&quot;&gt;Fine-tuning NN&lt;/font&gt;" style="rounded=1;whiteSpace=wrap;html=1;strokeWidth=2;fillColor=#dae8fc;strokeColor=#6c8ebf;" parent="1" vertex="1">
          <mxGeometry x="47.5" y="392.85" width="95" height="60" as="geometry" />
        </mxCell>
        <mxCell id="inQNlQKym5KlZ0pr-Kys-43" value="" style="edgeStyle=orthogonalEdgeStyle;orthogonalLoop=1;jettySize=auto;html=1;rounded=1;strokeWidth=2;" parent="1" source="inQNlQKym5KlZ0pr-Kys-11" target="inQNlQKym5KlZ0pr-Kys-9" edge="1">
          <mxGeometry relative="1" as="geometry" />
        </mxCell>
        <mxCell id="inQNlQKym5KlZ0pr-Kys-11" value="&lt;font face=&quot;Comic Sans MS&quot; style=&quot;font-size: 14px;&quot;&gt;Fine-tuning NN&lt;/font&gt;" style="rounded=1;whiteSpace=wrap;html=1;strokeWidth=2;fillColor=#dae8fc;strokeColor=#6c8ebf;" parent="1" vertex="1">
          <mxGeometry x="217.5" y="392.85" width="95" height="60" as="geometry" />
        </mxCell>
        <mxCell id="inQNlQKym5KlZ0pr-Kys-20" value="&lt;font style=&quot;font-size: 14px;&quot;&gt;Non-linear embedding &lt;br&gt;(Trained, Fixed)&lt;/font&gt;" style="shape=parallelogram;perimeter=parallelogramPerimeter;whiteSpace=wrap;html=1;fixedSize=1;fontFamily=Comic Sans MS;strokeWidth=2;fillColor=#f9f7ed;strokeColor=#36393d;dashed=1;" parent="1" vertex="1">
          <mxGeometry x="20" y="572.85" width="310" height="52.21" as="geometry" />
        </mxCell>
        <mxCell id="inQNlQKym5KlZ0pr-Kys-27" style="edgeStyle=orthogonalEdgeStyle;rounded=0;orthogonalLoop=1;jettySize=auto;html=1;exitX=0.5;exitY=0;exitDx=0;exitDy=0;entryX=0.177;entryY=1.032;entryDx=0;entryDy=0;entryPerimeter=0;strokeWidth=2;" parent="1" source="inQNlQKym5KlZ0pr-Kys-21" edge="1">
          <mxGeometry relative="1" as="geometry">
            <mxPoint x="94.87000000000012" y="626.7307199999999" as="targetPoint" />
          </mxGeometry>
        </mxCell>
        <mxCell id="inQNlQKym5KlZ0pr-Kys-21" value="&lt;font color=&quot;#990099&quot; face=&quot;Comic Sans MS&quot; style=&quot;font-size: 14px;&quot;&gt;Gaia XP Spectra&lt;/font&gt;" style="rounded=1;whiteSpace=wrap;html=1;fillColor=#e1d5e7;strokeColor=#9673a6;strokeWidth=2;" parent="1" vertex="1">
          <mxGeometry x="35" y="652.8499999999999" width="120" height="60" as="geometry" />
        </mxCell>
        <mxCell id="inQNlQKym5KlZ0pr-Kys-28" style="edgeStyle=orthogonalEdgeStyle;rounded=0;orthogonalLoop=1;jettySize=auto;html=1;exitX=0.5;exitY=0;exitDx=0;exitDy=0;entryX=0.817;entryY=1.032;entryDx=0;entryDy=0;entryPerimeter=0;strokeWidth=2;" parent="1" source="inQNlQKym5KlZ0pr-Kys-22" edge="1">
          <mxGeometry relative="1" as="geometry">
            <mxPoint x="263.2700000000002" y="626.7307199999999" as="targetPoint" />
          </mxGeometry>
        </mxCell>
        <mxCell id="inQNlQKym5KlZ0pr-Kys-22" value="&lt;font face=&quot;Comic Sans MS&quot; style=&quot;font-size: 14px;&quot; color=&quot;#990099&quot;&gt;Stellar &lt;br&gt;Parameters and Observations&lt;/font&gt;" style="rounded=1;whiteSpace=wrap;html=1;fillColor=#e1d5e7;strokeColor=#9673a6;strokeWidth=2;" parent="1" vertex="1">
          <mxGeometry x="205" y="652.8499999999999" width="120" height="60" as="geometry" />
        </mxCell>
        <mxCell id="inQNlQKym5KlZ0pr-Kys-36" value="&lt;font face=&quot;Comic Sans MS&quot; style=&quot;font-size: 14px;&quot; color=&quot;#00994d&quot;&gt;&lt;b&gt;Expert Spectra&lt;br&gt;Encoder&lt;/b&gt;&lt;/font&gt;" style="text;html=1;strokeColor=none;fillColor=none;align=left;verticalAlign=middle;whiteSpace=wrap;rounded=0;" parent="1" vertex="1">
          <mxGeometry x="22.5" y="337.05" width="135" height="34.1" as="geometry" />
        </mxCell>
        <mxCell id="inQNlQKym5KlZ0pr-Kys-39" value="&lt;font color=&quot;#ff0000&quot; face=&quot;Comic Sans MS&quot; style=&quot;font-size: 14px;&quot;&gt;&lt;b style=&quot;&quot;&gt;Expert Stars&lt;br&gt;Encoder&lt;/b&gt;&lt;/font&gt;" style="text;html=1;strokeColor=none;fillColor=none;align=right;verticalAlign=middle;whiteSpace=wrap;rounded=0;" parent="1" vertex="1">
          <mxGeometry x="238" y="337.05" width="97" height="34.1" as="geometry" />
        </mxCell>
        <mxCell id="inQNlQKym5KlZ0pr-Kys-40" value="" style="endArrow=none;dashed=1;html=1;rounded=0;strokeWidth=4;" parent="1" edge="1">
          <mxGeometry width="50" height="50" relative="1" as="geometry">
            <mxPoint x="350" y="830" as="sourcePoint" />
            <mxPoint x="354" y="150" as="targetPoint" />
          </mxGeometry>
        </mxCell>
        <mxCell id="inQNlQKym5KlZ0pr-Kys-45" value="&lt;font size=&quot;1&quot; style=&quot;&quot; face=&quot;Comic Sans MS&quot;&gt;&lt;u style=&quot;font-size: 22px;&quot;&gt;Training&lt;/u&gt;&lt;/font&gt;" style="text;html=1;strokeColor=none;fillColor=none;align=center;verticalAlign=middle;whiteSpace=wrap;rounded=0;" parent="1" vertex="1">
          <mxGeometry x="150" y="150" width="60" height="30" as="geometry" />
        </mxCell>
        <mxCell id="inQNlQKym5KlZ0pr-Kys-67" value="&lt;font size=&quot;1&quot; style=&quot;&quot; face=&quot;Comic Sans MS&quot;&gt;&lt;u style=&quot;font-size: 22px;&quot;&gt;Inference&lt;/u&gt;&lt;/font&gt;" style="text;html=1;strokeColor=none;fillColor=none;align=center;verticalAlign=middle;whiteSpace=wrap;rounded=0;" parent="1" vertex="1">
          <mxGeometry x="550" y="150" width="60" height="30" as="geometry" />
        </mxCell>
        <mxCell id="inQNlQKym5KlZ0pr-Kys-116" style="edgeStyle=orthogonalEdgeStyle;rounded=1;orthogonalLoop=1;jettySize=auto;html=1;entryX=0.5;entryY=0;entryDx=0;entryDy=0;strokeColor=#000000;fontColor=#46495D;fillColor=#B2C9AB;strokeWidth=2;" parent="1" source="inQNlQKym5KlZ0pr-Kys-68" target="inQNlQKym5KlZ0pr-Kys-69" edge="1">
          <mxGeometry relative="1" as="geometry">
            <Array as="points">
              <mxPoint x="508" y="460" />
              <mxPoint x="485" y="460" />
            </Array>
          </mxGeometry>
        </mxCell>
        <mxCell id="inQNlQKym5KlZ0pr-Kys-68" value="&lt;font color=&quot;#990099&quot; face=&quot;Comic Sans MS&quot; style=&quot;font-size: 14px;&quot;&gt;Gaia XP Spectra&lt;/font&gt;" style="rounded=1;whiteSpace=wrap;html=1;fillColor=#e1d5e7;strokeColor=#9673a6;strokeWidth=2;" parent="1" vertex="1">
          <mxGeometry x="468" y="392.85" width="85" height="60" as="geometry" />
        </mxCell>
        <mxCell id="inQNlQKym5KlZ0pr-Kys-111" style="edgeStyle=orthogonalEdgeStyle;rounded=0;orthogonalLoop=1;jettySize=auto;html=1;strokeColor=#000000;fontColor=#46495D;fillColor=#B2C9AB;strokeWidth=2;" parent="1" source="inQNlQKym5KlZ0pr-Kys-69" target="inQNlQKym5KlZ0pr-Kys-70" edge="1">
          <mxGeometry relative="1" as="geometry" />
        </mxCell>
        <mxCell id="inQNlQKym5KlZ0pr-Kys-69" value="&lt;font style=&quot;font-size: 14px;&quot; face=&quot;Comic Sans MS&quot;&gt;&lt;font color=&quot;#00994d&quot;&gt;Expert&lt;br&gt;Spectra&lt;br&gt;Encoder&lt;/font&gt;&lt;br&gt;&lt;/font&gt;" style="shape=trapezoid;perimeter=trapezoidPerimeter;whiteSpace=wrap;html=1;fixedSize=1;fillColor=#d5e8d4;strokeColor=#82b366;strokeWidth=2;flipV=1;" parent="1" vertex="1">
          <mxGeometry x="425" y="478.56" width="120" height="60" as="geometry" />
        </mxCell>
        <mxCell id="inQNlQKym5KlZ0pr-Kys-112" style="edgeStyle=orthogonalEdgeStyle;rounded=0;orthogonalLoop=1;jettySize=auto;html=1;exitX=1;exitY=0.5;exitDx=0;exitDy=0;entryX=0;entryY=0.5;entryDx=0;entryDy=0;strokeColor=#000000;fontColor=#46495D;fillColor=#B2C9AB;strokeWidth=2;dashed=1;dashPattern=1 2;" parent="1" source="inQNlQKym5KlZ0pr-Kys-70" target="inQNlQKym5KlZ0pr-Kys-86" edge="1">
          <mxGeometry relative="1" as="geometry" />
        </mxCell>
        <mxCell id="inQNlQKym5KlZ0pr-Kys-70" value="&lt;font color=&quot;#cc6600&quot; face=&quot;Comic Sans MS&quot; style=&quot;font-size: 14px;&quot;&gt;Stars Embedding&lt;br&gt;Database&lt;br&gt;&lt;/font&gt;" style="rounded=1;whiteSpace=wrap;html=1;fillColor=#ffe6cc;strokeColor=#d79b00;strokeWidth=2;" parent="1" vertex="1">
          <mxGeometry x="425" y="562.5599999999998" width="120" height="60" as="geometry" />
        </mxCell>
        <mxCell id="inQNlQKym5KlZ0pr-Kys-74" value="&lt;font style=&quot;font-size: 14px;&quot; face=&quot;Comic Sans MS&quot;&gt;&lt;b style=&quot;&quot;&gt;Do it &lt;u&gt;once&lt;/u&gt; to build a database of stars&lt;/b&gt;&lt;/font&gt;" style="text;html=1;strokeColor=none;fillColor=none;align=center;verticalAlign=middle;whiteSpace=wrap;rounded=0;" parent="1" vertex="1">
          <mxGeometry x="388.75" y="328.28999999999996" width="152.5" height="41.08" as="geometry" />
        </mxCell>
        <mxCell id="inQNlQKym5KlZ0pr-Kys-78" value="" style="shape=image;verticalLabelPosition=bottom;labelBackgroundColor=default;verticalAlign=top;aspect=fixed;imageAspect=0;image=data:image/png,iVBORw0KGgoAAAANSUhEUgAAAgAAAAIACAYAAAD0eNT6AAAABHNCSVQICAgIfAhkiAAAAAlwSFlzAAAOxAAADsQBlSsOGwAAABl0RVh0U29mdHdhcmUAd3d3Lmlua3NjYXBlLm9yZ5vuPBoAACAASURBVHic7N13fFXl/cDxz7kje09C2BtBtqIgIuLGXevW2rrbOlpXte62jlrbulu1P1cdOFq1VXEAFpGl7L0TCCEhCdnrrvP746C1yEjuec64N9/363Vf+JKc53m4ucn5nmd8vyCEEEIIIYQQQgghhBBCCCGEEEIIIYQQQgghhBBCCCGEEEIIIYQQQgghhBBCCCGEEEIIIYQQQgghhBBCCCGEEEIIIYQQQgghhBBCCCGEEEKIvWlOD0AIIbq4FKAv0GfPKw/I3fPKA/KBTMCz50+ABCB1z383A4E9/10PRIA6oAqo+c6rCigFtu55tVr2LxIxQQIAIYSwRxFwKDASGAEMxLjxFzg0nkqgBNgArASW7/lzp0PjETaTAEAIIdTLAo4EJuz5cyTG03wsqMIIBuYD8/b8We/oiIQlJAAQQgjzsoHjgWOBicAhGFP28SACrAbmArOBTzGWGESMkwBACCGiMww4FTgOmAz4nR2ObcLAMuAz4N8YswQRR0ckhBBCWGwY8BCwA9DlhQ6UAY8BRyEPlUIIIeLI4cAfgW04f7N1+6sU+AMwLqp3WgghhHBYJnAVsBTnb6qx+loD3IZxnFEIIYRwtUnAKxhn5J2+gcbLqwV4CWNzpBBCCOEaHuA0jONuTt8s4/21BLgU8HXoOyOEEEJYIB24ASMZjtM3xq722oqxPJB1sG+SEEIIoUo6cCdQi/M3wq7+qgHuANIO+B0TQgghTEjBeOKvwPkbn7z+91WNMSOQst/vnhBCCNFJfuA65MYfC69y4KfIHgEhhBAmHYdR4MbpG5u8OvdaB5yyj++nEEIIcUADgTdx/kYmL3OvTzHqKggLSNpGIUQ8SQbuBm4ihnLz+zwaWckJZCT5yUryk57kJ9XvJTnBR7LfS7LfS4LXQ6LPqC/k1TT8XuO/g+EIYV0HoC0YIRSJ0BoM0xIM0xoM09wWoKEtQH1bkPr2EPVtIUIR3bF/axQCwO+B3wFtDo8lrkgAIISIF8cAz2I8/buSR9PIT0ukIC2R/NQk48+0RNITLY5VdIjoYcLBALqu0xwIU90SoKolSFVzgOqWANUtQcLuDgzWA1cCXzg9kHghAYAQItZlYTwhXoHLfqelJHjpkZlCj8wUijOTKcpIxudxcog6oVCQSCj0vb8J6zqVTQF2NLSxo6Gd8sZ2WoJhB8Z4QDrwV+BXQL3DY4l5rvphEUKITjoOeBEodngcgPGE3yMrmX45afTLTaMwLQnNhb9l9UiYUCiAfpAn/qrmAFvrWimpbaWsoZ2I7poZgjLgR8AspwcSy1z40RRCiINKBB4AfoHDv8f8Xg/9c9MYUpDBgLw0EvaszceCcChIOBTs0NcGwhFK69pYX93M5tpWguGIxaM7qAhG5cG7MPYJiE6SAEAIEWuGAa8CI50agNejMSAvnWGFGfTPTft2Q14s0iMRQsF29E483QcjOlt2t7C+uoUttS1ObypcClyIcXRQdIIEAEKIWPIT4EmM3f62y09NZET3LA7tlkVKgteJIVhDh1AoQCT8/b0BB9MWirCmqokVFU1Utzj2IN6CkUDoJacGEIskABBCxIJE4HHgKrs79mgaQwrSOaxnLsWZjsQdtgmHQ4SD0d/EyxvbWV7RyLqq5m+PJtrsaYxlIVkS6AAJAIQQblcMvA0cYWeniT4PI4qyGN8rl4ykmEkpYFpkz5IAJm7gLcEwy3Y2snRnA60h2/cKfA2cA5Ta3XGskQBACOFmkzBu/gV2dZiS4OWIXnmM6ZEdUxv6VIpmX8C+BMMRVlY2sXBHPc0BW48UVmAEAV/a2WmskQBACOFWPwReBpLs6CzF72VsjxwO75X7bca9rk0nGGhHj5h/gg/rOqsrm/hye52dgUA7cDnGhlGxD3G0i0UIEUfuxFjPtXzu3e/1MLFPHmcf2oO+uWkOJ+pxEw2P12cEACZnAjyaRmFaIqO6peP3eqhoCtixR8AHnIURCMy1urNYJJ90IYSb+DB2+V9tdUeaBkPyMzh2YCGZXWiNPxqhQDuRiLon99ZQhPnb6lha0WA2tuio/wOuATqW9KCLkABACOEWycA7wMlWd1ScmcxJg4soTLdldSH26RAKqg0CACqbAszeupuyBltq/PwLOBcpKPQtCQCEEG6QCryLkdrXMok+D0f3K2BcjxxXpuh1NV0nGFSzJ2Bv66ub+WxzjR0nBv4DnAY0Wt1RLJAfASGE07KAD4EjrexkaEEGJwzuRmqCz8pu4pqOTkjRxsC9NQfCzNyymw01zcrb3suXwDSkmJAEAEIIR+UBHwNjrOog2e/lxMFFHFKYYVUXXYsOwWCbJUEAwMaaFj7dXGN1JcLFwIlAjZWduJ0EAEIIp2QCnwHjrOqgb04apx5SRHqibPJTSdcjxkyARTv4WoJhZmysZkttqyXt77EMOBaotbITN5MAQAjhhDTgEyya9vd6NI4dUMhhPXOsaF6wJ2NgwNr9dEvKG5hTWmtlsaEvMWYCLF93cCMJAIQQdksGPgCmWNF4ZpKfsw7tQfeM+M7b7wadKSccrV3NAd5bt4v6ts4XKuqgzzA2Bna50wGSCEgIYSc/8E/geCsaH5CXxvmjepOTkmBF82IvHo8XXdfRdet276cmeBlWkEZVS4A6a4KAfhilpd8CbC9c4CQJAIQQdnoeI8WvchP65HHKkO74u2j+fqd4vF4jP4CFGX18Ho2h+WkAVuUMGAx0A/5tReNuJQGAEMIudwG/VN2o16Nx6tDujO+VK2f7HeLRPETClk3RA8Z6da/MJPJSE9i8uwULtgWMxVgG6DIFhCQAEELY4SLgcRTvO0pN8HH+qN4MyEtX2azoJE3TAN2yo4HflZvip2dmMptrW63YHDgVWAusVt2wG0m8LISw2tEYO/4TVTaameTngtGy3u8mwYB1+QH2Vtsa5B9rd1HbqnwTYhtGIDBPdcNuIwGAEMJKRRhJV4pUNpqXmsgFo3vJ+X6X0SMRgsE2sKfADy3BMG+vrmRXc0B105UYSwI7VDfsJrIEIISwSiIwAxiistHizGQuHN1bUvq6kKZp6DqWngr4Lr/Xw+C8VLY3tNEUUJo5MA0YD7xCHJ8MkABACGGVZ4DTVTbYIzOFC0b3Jsknv7rcyuP1Wr4h8Lt8Ho2heWnsbGynvl1pv72AbOAjlY26ifwUCSGscDlwn8oGizOTOX9UbxJ9cszP7TTNyBRoF69HY1BeKuWN7TSoDQIOB7YAK1Q26hayB0AIodohwNcYGf+UkJt/7Am2t9m2FPBtn2Gdt9dUskNtroAWjP0A61Q26gby0ySEUCkReBWFN//8tETOG9VLbv4xxuuzf4Om36tx9iEFFKYpPRmSgvGZjrvjJrIEIIRQ6ffAWaoay0zyc/GYPqTIhr+Yo3k8RMJhbDsSsIfPozEwN4WNNa20hZTNQBRhBACfqWrQDSQAEEKochzwFIqWFlP8Xi4a05us5Lh78OoyPB5tTxBgL7/XQ/+cFNZVNxNUlyxoAjAX2KqqQafJnJoQQoUs4EUU/U7xeTTOHdWL3FSluYOEzTSPF83jzG0mM8nHGUMK8HmUbXXzYHzGM1Q16DSZARBCqPA4cIyqxk49pJj+uWmqmhMO0sAoFuSAjEQf2cl+NtS0qGoyEyPY/UBVg06SAEAIYdZkFOb5P7JPHuN75apoSriAsRfAvrwAe8tLSUBHaRXBscAsYJuqBp0iSwBCCDOSgedQdPMfmJfOMf0KVDQlXMTjdXYT54ReWfTNVnYwxQM8i+LaFk6QGQAhhBm/Ac5Q0VBWsp/zR/fC75Xnknij2VAu+ID9A/2yU1hf00y7mpMB+RjHG2araMwpkghICBGtwcBKwPSBb69H45KxfeieoewpTbhMKBhwNAgA2NUc4LUVO1WVEW4HhgGbVTTmBJkBEEJE6xWMIMC0qQMKGVIQN5urxX44tRnwG6kJXvxeDyV1rSqa82HUC5iuojEnyAzA940ErgKOxfjmgrHZYybGuk9c5oQWopNOQlGRlAF5aZw7stfBv9AFdjW1s3JnHZtrmmhoC6JjLF30zU5lZPds8tNiflnYOrpOoL0NuxMD7cvbqytVBQFg5L+YqaoxO0kA8F9JwJ8wbv77W4SMAH8FfoEx/SNEV+QHlgNDzTaU7Pdy5fj+pCW6O9NfOKIzc2Mli3fsRt/P/UvT4LCeuRzTX+nZ87jihmUAgOZAmJeWldMSVDIjsRIYDTg7vREFWQIwJGHULT+HAwdFGnAYRkao6cTgN1wIBX4GXKqioVMPKaY4093r/qGIzlvLt7Omsv6gX7ujvpUtu5sZmJdOgtQu+B5d09EdyAy4twSvh6wkP+urm1U0VwjsxCiAFVMkADA8gXHz76i+GHWiP7RmOEK4VirwNmA6S8+g/HQm93f/kb+ZGytZ3YGb/zea2kOsrqynV1YK6Yn2F8RxM4/mIRwKOj0MAHJT/FS3BKhpVTKescDTgPPTG50gISqMwJj276xrgeGKxyKE2/0M44nHlGS/l1OGdFcwHGtVNLbxddnuTl/X1B7ilcUlrK1ssGBUsU3zuOe5c2q/XJLUzNQUAdeoaMhO7vlOOOd+YFwU12kYu0D/rXY4QrhWGvAGxiyAKccP6kav7BTzI7LYR+t2UtMSiOraiA7rdjUQiuj0yU5Fk20BBl1Hjyir0mdKgtdDst/D5t1KNgSOAf4CRPeBcUBXnwFIBy4wcf2FxFFhCCEO4kbA9Jx994xkRnXPVjAca1U0trGxutF0O/NLq/nHqjICYXfc9JzmphkAgEML0ynOSFLRVD7wUxUN2aWrBwAXYwQB0UrDXAAhRKzIAG4y24imwUlDimLiafiLLVXK2lq/q4EXv9rK7ihnE+KJx+PBbR+AY/vmqDoSdwsKZsjs0tUDgCsVtHGtgjaEcLsrMKqgmTKyezbd0pU8bVlK1dP/d1U3t/PCV1vYpLjdWORxWQBQmJbA8EIl1SdzgZ+oaMgOXTkAOALj7KZZI4luD4EQscIH3GC6EY/GpL55CoZjPZVP/9/VHorw5vLtzN60a7/5BLoCty0DAEzqnU2imjoUv8T4mXG9rhwA3KKwrVsVtiWE2/yQ/2bFjNoRvfNi4ljczoZW5U//e5tfWs305dtoDsTUqTFlNM19t54Uv5fDemSqaKoPcJaKhqzmvu+CPcaj9ht0DkZyICHi0Y1mG0hN8DG+V66KsVju8827bOlnS00Tzy3czOaaJlv6cxOPx523nrFF6aT4lcxOxMRDoTu/C9b7A2rTIGvAQwrbE8ItJgGHm23kyN65JMZAZrwtNU1s3a0kO1yHtATCTF+2jZkbKwmrqVAXI9y1B+Abfq+Hw4qVHOwaB0xU0ZCV3P8Tqd6ZwFEWtDsJOM2CdoVwUjRJsv5HSoKX0cXuP/an6zDbpqf/vS3cVsPLi0u6zikBDTSXzgKMKsogNUHJLICKTeaWct9ODGslYaQxtWon0ijgb8RYOkgh9iMbeB6j+E/UJvbJp0+O+09Gra6sZ0lZrWP9N7WHWL6zDr9Ho3tGittOyimnR8LoLtwJ6dU0PJqmolrgIIz0wG3mR2UNd4Zg1nkYRfXL92Mo8ICF7Qthp0sAU5V6En0exvRw/9N/OKIzx6Kd/50RDEf4bGMlLy/eSnVzfBcc1Vy6DAAwojCdZPNLVikYyeJcqyvNAByPUfTH6k/dEcAiYJPF/Qhhtecwmfd/fK9cBuSZybVljwWlNazb5Z68/Y3tIZaX1+H1eCjOjM/ZAF3X0SPOVwbcF69Hoy0cYUeD6SCsO0YJeVfqKjMAecBL2LPzRMOYNo2NLc9C7NvhwKFmGvBoGmNj4Om/rjXA3K3OP/3vLRTRmbWpkpe+3kpFo2tnkaOmedwd1YwpysBrPvIajVEjwJW6QgDgBV7AqNZkl+4YewG6wvsr4tP5ZhsYXJAeE+f+Z6yvIOTiHfjlDa288NUWZqzfSVvInU/M0XD37R/SErwMyVeyd8X0z5JVusISwJ8x1jLtNgRj+vQDB/oWwgwNeBYwlRXllCFFZCS5OwBYU9nA/NJqp4fRITsb2lhWXofP46F7RnLsLwvoEAm7e790aoKXlZWm8zT0wrgPuU68P6HeAVzvYP/XALc52L8Q0ZiAycx/BWlJ9Mhyd7nftlCYTzdUKGnr0P498Xmtf55qDRpjfnnxVnY2KClhKw6ge3oieSmmg9ieKMilYYV4ngG4EHgS52eapgKlwDKHxyFER92MkS0zakf2yaM409QBAst9sqGS7XUtpttJSUpg3t/u4cxjxvHJgpU0tli/Xt/YHmJZeR01Le0UpieRrCZ7na00IOzyGQCAsI6KI4GNwMcKhqNUvM4AXAq8iPM3f/jvdKoTyxBCdJaGkdo6ah5NY1ihkmxqltlQ1ciyHWrO/N988TR6FuZy1MhBLH7lt0w9bJiSdjtiTWUDzy7YzCcbKmgJxNb+APfuuvhfhxSk4TW/YfEc3HE/+h+xFzYe3A3AM7irGpMXIwOhBnzu7FCEOKCxwE1mGhiQl84oF2f+a2oPMX3ZNoIKNv71KMjh9d/+HL/P+FWampzIRScZZUHmLl9vS8U/XTc2Ci4tr0XXoTA9CZ/Ld9iDkQcgHA46PYyD8ns0djUH2N1qaqyZwLuAmjUnReIpAPBinPO/GxdGWhhjOgbjSOLHxE4ALLqWy4FjzTRwTP8C8lITFQ1HLV2Hf6zcTpWiJDtP3XoZY4f0+Z//59E0pow9hPHDBzDzq1U0tdqT0Ccc0SmtbWZZeS3hiE5BehI+l6bbBUCDcMj9AcA3NtSYXi4qBeYqGIoy8RIA5AFvABerbDQn3UtyoofWgNJ79eEYZ0M/BWQXj3CbBzE2LUXF7/VwypAiFVOmlli4vYaliqb+jxg+gD//8mK0/WzHH9CjkEtPmcTGbTtZX7pTSZ8dEYrolNa2sLisluZAiG7pSSSoqXOvXKwEAJlJfpbsbMDkpJEfY2naNeIhADgOmIFRfUkZjwZv39GP847O5rXPa1VP5Q0GfgSsATYqbVmI6GVjHFeK+m4xKD+d4d2U1FRXbmdDK++v3qHkZ9nr8fD2Q9dTXJBzwK9LTU7k/BOOpHt+NrMXryFo4zn+sK4bSwM7amkNhslNTSTJ565f+bESAHg1jarmIDUtpsZbDDwOuCbHs7s+DZ2TBPwWY71f+W+cuy7oxpUn5dGvWyLBsM6cVcprdqdhnFToDswCYuMnQcSz04HzzDQwoU8eBWlJioajTnMgxGtLt9EWVHMD/uWFJ3PZqUd3+OvHDunLD6cezqLVW9hRZW/BobCus6O+lcVltexqaic90eea/AyxEgB8w+QygBf4ClirZjTmxWoAcAbwzp4/lc81Hj86nedv6P1too3Jh6Yxb20zWyqUl+rUMDZd/QDYDqxX3YEQnXAdJmbSvB6NaUO7u24DWkTXeXP5dqqa1Dx49e9RwPQHrvt2419H5Wamcdmpk0hOTODL5RsIhSNKxtNROlDd3M7ynXVsqmnC7/WQm5KIx8GMQrEUAKQn+vh6R73ZzVvVwIdKBqRArAUARwKvA7diUUnf3gUJzPjNANKS/jsL6tE0ThqbwZtf1FHfYskUXh5wAUbOgLVAmRWdCHEQDwEF0V7cOzuV0S7c/T9jfQXrqxqVtKVpGm/87joG944us7jH4+GoUYM5/4QjWb2ljK3lztQgaGoPsb6qkcVltdS1BclM8pOaYP/BqVgKAHwejdK6NhraTeUuSMBFxYFiJQAYj7F28gjQ26pO8jN9zHpwIL0KEr73d6lJHk4el8H0OXW0tFsWuffG2IV9KMaO0R1WdSTEXrIwfr6ifhwc1T2bni7L/rdiZ53SMr9Xn3Us1593gul2cjJSueSUo+ien82cpetoDzqTECcU0alobGPJjlo2VhtBUm5qom2bOGMpAABoCobZVm8q0VM+8Bgu2Qfg5gAgHbgMoyTpXcBQLDzel5Lo4aP7+zOq3/6zl+Vl+JgyIp3X59QSCFl2ik8DDgGuwFiPTcPYLBh/5cCEm0zB5CmaKQMKXFX8p6S2mXdXqdn0B8aZ/3/8/gaSEtT8GzVNY+yQvlx00gS27thl60mBfWkKhNhU3cTX23dT3dyO16ORmZRg6RJBrAUACV4PyytMzSZ5gNnAZjUjMseNAcAI4H6M4xI/wIYqfol+jX/d05/Jw9MO+rXFuX4OG5jK9Dm12LCEl49xyuFnQB9gG1Bpea+iK7oM6Piutr0k+bwcP6ibawrU7GpqY/qy7QQV/ZB6PBpvPXgDh/QtVtLed2WmpXD+CUdy1KjBLF67lao6NcsV0QrrOrua2lld2cDislqqmtvxeDSyLAgGYi0ASE3wsrSi0Wz1yK24JCGcmwKAJIxEPs9jbET6/jy8BRL9Gq/f1odph3X8IEH/okQO6ZXEu/Pr7QgCwHgvxgJXYwREnwGxlfdTuN0dQL9oL+6fm8YhLjn+V9MS4NUlJbQq2vEP8Osfn8HlZxyjrL196VdcwBVnHENKUiILVm2y9cjg/oQiRjCwprKBJTtqqW5uJxyB9CSfkiRDsRYAAOxoaKfWXFbAAPCKouGY4pJ4nSSMs/yT7ew0PdnDP+7sx3Gj0qO6/tOljZz9uy00tdq7mxcjejwJl6wjibiwC2PGKSrHDijkiN65CocTncb2IC9/XUJ9m7oby1EjBzHrmTtsqfb3jbJdu7nl8dd587OF6HbkE+4kj6ZRnJnMgNw0+uelRX30M9BmvhiT3RaW1fNFqamjnJVAN0XDMcUtMwBPYLIASWflZ/r45LcDOGrYwaf996d/USLHj8rgn/PrrdwYuC99gBxcdJxExLQijBTaUZvYJ5/MZGfX/1uDYV5dUkptq7rjujkZaXzy5G1kp6cqa7MjMlKTOefYwznpyBFs2l5B6c5qW/s/GB1oaAtSUtvMkh21LNlRy87GVloCIfweT4dPFMTiDIAGrNplKi9MGvAXoFnJgExwwwzASGAJNlYm7FOYwIz7BzC4h5p85evK2jjprs2U7lKeJ+BAIsAoYKWdnYq4dCLGDFxUNA1unjwEv4PpZlsCYV5bWsquJnV7ZTVN452Hb+DMyWOVtRmtD75cxu1PTWfV5tg4IZzs99IzK4UeWSkUpSfRLT2ZRN/3Px+xOAMQiug8sWAbYXMzMydgpIN3lBtmAO7GyI9vi+NHp/PxbwbQK1/dFoO8DB8XTclh6eZWK5IF7Y+GsQ/gI7s6FHHrbOD4aC8uSEvisJ4HTolrpab2EK8uLVVW4OcbN110ipIjfyoM6tWNq846lr7dC1i6oYT6JneXEQlFdGpaAmzd3czKnfXML61mdWU9ZfUt1LUFCUV0fB4P3hjcyuTRNDbUtNBibo/JMmC+oiFFzQ0BwKNYlNTnuzwa3HlBN567vhdpSer/2alJHi6ako0OzF3dZFepvzTgaXu6EnHsGoyZuKj0z01jUH50+2jMamgL8urSUmpa1AbeJx05gv+760pHs+TtzaNpjBrUm5+ecxw9CnNZtXk7dU2x8wTdGgxT1dz+bVCwcFsNi8sb2FjTQlljOzWtQVqCYUIR4+nGrQWMAMob2qky95nbCbynaDhRc8OnuwXY/+F7BXLSvfz95j6cPC7Dym6+NWt5Ixf8voRddZYn92gB7F2cFPFoISZm4ZzaAFjXGuDVJaVKN/wBDO5dxPy/3UtWuruSGu0tGArzykdzefDF99lctsvp4Sjn9WikJXhJT/CRnuglNcFLks9LotdDku+/r0SfB6+m4fGAf8/JBJ9HszQl9aId9cwpMbURcD4wQdFwomZ/7sfvc98WV5PaAjqhsC3/rLh774Qj+pi5OC9VzV6azqhsbOPN5dtoNJeW9Xuy01N57w+/dP3NH8Dv8/KT0yZz6SlH8eqMeTzyyges2Ro/yUPDEZ36thD1bdF/j/1ejcxEH72ykhlRmEZeipql33zz7fRRMAzT3LAEcDEmjh91RGtA5/X/1BIKG4V9rJrWC0d07vl7Bdc+tZ3WdlvuzRuRJQBhTipGVc2ofygm9y8gyW/fr5KN1Y28uXy70nP+YJT4/ccjN3L4sP5K27Wax+Nh1KDeXPuDqRwxfAC7djc4VmPAbSI6tAQj7GxsZ3llI63BML2zkk3fA3wejcXlDWaaSAN+DziTA3oPNwQAQ7FhE6AOzFnVxLy1zZw8LoPUJLXrS7vqQpz126289Nlupe0exHRkE6AwZxBGpsmo+L0ejh1QaFsGwIXbavhgbTlhc5nY9umJmy/l/BOOVN6uXTRNY0DPQi455SjOnjKO9vYga0t2ELa56qCbVTQFKG9oZ0h+qqkgIMHnYdGOejNppjXg7xjVAR3jhgCgDCPDnS2/QrZUBJg+p46Tx2WQl6FmBWTt9jYm37aRZVts3ZkbAa7ESOAiRLQOBy6M9uKclATG2XACIKLrzFhfwbwSa35f3nPl2dxy8TRL2nZCYU4mZ0weyxVnTCEnM42S8ipqGx0/du4K9e0h2kM6/bKj33qmAWuqmmkLmQquPgQ2mWnALDcEAJVAIXCYXR3Wt4SZPqeOKSPSKc41l7xk0YYWjrtjExW1tie0eBqjXoIQZhwPRH3n65aRzHCLUwA3B0K8s6KMdbtMTbnu1/XnncBDPzvPkradlpaSxKRRg/n5D09gwsiBtLYF2FRWScSCGZRYUtnczqDcVFJMLF1t2d1KnYn9CcBc4GszDZjlhgAAYCbGjsi+dnXY0h7h9Tm1HDYwlf5F0W1i+mRJI9Pu3Ux9s+1nWWcCP0LqAQjzTgGOifbi3tkpDLTwCGBJbTOvL92m/Iz/Ny4+eSLP3PYTNBcd97OCpmn071HIuceN58ozp5CbmUZFTR1Vtc4WHnKS16PR18QswI7GdiqbTB0FXATMMdOAWW4JAMIY69nZGIWAbPlpDIR0ps+pZVjvJIb27Fwu67fn1nHOA1tpDdgaSUeApzAqt0kdAKHCOZjYgzMoP51ejHrnCgAAIABJREFU2epPouo6fFlSxQdrywlYtIZ96lGjefU3P8Xn4vPmVkhLSeKoUYP56TnHceYx48hISWZbRQ0Nze5OLqRaMKwzqij64LWqOcC2elOZJ1diIgOnCm4JAMAIAj4E/oFxPHEwNlQEDEfg3fn1HDGk4zMBnyxp5JwHthII2Xbzb8KY7v8x8BLy5C/UuQQ4NNqLh3fLolt6dIVg9qc5EOLtldtZXl6ntN3vOvGIQ3n7oetJTHC2foHTuuVmcvz44dxw/kkcM24oiX4fZbtqaW6N/+eLUERnfI/ol69qWoNsqTUVNG3CuN85xs3zXunABRgbBMdY3VlKoodPfzeACUMP/DSzaEMLU+/YaFcFwDXAy8CzgKmsE0Lsx8cYecmj8oMRPRl8gCWA1mCYisY2KhpaqWhso6E9SHsoQmswTHsobLauelROnzSG6Q9cR2IHC9Z0NZGIzvyVG3l/zhL++fnXbCqrdHpIlrl5Yp+or91Q08z760wdt5wBnGymAbPcHAB812HALRjTlZaNOS/DxxePDGRIj30/0azd3sakWzZS02jp0U0deAt4BIc3iIguYTEmAuyLxvSm915LADXN7azZ1cC6XQ1UNbnrSfKHUw/n7/f/FL/PTZOf7rZ6yw7em7OYTxeuZP7KTQSCjh5dV8pMALC9vo3pqyrMdP81Nm5+35dYCQC+MR4jecLRVnXQKz+Brx8bTH7m/z4d7KoLMe7G9WyvsrTYz3+AWzE2hwhhh01A1JlvLj+8H4XpSYQiOst21LKsvE5pRT6VLj55Ii/cfRVeT9da81epqbWN/yxZx2cLV/HpolUxn3nQTABQ3RLgxaXlZrrfBAw004BZsTYHthCYDJwGPIyRREipbVUBLvx9CTN+0x/vnlzS4YjOhY+UWHnzX4Nx4//Aqg6E2A9TeXy9Ho1F22pYsK2GJsVpeVW68swpPHPbj/FYmB++K0hLTmLaxFFMmzgKgPLqWr5Yup75Kzcyb8VGlm3YRijcNbYoKShWZPket4OJ5Z+GJOBejKUB5SH9ned34zeXFAHw65fLeWC6JetgOvAc8AuMwj5C2K0SKIj24iSfl7aQe3/ha5rGPVeexV0/OTPuj/q5QXNrO4vWbGbusg0sXV/Csg2llOx0NNndAZmZAWgOhHnmq+1muq8EuplpwKx4+ImYirFDvofKRjUN/nlnP/xejdPu24wFe5UqgJ8gqXyFs2qBLKcHYYXEBB/P3XEFF5880emhdGm1jc0s21DK8o3bWL5hG6s2l7Fxe4Urjh2aCQDaQhGeXLjNTPd1GEffHRMPAQBADvB/wBlKG003NgrtblT+hPNP4HJkZ79wnuXluJ2Qk5HGP35/A0ePHuL0UMR+VNTUs37jRjZs38XG7bvYtKOKHdX1lFXVUrG7Ed1Eov2OMhMABCM6j80vNdO94+XcY20PwP7sBs7C2CB4s7JG1d/4AZ4AbsRI6iOE0xxfh1Stf48CPvjTLQzq5ejsqjiIbrmZdEsZwOSRA773d8FQmJ01DWyvqqW8up6quiZ2N7ZQ19jC7oZmdje2sLuhhbkrNzswcoPP/JKS/XW09xIvAQAY6+m3YBQX+iMW7AswSQfux9i3IKI3ErgKOBbotef/bcNIj/wssMKhccWquDoPd+IRh/LKfdeSl2VdemJhPb/PS6/CbHoVHniG3HPMdfYMaB8UbClx/GcvngKAbzwG1GAsCbglzVcQI4vfq04PJIYlAX/CuPnvHdwN2fO6FvgrxqZKdx1AF5bSNI1bL5nG7649V3b6C9FB8RgAgFFnOYxxw3X6t4GOUbZXbv7RS8LImjX5IF/nwQgCBmMUuZEgoAvIy0rn5Xuv4aQjRzg9FCFiitumyVV6Hbjd6UFgnO9/yelBxLg/cfCb/3cdCzxq0ViEi4wb2pdFL94vN38hohDPAQAYyYIec7D/p4E/ONh/PBiBMe3fWdcCwxWPRbjM3Ofupk9RntPDECImxXsAAPBL4H0H+v0n4NwOlfjxM6L7nHqQ9z/uJfjjdRVTCOt1hQAgAlwGmErZ1Ek7gCuQo35mfVMRMloXAhmKxiKEEHGlKwQAYCTcuRxjQ57VIsCPMHITCHMuxggCopWGuQBCCCHiVleaP/sUeBy4weJ+/oRxJl2YowFXK2jnGoz8APYXnhffykhJZNrhg5kysh8j+xXRpzCLrNQkEk+7x+mh7de2ihremrmQmV+tZs3WHVTXNdIeCNGjIIchfYqYevhwzjtuPD0Lc50eqiPk/Yl9Th+Rs1sSsBTjzLgV1mDUVpfjZ+adA7ylqK2zMfZkiO+zNDAaVJzHredO4vzJI0hJ/H5aDs/Jd5pqP7LwFVPX70tpRTX3/PUdXp0xj3DkwKt4Pq+Xc48bz8PXnU9xvqNp3W2j9P1prTM1FrOJgMykAgb4w5clpq7H4XtwV1kC+EYbcJuF7d+C3PxV8AMPKGzvIdyTFKpLSE7w88gVJ7Hqr9fzkxPG7vPm70avfzKfURf9mpc/nHvQmxtAKBzmtY/nMey823jzs4U2jNBZ8v7El64WAIBxImC2Be3OAT60oN2u6CpgoML2BmFsyhQ2GFicy8LHruGmHxyFz3zNdNv86fUZXHz3M9Q3db4yd0NzKxfc+RSPTf/YgpG5g7w/8Sd2fjrV+hVqpz71PW0K8/qi9un/Gw8CfSxoV3zH6P5FzH30Kob3KXR6KJ0y/dMF3PTnV01VoNN1nV/+6dW4fNKV9yc+ddUAYBHwD4XtvQXMV9heV+UBXsCao3uZGCmiHS/AEa8GFucy43eXkZ/paIXTTttWUcOVv/ubkrZ0XeeqB/5GeXX8VPqW9yd+ddUAAOARl7bVld1N51L+dtZE4NcWtt9lJSX4ePOOC2Lu5g9wx9Nv0tTapqy9huZWbn9yurL2nCbvT/zqygHAQowTAWYtB75W0E5XdwFGAGC1ezHyNAiFfnPpcYzs183pYXRa2a7dTP90gfJ2X/9kAdsra5S3azd5f+JbVw4AAJ5T0MbTCtro6qZgTP3bcSRGw/i+n2BDX13CoOI8bjhzgtPDiEpHjrJFIxQO8/asr5S3azd5f+JbVw8AXgEaTVzfBLyhaCxd1fHAe0CijX36gbeB42zsM27deu6kmNrt/11fLF1nWdufLVplWdt2kfcnvsXmT606TRhlg6P1GtCgaCxd0cXAvzGX7jda6cAHwEUO9B03MlISOX9y7JbiXbHJuhIh60rKLWvbLvL+xLeuHgAAPEV0RXsiwBOKx9JVeIF7gJeBBAfHkYAxC3QXcjogKtMOHxwzSX72paa+ybK2K2rqLWvbLvL+xDcJAGAFRq74znoGkDmszusNzMLYjOeGVNQacD8wF+jv8FhizpSR/ZwegilWLl14PbH/61Xen/gm3wHDL+hcdsCZwE0WjSVe+YGfYgRcRzs8ln05AlgCXEvXKpJlysh+RU4PwZSivCzL2s7NTLOsbbvI+xPfJAAwtAEnY+zoP9ByQARjyWAakvO/M47DuLk+hTVJflTJwPgMrAZ+iDtmKFytb7fYLoDTv4d1GQuH9Su2rG27yPsT3yQA+K924GfAKOBJjMp+LXteazDW+0cCP0du/h2RjlGKdxlGKebhzg6nUwYBb2IELVfjzCbFmJCRYufhDfVOmTjKsraPGx9LH/l9k/cnvkkA8H0rgeuAYUDqntcw4Hpkzb8jRgB/Bcox9kmMtKqj4lw/RTmWbkAbBfwF49/yV+BQKzsT9jvj6DH4vOr3f/q8Xn4w5TDl7dpN3p/4JgGAUCUJ44a/DKOan6ULfJmpXj68rz/v3dWP5ATLP8ZpGP+mZRhLBLH92KtQQ0tsT4b1KMjhx6ep35JyyckT6VmYq7xdu8n7E98kABAqJAEzMKb8LV83T/Rr/PPOfozom8xhg1J4+abeeD22LNd7MDYJfoQEAQBsrYj9oi73XHkW6SlJytrLSk/h3qvOVtae0+T9iV8SAAgV/oS1RXy+5dHgpV/2ZsqI/04wnHNUFn/5eU80+7bsTQEeta03F1u2ZafTQzCte142f7//p3gUBJGapvHX2y+Pq6dbeX/ilwQAwqyRGNPjlvNo8MS1PTnv6O/vPL/ixFz+fFUPO4OAa4mtjY2WmL1si9NDUOK0SaP58y8vMXWT0zSNx2++lB9OPVzhyNxB3p/4JAGAMOtKbPgcJfo1Xru1Dz+dlrffr7n+9Hyeva6XncsBtgQ+bvbvRetobgs4PQwlfv7D43n3kV+QkZrc6WvTU5J468Hr+dk58VteQt6f+CMBgDDrWKs7yEz18tH9A/b55L+3K07M5Y3b+tixMRBs+Le7XVNrgDf+s9LpYShz6lGjWfvm77nqzCkd2v3u83q59JSjWD39Yc6eMs6GETpL3p/4IolOhFnNQIpVjRfl+Pnwvv6M6te5p45lW1o5/f4tbK+y9Om0GYtPO9hAN9vAwOJcVv3levy+zh8X85x8p6m+IwtfMXX9geyoquX9OUv4YO5StpZXsb1yNxE9Ql5WOiMG9OLoMUO46MQJlmbLczMl709rnakxeI65ztT1N0/sY+r6P3xZYup6HL4HS8pTYZbpG8jBBEKWdxEt1w7MTht31PDnd+dxyzmTnB6KUsX52Vz7g6lc+4OpTg/FleT9iX2yBCDMKrWy8Z27gxxz20bentvxJ4W35tYx4aYNVj/9A5RY3UGsuOeVmSxYZ13pWCGEehIACLNmWd1BayDC+Q+X8PzHNQf92udm1HD+Q1tpDURT4bnTLP+3x4q2QIiz73+V7VVS4lWIWCEBgDDrOQ5cQEmJcETnqie28fj7Vfv9msfeq+LqJ7cRsWdiPkJ0ZaTjVkVtE6fd8wpl1Q1OD0UI0QESAAizVmDky7ecrsONz5btcybguRk1/OK5MnT7VuW/qRoovmPF1grG/vwp5qwqcXooQoiDkABAqPBLbJoO13W45snt/7Mn4K25dVzz5DY7b/6fATfZ1luMqapv5sQ7XuT+12bHTY4AIeKRBABChXbgFOApbFoOuPTRUr7a0MKiDS386NFSO6f9nwSmAXJnO4D2YIh7X5nJwJ/8kWc+WCSBgBAuJMcAhSrtwM8xlgOuAy7EwjPyrYEIZ/xmy7f/bbFG4DXgCWTav1Mqapv42ZPvc9vfZjDtsMEcM7Ifo/oX0bcwm6w0dQVmhBCdJwGAUG0VcDVwM0YQcDUw2oqOdu4OWtHsdy0B/gq8jhEEiCg1tQaYPmcl0+fET9ZAIWKdLAEIqzRi3DzHAMcDsfSbfz1wLjAOY6e/3PyFEHFHAgBhh88wAoFrATcfFK8HrsGo8vcWkulPCBHHJAAQdglh7A8YAfzH4bHsy3xgLMasRcjhsQghhOUkABB22wZMBe7CHU/YEeDXwFHAZofHIoQQtpEAQDghDPwW+CHQ5uA4AsDFwAPYcHxRCCHcRAIA4aR3gFNxZpNdA3Ayxg5/IYTociQAEE6bCZyOkUfALgHgHKSYjxCiC5MAQLjB58Bl2DMNrwNXAJ/a0JewWDgiKzexy9wWILPfe4+mmbo+HkgAINziDeBeG/q5E3jFhn6EDQJBObARu8wFAO0Bc997n0cCAAkAhJv8DmM2wCpzgYctbF/YTAKAGGbyDFC7ye+9BAASAAh3iQCXArUWtF2PseM/bEHbXVZqgrPZxJvb7Nw6ItzEbIEpCQAkABDusx1jml61XwGlFrTbpf184kBOHlJEeqIzgcDu+mZH+hUK6ObW8GsazH3v/RIASAAgXOlZYK3C9tYDzytsT+zh9WiMLs7m2gkDOWFQNwrT7a3wV10vZRpil7k1gBqTwZ/fK7c/qQYo3CiEMQvwjqL2bkPS+1rK59EY1zOHcT1zqGluZ82uBtZVNlDVbO0UfXWdBAAxy+QegOr6JlPXpyZ4zQ0gDkgAINzqn8AyYJTJdpYC75kfjuio3NREJvXNZ1LffNpCYXY2tFHZ2MbOxlYa20K0hcLGKxgmFDF3F9hWUaNo1MJ+5pYASivNbRVKkwBAAgDhWjpGYZ5nTLbzFwVjEVFK8nnpm5NK35zUff79rE2VLCiN/iZeurM66muFw0ye4y/ZaS74kwBA9gAId/s75tIEN2HkFxAulZ2cYOr6reVVikYibGdyE+BWCQBMkwBAuFkT5nL1v4aR81+4VFay39T1a7buUDQSYTuTAcCa0p2mrk9z+AirG0gAINzuKaJbLIwATygei1AsM8n8DEBDc6ui0QhbRaJPyVHf3Mr2XXWmus8xGXzGAwkAhNutwDgW2FnPAKsUj0Uolpnkx0xKdl3XWbW5TN2AhD1MPv2v3FKOrke/gdTv1chIkhkACQBELPgFMLsTXz8TuMmisQiFvB6N3JREU218tXaLotEI2+jmEnIuXGMup1ducgKSBkgCABEb2oCTgac58HJABGPJYBr2lhcWJnQzmTxo3vINikYibBM2l5Zj3ipzQV9eikz/gwQAIna0Az/DyAvwJLAGaNnzWoOx3j8S+Dly848pZrMHzluxUdFIuqb2QIh5KzayqazSvk5NrP+D+QAgVwIAID7zAIzDqPd+LFCMcZ58M/AR8BJqU8wK+60ErnN6EEIdszMAO6pqWV+6k8G9ixSNKL6VVlSzcNVmFqzcxIJVm1iyvoRAMMSN55/EH39xkT2DMBEArC7ZSWWtuQyQRenmlp3iRTwFAGkYSV8uhO8t74zY87oVIxD4I8Y6sRDCYd3Sk9E0MLGnixkLVkgA8B31TS3fBkbrSneyvqSctSXlrCspp7GlbZ/XzPp6tT2Di4Qwkwd4xkJzz3Bej0a3NAkAIH4CgHSMOvJjDvJ1GnDKntcyjEDgDSBo5eCEEPuX6PNQmJZEReO+b0wdMWPecm4470SFo7LOZ4tWs6V8V1TXNja3EgpHaG0L0B4M0h4I0dTaxq7dDVTVNVBeVUfl7nraAp3/lbZycxlVtY3kZ6dHNbYOMzn9//GiNaau75aWIKWA94iXAOAFDn7z39so4GXgQYz1478C5g6WCiGi0js71VQA8PmStdQ3tZCZlqJwVNZ47t1ZvDVzkdPD+B5d15m9eA3nHjfe2o7C0T9v1Ta2MGfFJlPdF2fYW7HSzeJhE+AxwA9MXF8MPIRRh/4xoK+CMQkhOqHPfmoFdFR7IMR7c5YoGk3XNftrc0/XB6XrpmYA3p27gkDQ3AxCsaz/fyseAoDbFbWTBlwPbAL+BUxU1K4Q4iB6ZqXgMZMRCHjrs4WKRtN1zbI6AAgHMbP+P33WYlPdez0aPTNlBuAbsR4ADAGOV9ymBzgVmLvndTax/z4J4WoJXg89s8xN33+ycCUVNfWKRtQ1bdxeQWmFhRUWI9FP/5dX1zNribmcD70zk0jwyq/zb8T6O3E939/xr9JE4B1gI3ADYG6eUgixX4PzzW0+C4bCvPTBF4pG03XN/trCk9Im1v9f+GgBobC5FMIDcty/R8ROsRwAZAGX2NRXP+DPwDbgAUDOGwmh2OAC87vP//be56ZyxAuYbdVxQBM3f13XeeGjBaaH0E8CgP8RywHAjzHW7e2Ug7HnoATj5MGhNvcvRNxKT/TTPSPZVBubyir5aP4KRSPqmmZ+ZdE+gHAg6ks/WLCaLeXmliaK0hJJS/CaaiPexGoA4MFI+eqUBOAyYDnwMXAC1i5FCNElDCnIMN3GH1/9UMFIuq7yaiOBkFJ6xNQMwB/eMJ+3bWi+rODuLVYDgFMxpuWdpmHc/D/GCAYuA+SMiRBRGt4t0/RpgFlfr2HJ+hI1A+qiZn6leBkgFH15joVrS5iz3NzZf6+mSQCwD7EaAFzv9AD24VCMZYFtwL1ArqOjESIGpSX66JdrfmXvN8//U8Fouq7PF6vcCKibmv7/zUszTI+gf04yyX6Z/t9bLAYAwzAK/bhVAXAPsAMj0+AQZ4cjRGwZ1T3LdBvvzVnCotWbFYyma5q9eA2RiKLNlOFg1IUevlpXykcLze9JGFZg93ax2BCLAcB1xMZ6eyLGKYXVwD+QxEJCdMiAvDRSE8xnKb/n2XcUjKZrqqlvYvnGbWoaMzH9f/uz75s+1ZGa4KVvtrnNpfEq1gKAbOBipwfRSR7gLIykQouBS4mfGgxCKOfRNMYUZ5tu5+MFK/lw3nIFI+oastNTOXnCSO676gd88sSv1FRXDAejTv07fdYS04l/AEYXZZjeVxKvYu1GdCWxnYxnDPAScB9G6WIpQCTEPozrmcOCbTUETSZ+ufHRVzjusGEk+GPtV521cjLSGNq3O8P6FjP+0AEcMXwAQ3oXoam+UYaiK/DU2NLOzU+b38fh92iM7GZxdcMYFks/FV7gWqcHoUgfjAJEvwKexahGWObkgIRwk2S/l0OLMllSVmuqnU1llfz5jY+59ZJpikYWGzwejYLsDAqyM+hRkMOgXkUM7lPEkN7dOaRvsfUlf8HY+Bfl0/99L37Ijmrzz0aHFqaT7Iu1iW77xFIAcDrGjTNqmsdLUkFfWivMHSlRKAu4FfgFMB14FFjm6IiEcInxvXJZuqM22v1j37rvuX9w9pRxDOhRqGZgJk09fDjZ6dFNZKanJuPzekhOSiDR7ycxwUdKUiKJfh8F2RkUF+R8e+P3OF3zPsqn/5Vbynn8nc9Nd69pMLa7+bwS8SyWFkZmY5T+jVr2yBPp/6PHqF8/l8rZ/0fDhnlqRqbWTOCPwEeYKZslRMeY+ozdMfUQVePYp3dXlbGmssF0O8eOO4RPn/yV+ilusW+hAARbOn1ZJKIz5cbH+GKF+RMcQ/NTmTYo33Q7B/KHL0vMNuHoBzJW5kaGA5PNNlJ49KWgaWQOmcSga19g2C3vk3/keXh8rsrdMxX4ANiAUYBItq+KLuvofgVKNnDN+noNj7/5iYIRiYPS9aif/h967VMlN3+PpjGxl/njpPEuVgKAGzEZKaUUDyWt37j/+X/J3QfT+9z7OfTuWXQ/8ef4Ul31gRmAUYCoFGO/gBQgEl1OTkoCIxXkBQD41ZNvqDvaJvYv2Gqk/u2kBWtKuO9FNWmcR3ZLIyvJr6SteBYLAUAucKHZRgqO3n/hQH96Ht1Puo4Rd82m19l3kpjXy2x3KuUDtwGbMU4ODHZ2OELY66i++fgUrGe3B0JcfPfTNLdGfy5dHEQ4FFXWv+r6Js69528EQ9FtGvwuv1fjiB6uephzrVgIAK7E5DS4Ly2HnDGnHvTrPIkpFEy6hOG3z6D/ZY+T1me0mW5VSwauBtYA76FgSUSIWJCe6OPwXmoya6/esoMrfve8krbE3vSo1/1/9MArlFWpORE9tiiDVKn61yFuDwB8KDj6l3/EuZ1a59c8XrJHnsiQG95gyA1vkD3yRDSPaz5QHowTEZ8DXwHnE1unOYTotIl98shQNKU7/dMFPCoVA9ULtkU19f/w658qSfcLRrA4vkemkra6ArcHAGcBpubjNY+X/IkXRH19Wp/R9L/scYbf8Qndpl6JN8lVSSXGAa/z3wJE5tOnCeFCfq+H4weqO8Z325NvMP3TBcra6/IiIWPnfye9MWsxd/3t38qGMbVfDn6v229r7uH2d8p01b/skSeRkNXN9EASc3vQ49SbGXHP5/Q869ckZLlqT14RRgGiUuAxoLezwxFCvcEFGQzIU1PUJRLRufTev/DxgpVK2uvadAi00NkTpbOWbODHD/5dWdGhAbkpDMhJUdJWV+HmAGA0cJTZRgom7X/zXzS8SWkUHn0ph975KX0vfJiU7q4q9peOETRtwpgZGHfgLxcitpwwqJuyJ7xgKMy5tz/O4nVblbTXZQVaOj31//X6bZz562dpD4aUDCHB62Fq3xwlbXUlbg4ArjPbQErPYaT1tWYjn+b1k3vYmRxyy3sMuvYFModMMlJPuYMPY2/AVxh7BU7D3d9rITokKzmBqQqXAhpb2ph24x/YuL1CWZtdiR5qMwr+dMLGsiqm3fYMTQpPY0zqnU16omyF6iy33hTygegX7vconHSpgqEcXMagCQy8+nmG3fov8sb/AM2XYEu/HTQZeB/j9MDVSGIhEePGFGfTP1ddffddtQ2ceN3DEgR0VjiEFuxcwp+NZVWccNOTVNU1KRtGv+xkRhe5am9WzHBrAHA1kGSmAV9aLtmjT1Y0nI5J7jaQPuc/wMh7Pt+TWMhVe/IGY+QR2IaRWKjY2eEIEb1pQ7uT7Fd3MqdkZzUTLr+PBatcUyfE3SIRCDZ36pKv129j0nV/orRyt7JhpPi9nDggT1l7XY0bAwA/cI3ZRgomnu9Yil9fWq6RWOju2fQ+516S8l21Jy8PI7HQJuA5wNpk7kJYIC3RxylDuytts6a+iROve5iZX61W2m780SHQRGeqNH369TqOvfFxdtU2Kh3JSQPz5My/CW4MAM7G5NOp5vWTP8H0CoJpnoRk8idewPDbZzDg8qe/l4rYYUnAFcAqjNoDxzo7HCE6Z3B+Okf0VpMg6BuNLW1M+8Uf5Ijg/ug6tDd1atPf6zMXc9rtf1G65g9Gpb9+2bKiaYYbAwAlR//8GdZWgeoUzUPW8KkMue5Vhv7ibXJGn+KmxEIacApGFcIlwPHODkeIjjumfwG9s6Mrrbs/gWCIi+5+mt+/8gG62VrE8SbQDJGOpevVdZ0HX/2ES373EoGg+RS/39UrM4nJfVy1xBqT3BYAjAUmmG2k8AB5/52W2utQ+l36J4b/+lMKJ1+GN1HtLy+TRgOfAE8DrolQhNgfj6Zx5vBi5TvAIxGdXz35Bqff9Edq6tVtWItp7U1Gwp8OqK5v4tRf/YVfP/cvZef8v5GZ5OO0IWqqRHZ1bgsATD/9p/YaQWrvkVFdGwm0suGZH7N7yb/QO3m0pbMSc4rpeebtjLj3P/Q47Ra3JRa6FnjG6UEI0RGpCT7OHdmLBAsywH3w5TLGXHIn81ZsVN52zNDZ8+TfsZv/Fys2M+aKh5Wl9/2uBK+Hs4YWkOxz260rNrnpKa8QeB6Tee17nHYLKd2jK5hXteAtdn3RsiYZAAAgAElEQVTxd2pXfEL1/DcJNdeSXDgAb5J1T+keXyJpfcdQMOlikgv70b57B8GGKsv664SxwApgndMDEZa618zFk/q5Y6ktLdFHYXoSaysbOpmP7uAamlt5+cO5JCb4mTBiIFqXevLUjd3+4YPf/CMRnYde+5QfP/R36ppalY9E0+D0wfn0yDB1QEypedtNFzC6T8U4ouWmAOAm4DgzDfgz8ulz3m+jW1/Xdba+9itCzbUARAItNG1dwq65r9JeVUJiXk/86dYdN9E8HpKLBpM/4TzSBxxOqKWO9upSy/rroEOQmYB4d6+Zi90SAADkpCSQluhnY7XaneYAEV3ns0Wr+M+StRx2SH8KsjOU9+E6+p7d/h1Y81+5pZzz7v0/XvhoARGL9k2cOCCPIfmuWjKVAECRBODvGKlso9ZtyhVkDDwiqmvr189l139e+v5fRMK0lq+nat4bNGyYhzcxjaSCvmiadVNQiTk9yB1zKjmjT0EPh2ir2ITewY03ihUCbwLVTnQubHGvmYvdFAAAdEs3ng631XW+LG1HlO6s5vn3ZtPU0saRIwaQ4I/T7HN6pEO7/Rtb2vn1c//i8odfpaRC3fn+vU3uk83oIvcFXRIAqHEe8CMzDWi+BPpd/AjexOiKQWx/5ze0V2874NcE6nZSu3wGuxe/jx5sJ7nbQDx+63IN+FKzyRo2hfwJ5+JJSKa1cjORgPqptYP4Clhud6fCNveaudhtAQBA7+xUwrrOdouCgEhEZ96Kjbzy4Zf07JbLIX3jLKdWONShc/5vzl7CGXc8yydfrbXsqR9gfI9MjuyZZVn7ZkgAoMZzQA8zDeSOOZXccWdEdW1bVQnb332QjlazCrc20LBhHlVfvkZg9w6S8nrhS7OuEIUnIYX0AeMpOPpiErKLaK8q/XapwgZzgfl2dSZsd6+Zi90YAAD0yUklGIlQVm9dwNzQ3MpbMxcxd/kG+nbPp3e3OMhIF2qH4IEDpwVrSrjswVd45I2ZNLZ0LhVwZ40pyuAYFxf5ifUAwA27WcYDprNuDP3lO6T2HB7VtaVv30vVl69H37nmIWPgERQcfQlZh0yxviiQrlO35nMqP3+Bxk0Lre3LSBb0N6s7EY4x9eh2x1R3J5KcubGShdtqbOnr6NFDuP2y0znxiENt6U8pXTdu/Ac4/bRobSn3v/QRHy6wJ1PiET2zOKqXO5/8v/GHL0vMNuHoPdgNC1imq/6l9R0d9c0/3NpAzdfvmRuAHqFhwzwaNswjKb8P+UddRP4RP8STYFGWKk0ja9gUsoZNoaVsNRWzX6B2+UfoHdipGwXJiypi1tSBhST7vXy+eZflfc1Zuo45S9dx2CH9uOPHp3P6pDGxcWIgEtpvSV9d1/n3/NU8On0mc5bbVydhcp9sDivOtK2/rsrpT2cRUIKxCTBq/S79Izmjp0V1bcWs5yn71yNmut8nb1I6uYefRbdjfkxCttqc5fsSqNvJri/+TtW86YTblO2CrsBIy9y5Yt8ilsT1DMA3Vuys48O1Oy1dq95b/x4F/OT0Y7hs2iSK8lz6JBtsg9D3p/HLq+t5ccZC/u/D+Wwpt28PsKbB8f1zGVEYG9X9Yn0GwOkA4D7gbjMNJGQWcuhds9C8nZ/M0CNhVj1wAu01ZWaGcECax0vG0KMpPPpSMgaZTnJ4UOH2Zqq+fF1lUDMTeBSYgcmbhXClLhEAAGyqbuKfq8oIhu2NZ31eL8cdPoxzjzuCMyePJSs9uo3KSkXCRnKf7zz11za28O7cFbw5awkzl6wnZPP7lOD1MG1QHv1zXPD+dJAEANFLBEoxjppFrfiUGyk6/tqorq1d/jGbXzSdfLDDUnoOo3DSpeSMOTWqgKWjapfNYPNLN6hudg3wJ+AVQG1VD+GkLhMAAFQ2tvH2iu3Ut1mb6XN/Evw+Jo8ewolHjuCkI0fYf4JA1yHYCuEAAKtLdjJj4Vo+XrSGOSs2Kc/Z31FZST7OHFpIXorfkf6jJQFA9C4BXjbTgMeXyIh7Po96B/66Jy6kactiM0OIij89j/wJ51Mw6WJ8qeoLWlj876oEnsJIECT5AWJflwoAAFqCYd5dWUZJbefq2VuhW24mE0cMYsLIQRx+SD+G9+9BZpoVT8A69fUNrNywha/WlvDlys18uXILlYrL80ajV2YSpw2JzfS+EgBE7yvAVH3cvMPPps8FD0Z1bUvZatY8eraZ7k3TfAnkjDqZblMuJznK9MV7s/Hf1Qq8hDErsMGODoUlulwAAEZmv9mbdtl2QqAz+hTlMbRvsXG0sCiPXoW5FORkkJuZTm5mGilJCfi8XtJTjKRHjS1thMJhWtoC1NQ3UVPfSOXuBrZX1lBSXsXWHZWsLSmn1MJEPdEa1z2Do/tkx2xhn1gPAJw6BTARkzd/gIKjLo762so5piYflNBDAWq+fo+ar98jY9CR9L/scbzJ5rJdVc55RdHoDioZuAa4CpgFPA78y67OhTDDo2lMHVhI35xU/r22nKZ2S07QRKVkZzUlO+N7ci3F7+WkgXn0y7bopJToEKfmXEwf/UvvfxgpPYdFdW0k0Erdyplmh6BUqLnO9M0/1LSb2qUfKhpRh3kwaji8DywBLgViayFPdFn9ctP+n73zDpOqOv/4Z2Z2Z3vvjV0WWJbemxRBlCIqoqKCBXs0aoxR04w1xmg0xcRfTDRRjBEVK6I0Gx2U3kHa7sL23nen3d8fFwzKsmXOnbl3Zs/neeah7Nz3vDvlnvec877fl1tHZ9Mn3jeyzv2BzOgQFgxNlZO/AdAjAEgDhPeoEyfe4Pa1ZmsIgx/9kow5DxumDW/S+UJKyACUb3wbl0PX/LxhqMcCR1CbOxlPvFsi+QFh1gDmDslget8UAj3QUliiYrWYuTA7jrkDkgizGkWEtnujx6f9xwiuEK0xqUQPEmociCUkkqRJNzLoN5/Ta8ELhPccLmRPhIDwOGKGXSxkQ3E6KN/4tkYeCdMDeB44CbwAZOrrjkTSMSPSY7hrXG8GJksBGq3pFRvKzcNSGZoid1qMhLcDgCBUaVkhEsfPd6/lbxuYLAHEDJ1B7k/eov/PPiBu5GyPlui1ReL4eZgDxJoKVe9ajq22VCOPNCMC+AlwDDU/YJy+7kgk7RMeFMBlA9KYOySDqGB5kiVKuNXCZbmJzOmXSESQEYRnJWfi7QBgHpAoYsAcGEz82LkaufN9QjMG0PO6PzD4sTWkTr/HIyV6P8RkCSRh/DxhO2Xr3tTAG49hBi4BNgJrgMvQL/9EIumQPvER3D62l95u+Dy3Dk8nJ853hH26G96+Cd8jaiBu5GUEhHlWVjMwIp7UGfcy5PG19Jz/LCEpOR4bK3b4LAIjxLqINZ3YR0PeDo088jiTgCWopYP3AfLuIDEkVpkPIEygxTfL+7oL3vyETwJGiBoRKf3rKqYAK3GjLmfAz5eSe+8iYobO0Ozo4TRa/D6la17TwBOv0wv4C1CEmifgZ03VJRKJxNh481BGvPSv9xjNBHO6Snj2CMKzR9BaUUD55sVq053mOkGbIwnrIdY61NFQSdWulUI2dCYKNU/gTuAd4A/AXl09kkgkkm6At3YAegCXixpJmnSjBq6IERTfg/RLHmTwY6vJvPpJghN7um1Li9+nbP0iFIdN2I4BsKLKQ+8B1gOXon+zKolEIvFbvBUA3IXgbkNQbBpRA6Zo5I44lqAwEsZdw8BfLiPnrtdU37ogZ6lFKaPitGtS+hed3QezlysfOmA8qrDQDlRhIaF20RKJRCI5G28EACHA7aJGEiZcp/n5uyaYzETmnEef2/5B/wc/ImHcNZgDgzu8LHHi9cK/T9WOZdjrxSRDLVYr019ZxBWfrGbQLXdhjTCUds8QVGGhAuBxwL2uTxKJRCI5C28EANcBcSIGzNYQEsZ4pvRPS0JTc8m8+kkGP/ol6Zc8iDU6uc3nma0hxI+5Sni8snXiuv9Z0y4hJD6B8NR0Rtz3C65asYGR9/+KsGRjKCSeIgl4DLV99AtAtr7uSCSd47nbZjBteG9CrL6jKRBiDWTa8N48d9sMvV2ReBhv7PsKJ//FjZyNJdRQK9N2CQiPI3nq7SRNvomaPV9Qumbh98r04kfNISBUTG2sMX8njQV7RF2l3/ybvvdva3gEA2/6Ef2vv5W8VZ+y7z+vUHnAMDl54agJg3cDHwJ/Ajbp6pFE0g4PXDmBB66cQIvNwfp9+Xy2/QifbT/C7uMluBShRoyaYTaZGNwzmWkjenPhsN5MGJBJsFWdGh761wqdvZN4Ek8HAFOAwaJGEidcp4Er3sdkCSRm6Axihs6g6cQ+Ste+TtWOZSRO1KL0T7ybYeLQkcQPaPvtMQcEkH3xbLIvnk3pji0cWLSQ/M9XoLicwuNqgAW46tRjG2onwkWAcVq6SSRnEGwN4MJhvbhwWC+evXU6NoeTw4WVbDtSyPbDRWw7XMT2I0U02+we9SPAYiYnLZ4RfVIZ3juNEX1SGZqdQniITLPpjng6ABBe/UfmjPOoEI+3OK0ymDH7lwSEix1l22vLqN4tXvr3w9X/uUgaNoqkYaOoPX6Uff/9N0eXfoCztUV4fI0YgZon8BiqrsBrQIOuHkkkHWANsDAgM5EBmYncOHUYAHaHk7zSGk5W1HKiopaCslpOltdSWFlHaXUDdqeT+iYbLXY7za0O6pvVxl8RIUGEBAUQHBhIRKiVQIuFpJhw0uMjSYuPokdiFBnxUaTHR5GVFE1ggAFzqSS64MkAIBNV8lWIRAOU/mmJ6OQPULbxLRSn2GI3NCGJzKldO+OL6tmL8x55muH3PMjhD9/hwKKFNJUbpv9ANupOwFPAQtRmRCf0dEgi6QqBARb6pMXRJ00oZUoi6TSeTAK8B3Wr1m2CYtOI6ne+Ru74B4rDRsWmxcJ2cq+9EXOAe/FfcEwsg265iyuXrWPiU38kupehdmgiUfMEjgCLgdH6uiORSCTGxFMBQChwq6iRxIk3GLP0T0eqdnwqXvoXFETOleINiCxWK70uvZLL31/JhS++Ssro84RtaogVmAt8DXwGzEAKC0kkEsl3eCoAuBEQaqVnDgolfqx4qZy/Ubbuv8I2smfOJjhGw5J6k4n0iRcw/ZVFXLZ4OTlXzccSJNbeWGMuBJYDh1AbEIXo646k29AFcTDD4cu+SzqFpwKAH4saiB81B0twhBa++A0Nx7bSeEK8JC/3mhs08KZtYvv247xHnuaqZesZeudPCYrybOfGLtIHNVEwD1VYSKwNo0TSETEZEJ4I1jAw+UB3QZMJAkMhLB5i0vX2RuJhPPGJnAqIdbgxmTQplfM3tFj9Jw0fTVx/sbenM4TEJzD0rp9y1fINjH7oUcJTDXUzSeR/wkIvAYZKYvAQJsB31Gj8BhNYQyD81IQakQTBkRBgoB2ygCDVp4gkiO4BEQkQFIb3u8VLvI0n3uGfiBqIzBlPcKIUezsTW00J1btXCdvpbOmfVgSGhdH/+lu48tM1TH7u/0gYNNSr43dAKGoXwgPAEtSW1f7EGNSyyALACTSj7n78AzBUwkb3wASBwRAaA5HJEJ0BEYnqv62h4I18J7NFXeGHxkBkkupDZLL678BgmSXTzdC6DDAbuETUSNIkz21R+yrlGxYJi/CEJafQ44JpGnnUNUxmC1nTZpE1bRalO7aw7z//4sTqz1BcLl38+QFm1JLVy4CtwB+B9/BdYaFw4GXgh5meFtTy3B+denztZb8kZ2I2gzkEAs9ISVEUcNnB6Tj1pxMUJygucDnVnyunvjOn/zx9tGAyq1v4ZjOYLOrDEqBO+pZAMAfKc33J99A6ALgbwV2F4IRMovr520JMDJe9hXItSv+uudEQXf9OCwvVFeSx/81XObLkPRzNTXq7dZqRwFvAM6i6Av8C6nT1qGuEAV+h/h4dMcbDvki6iskEFqv6kEg8jJZHAOHALaJGEidc7xvJMl6kavunOBqrhWxYgoLJueJajTzShsgeWYz91ZPMXbmR4fc+REh8ot4unUkm6k7ACVRRoR76utNpXqZzk79EIunmaDnT3ggIpXxbgsKIG32FRu74D2VrxXX/e826nKBoocpMjxEUFc3g2+7mquXrmfDk88T0ydXbpTOJBB4AjqL2GzDy5DqWs7f9JRKJpE20CgBMqMp/QsSNuRJLcLgG7vgP9Ue+oanooLCdfvNuEnfGw1isVnrPvorZ761g5sJ3yZg01UhnlgGok+sWYD2qyJDRVKp+gUzjkkgknUSrAGAa0E/IgslE4vj52njjR5Ste0PYRvKoccTkGGpV3SFJw0Yx9W//5oolX9Jv/s1YgoL1dulMxqPKDJ8WFgrV1x1APbK4VG8nJBKJ76BVACBc+hfV73yCE3tq4YvfYKsuombvF8J2+s+/WQNv9CEysydjfvEYc1dsUIWFjHWM0QtVWKgIeAFI09GXezHejoREIjEwWgQAvVF11oVoLjpI6epXcbbITq6nKVv/pnDpX3hqOhmTp2rkkX4Ex8Yx9K6fMunpv+jtSltEoQbBR4FXgP5eHj8MDRJw3aGyyabHsBKJRAO0CABu1MKOraaEE0ueZfcT53NiyTPYqos0cM13cdmaqdj8rrCd3Gv8q6HSofcW6e1CewQBtwF7gWXABV4a9wYEe2+4y8ubj/DurhPkVzfqMbxEIhFAi4Sh7cAwDex8D5PZQsyQGSRNuYWwjIFamzc85ZsWk7/4ESEbAcEhXP3ZZqyRURp5pS8NxYW8f/Ek4V0RL7McVXTnhIfsm1ADDm/vOpxFckQwYzLj6JcYibmd5E2XolDVZKO0oYWqJhv1rQ4aWu3UtdhpdbhodagCNy0On3qfzyIiNJjar17R2w0hIiffTkNzi95uCBFoMWExmQg0mwm1mgkNtBButRAVHEhMcACxIYHEhQa2+5k9F89vyBN1T9ekXS1UYTyi2au4nFTt+JSqHZ8S0WsUSZNvIXrA5G6jEVC2ToPSv0vm+M3kD3DwnTd8bfIHmAlsRu1IeMAD9qdigMkfoKS+hSV7C/kquIyRGbEMS40hKMBMq8NFfnUjedWNnKxpoqKxFYdL0dtdj5MSb6hGWG6REh/N4RMlershhN2pYEehBRf15zixCjCbSAi1khwRRI+oYNKjggkJ8P+5RosAwOOSVfVHt1B/dAvBCVkkTb6JuFFzMAcaKitcU+oPb6a5+LCYEZPJ67r/nsTR0szhD97W2w13SQU+BEYB9RrbFk7A1Zq6FjtfHi5lw/FyYkODKKlvRvH/+f4s/CEASI6L8vkAoDM4XArFDa0UN7Syo7gOE5AYbqVPbCi948KID/XPPlpahDjFGtjoFC3leeS/+zi7n5hM4fIXsNdXeGtor1KqgfBP8ogxhKWk4bTbAN+/+x779CNaa2v0dkOEvsDPNLbZC5ilsU3NaHW4KK7rnpM/wJA+viIeeW784XdwBwUobbCxvqCGhTsKeW1HIVsKa2m0+dwOZLtoEQCs1sBGl3A0VlO86u/sfnIKee/8huaSI952wWO0Vp6kdv9qYTs5c69DURScNhv2piY1EFAM0XjHLQ689bqwDWt0st7CQvegbamecO8Niee4eLyhOl+6hT/8DlpQ2WRnTV41/9x6go8PllFY16q3S5qgxd1wPKoymn6YTETlTiRp8i1E5ozT1RVRTix5ltLVrwrZCE9N59LFyzCZz54bzAEBWAKtbf7MqJRs2cSK2wQVbk0mBv5yOSguStcspHLLElwOXb7Eo1HVBEUJB06iliBKDEZEaDBlK18iyKp/8y0RWmx2EqbdRWOzf0x4WpISHkRxg/DrouuKRItZYAPq+aZ+KAq1B9by7Us3sf/5y6ncugTF6XudXF22Ziq+fk/YTs6V8845wbscDuzNTdibm3E5HPjC8cD+RQuFbUT1nUBwYk+Ck3qRefVvGfzYV6ROv4eA8FhxB7uGVmpXC5CTv2G59bLJPj/5AwRbA7n1svP1dsOQaDD5645W0UcMaiAgJgesIdaoJBIn3kDCeddgCYnU251OUb7hLfLfe1zIRkBIKJcv+QJreESnnm8ymzFbArAEGrNXeEPRSd6fdb5w9n+fO15ps820y95C5dYllK5+jZay40JjdJIbgP8K2jAB+wHf0nfuJoSFBHHkgz+SFOsf8VlJZS29r/gZTS1S9MkD+PwOAEA1MBFYpZE9YWy1pZz85Hl2PXE+BR/+jtbKk3q71D6KQtl60XkBes68rNOTP4DicuG027A1NeKw2VAMlrGlRelfcEIWUbkT2/yZOTCYhHHXMPCXy+h920tE9B4tNFYn0EIPYBqCk7/JbCZhyHANXJH8kAfmX+w3kz+olQD3z5uptxsSD6BlQlIz6spmN6o8cKqGtt1GcdppzN9F+fo3aS75lqCYFDUZzGDUfbuR0tWviRkxmTjvkafd1stXXE5cdjuKywUmk+55Ao6WZtY9fD/OVjEhktQZ9xKWOaT9J5lMBCf2JH70FUQPuABnayMtZce0TpxsBH4KiJ5P/RXoI2IgfcIUZryyiPRJU7A3NFCXdwzFh5NEjcLEoX359yO3YfahHJvOMHFoX77atp8TpZV6u+JvPKHn4J7QiD0IvIxaHRCHeqPSf29ZUWgpOULF5veo+3YjlpBIQhJ7Gmbbu+Cjp2ktzxOykTL6PHKvvVHYF0Vx4XI4cDmdmEzoJiV85KN3yVv1qZANS3AEPa97FnNA5+UqAqMSiRkynfhRczCZA2guOYLi0GT78z3gHUEbfVAbEAl9cMf++kkiMjIJTUwm66KL6XXpFZjMJmqOfovLbhd0sXuSEh/Nqr/9kqhwIzSH1BaL2cyMcYNZtHIjDTIhUEt0DQC8Mfv1Be5H7RkQ4oXxOk1QfCZJ5y8gfvQVmK36udZakc+ep2cIrzYnP/93Us87+5xbGJMJS0Cg1/MEllw5neojh4RsJE26kYw5DwvZqD/6DYdevEHIxinGoaoCivBX1M5/bhOV3Zs5H3zW5ntpa6jn2/cWceCthTSWeE3iw+fpmZrA8hd+Tk4P4+0uasnBvCIu/ulz5BX7pwaLDvhFDkB7HALuRO1X/hhQ5oUxO0VrRT4F7z/J7ifOp/DTP2GvK9fFj7L1bwpP/hEZmaSMnaCRRz9AUdQ8geZGHK2tXtkqLv5mo/Dkj8lM4sTrhX2p+Pp9YRuopX+ik38kcJOoI/2uXXDOQM4aHsHAm37ElZ+uY9LTfyGuX/frw9FVRuT2ZMO/HvP7yR8gNyuVDf96jGF9M/V2RaIB3jyoKgeeBDJQS5j2eXHsdnE01VL8+T/Z/eQUjr5+H40Fe7w2trO1kYqvPxC2k3PVfM+f2SvgctixNzXhaGnG5cFSywOLBPMhgOj+kwmKF7tRORoqqd6xXNgX4AUNbNwMdD7Dsw2sEZH0uvSKDp9nDggge9blXPr2J8xc+C5Z02b5VVdJLQgNtvLobXPY8K9HSY7zn6S/jkiJj2bzq0/w559dT0So/0qydwf03H4woTZKeQDvtU3tHCYTkTnjSZ5yM5E54z267V227r8UfPBbIRuBoWFcvuQLAsPCNfKq85jMZiwBgZgDA9Dq46RV6V/Ona8S2Xe8kI2ilf9H0Yq/CtkASlB3wEQSCcyo+TVCyX8DbriNUQ/+xq1ra48dYd9//83RTz7A2dp9z4HjoyOYP30cP5t/MT2S4/R2R1fySyr486LlvLliI5W1DXq744voegRgjAw4tZ3wz4BrAEN1XQhJySFp8s3EDb8EUxcSyTqForD3mZnC9ec5c69j5P2/0sgpNzGZsAQGYgkIEO7YuPVPT7P39ZeFbIQk92bAzz8RCt4Up53dT07R4mjoccSTfWYBn4gYMJnNXLF0NRHpYvruqx+6h7xVQq74FAkxEfRMTWRkv55MHTWAWeOHYg30fZEfLbHZHXyyfidfbNnLtoN5HC8qo7xa675XfokMAM4gHTXB6Q7AUK20AiMTSJx4PQnnzSMgVJvtvtqD6zj8z9uEbJjMZi5Z9DERPbI08UkLzKcSBt05knC0NLP4orHY6mqFfMic+zgJ54nJB1dtX8qxNx4UsoG66s9E3QUQYQUwXcRAxuSLmPqCWH/6prIS3ps54ZSKpBihkUGk9Y0joUck8RmRxCSHExYVRGhUEJYAM0Fd7MDmsDl59cHPKTmmbdOoC0b2552n7yUuyvs7bL5IRU091z78Il9u3a+p3eReMdzy3FQCrJ0/inI6XNiaHbQ02mhttNNQ00LFiToqTtZTebKOkmM1tDbpWvViRkc5VqOFsSeBXwBPAbcA96GddKoQ9rpyCj/9M8Wf/YP40VeQdP4C4fPlMg26/qWMGW+oyR/UPAGXw47JbMESGIg5wEJnY82jn3woPPlbQiOJG3m5kA2A0rVvCNtALf0TnfxzUcV/hOivQXvog4v/Kzz5R8aHcsNTk4lLF0pnOIsAq4W5vxrPKz9dRUujdjf1L7fuZ/RNj/Lhc/czuHeGZnb9kV2HC5jz0J81rxIIDrcy91fndWnyB7AEmAmJsBIS8b/d294jUr77u8upUHS4irzdpRzfVUb+vnJcDq/qYTyDOufpglGzemzA18DfgG2oKyhDfPMUp4PGgj2UrX+TxhN7CQyPJSiu6661lOdz4qOnEQ3+Rj7wsPCWrsdQFFxOVU8AFMwWMx0FAhsefYiWKrGbR9LEG4jqL6Zf3pi/k6KVLwrZOEVfIAc4gvsVME8Co0SciO6Vw6if/VroSMRps7H+4ftxNDeJuML4uf3IHZcmZONchERYSciMYu/aAk3t1tQ3sfCTtfRIie+2LXI7YvHnX3P5Q3/WfuvfBFf8fBwZufHa2gVMZhOR8aH0GJDAkKlZjL6kD5EJIbQ02KmraNZ8vDYYD9QiXiHkFkYNAE6jAN8CrwJfoPYc6Ishji4UWsvzqNy6hNqD6wgIjiA4sSemTp5/F618kcb8XUIeRPbIYsR9vzCMmNE5URQUpxOn3Y6CemxhamA9zDsAACAASURBVMPn4m82snfhP4WGMpkt9LzuOQIE+z+cXPo8zcXfCtk4hQUYgloKex5qEHCsC9dHAwsBoQSUYfc8QPyAwSImOPbJhxxb9pGQjQCrhTkPjiUwyHObj3FpEbicCgX7tC3rdThdLFmzjcamFiYOyyXAYvTbp3dosdn5xd/e5qG/voXNrn1l0KR5Axh5cW/N7baFJdBMfGYEg6dmkjM6BVuTg4qT9Z7epJ+G2ttD2zOTTuBLn+ACVBW1RahHF/0RvClqhb22lOpdK6jatgQwEZLcu13lOWdLA3lv/hzFKbZNOei2u4nrP0jIhrc5U27YZDZ9L2Da8tyT1OZ1ZW48m+iBU0k871ohG/a6cvIXP6K1DLAJ6IXaDOgKVOnsA0BHpQ53AZeKDBwUFc2E3z6POUAsv3b9Yw/RXCE2qQ6+IIuB53u+hrzn4CQqCuspzxc7TmqLjXsO88FXWxjZP5v0RK93kzQUm/YcYdb9z/PJ+h0esT9wciYzfzTca0s+p9P5XT+UsJhg+o5Lpd+EdOytDioK6vBQqxQTcBmwDsj3yAjnwBcFq48AdwNpqLrqhuny01p5khMf/o7dj0+i4MPfYasuavN5FV+/j7O1UWiswNAwes4Qmhd0xeV0YG9uPtWW2E598UlOrPlS2G7SpAXCNso2LBIOzjpgEPAaalD7OKpkdluYgXtEB+tzxbUEBIspXZZu+4aqg+LSHWMuyxG20SlMcPnPxtBzSJJHzB/IK2L8bU9w5+9fpbEbSuO22Oz86v/eYdIdv+VgXtv3OVEyByYw+77RXpv8FUUNAH5IbGo4F989nJuem0J6rsfKPoNR84W82kPHFwOA09Siiqv0Rk0Y9J56Twc4WxooW/sf9vzuIo6/+RBNhWfs7CguVflPkF6XXqFL3b/WKC4njtZW9r/xb+G6/5DUvsLd/BSHjYpNi4VsdIFEVHXMfOBF1M/ymVwCZIsMYDJbyL1GXMb4wFsLhW1kDkwgqaf3inssAWau+uV5micbnsblUnj5o68YddOjrNi02yNjGJHlG3cx7PqHefY/n+B0eSZhLj4jkmt+MwFLoPemqLYm/zNJyIzkuqcmcvHdwwmJ9MjmcwLwH7w4L/vSEcC5cAI7gX8Am4Ak1Jum/gfjiovmokOUb3yH+mNbCQyLpaX8OOUaBABhKanE9MohKMpQ1ZJu4WhuZtMTv8RpE1tJpV98P6HpA4RsVG1bSuW2j4VsuIEVGI262h8KFKLuDvwfggFAjynT6HvVfCHnGouL2Py73whLQE+7bRgJGWK5GV0lMMhC7tg0Dm0uoqXBM/3sK2rqeXPFRtbtPES/nmmkJbjXjdPofL3vKDc+9g+eXvixR0V/YlPCufHpKYRFe1dl0OHoxK6fCZJ6RjFgUgYlx2qoKxdLiG2DbKAVWK+14bbQf5L0DINRhYXmYZA8gdOYLIGabS+bzGbSxk8md96NJA4dqYlNPTjy0WK++cOTQjYCwqIZ/NgazIFiN439f7qCphOGUKnejiqQJfQdnfHvt0keOVbIkW0vPMueV18SshGVGMZP/jULk1mfW05tWSOv/+orakrFjt46wmQycdUFo3jqrrn0yfCP3gCH8ov5zUvv8sHqrd+dj3uKmORwFjwzhch473ZUdLpcOLrYBVNxKax/5yCb3v9W69fFAUxCXdB6FH8NAE6Tgios9CPAr7N14voNJHfeTfSYchEmX8pOVhQ+vX4OtcePCJlJnnoH6Zc8IGSj4fh2Dv5VTDzISMTk5DL73RVCNpytLSyeNo7WmmohOxfePITzrswVsiFKTWkjC3/xJXUVmq/azsJiNnPZpOHcPfciLhjZ3+PjaY2iKHyxZT//9+4qPlm/02Nb/WcSnRTGgt9PISoxzONj/RCbzeb2JH5kawkf/2kL9laxI8wfcBwYgJos7DF8aKZwiwbU8sG/AoeBfoD2xaQGoLmijBNfreLox+/jaG4ipk9fLEFBervVISVbN3PwrdeFbJjMFrJveB5LsNhZ74mPn6GlRCwQMRIj7n1IuJvfkSXvkrdSTPY3MMjCnAfGEhik7+0mONxKv/PSObqthKY6zybuKYrCwbwi/rNsPW+t2oRTURjUK8PwEsItNjuLVm5iweP/5I9vLuNQfrHHV/2gnvnf8Dt9Jn+ny4nL6X6AE5saTubgRA5/U4xDuyAgBnUnYLVWBtvC33cAfogZuBy1AdF5OvviUQLDw+l92VXkzL2OsKSUji/QibW/+Akn14ll/8cMnUGvBWLN9mw1Jez57QXCiYhGITg6lrmrNmIJEjsSWXLVDKoPHxSyMXxGLy65xzhHVE11rbz1xDoKD1V6ddyI0GBmjR/KnCmjuPi8IYSFGCNAb2huYdmGXXy4eivLNuykvqnFq+On58Yx77FJ31Pr8yZ2ux2XBjscFSfqeefJDTRUafb6NaPuAog1i2mH7hYAnMlY1EBgDn68E2IOCCBjyjT6zbuJ2FxjbUU2FBWy9OqZKIJfvtx7FxGePULIRuGnf6L4czERIiMx6Ja7VJEoAUq2bGLFbYJHIia488UZJGYaq12uvcXBu89s5MjWYl3GDwmyMn3sIC6bNIKJQ/vSKz3Rq+MfPlHC+l3fsmT1NlZ9vYcWmz56+H1GpXLVL8/TbXdIURRsNu2SQytO1PPmb9bS0qDZ6/kR6hzlEbpzAHCabNSeA7cAvl9X1w5Jw0eRe+0CUs+b5FajHq3Z8bfnhcvLQtMH0P+BD4RsuOwt7H5iMo5GsXNuo2C2BHDlsnWEJYvt/Hx5/x0UfLlKyEbPIUnc8LvJQjY8hcup8Plru9j80SG9XSEpNopxg3ozbnAfxgzoRd/MFJJitQmaSqtqOZhXzNf7jrJp97ds2nOEsuo6TWyLMG5OXy68eYhuiaGg3er/TE4erGTxkxu1zAmYDoh9Ec+BDAD+RzRqsuC9qCJDfktkjyxyr72RnjNn65Yn4Ghu5qPLp2KrF7sR9Zz/DHGjxALkis3vkffOw0I2jETWRRcz+fm/C9loKDrJ+7POFz4SueY3E+g71thfpz1f5bP0b1tw2Ix1/BMWEkR2aiK90hPJSkkgITaSkKBAQoODiAoLISRY3TJvbrFR29hMY3Mrza02KqrrOV5UxrHCco4VlRlOqCgwyMKl945i4GTPK0K2h+JyYeti5n9nObKlhA+e/Vqr/IntgNgW5zmQAcDZWIFrUI8Hhujsi0cJio6hzxXXknPlPIJjvFskcfjDxWx5TrD0LzyOIY+txtSO7HJn2P/cbJqKxM65jURAcAi9L7uS/jfcSmQP95ppbv3T0+x9/WUhP6KTwrj3Ff1K/7pC8dFq3n16g8fLBLs7McnhzP31eJKz9dcvsdsduDyY87N20QE2va/Z7tI04DOtjJ3G+N9MfbkQVU9gBn78WlmsQWTNuIR+1y4gMktId6ZzaFT6lzLtx6TNvA97XTn1R7+hIW8nLaXHaK0swNFUg7O5HpPJjDk4jMCwGKyxGYQk9yIscygRvUcTGBFP/dFvOPSiuFJeXL+BVB7YK2xHS0xmMxmTL2TAjbeTNKzzzQQdzU0snjZOuC3ztNuGMvbyvkI2vElro51lL21jz2qvyrF3GwZfkMXMO4cTFCrWk0ILFJeCze4ZYajTuJwKbz++nhP7NUk2/QJ1PtIUv53UNGYAcD9wPWCM1F1PYDKROnYi/eYvIGnEGI8NU7J1M1/+5DYxIyYTyRfcTsOxLTTk7aTLXTpMZsJ7DsNla6HppJjwT/Koccz411uU7dzKvv/8i4KvVgknNmpN/MAhDFxwOz2mzsBsab8U7dC7b7LpKbEjEWtwAD99/TKCw/S/2XeVvavz+fSlbbQ26pMY528EhwUy6+6RDJhknDbKnl79n6ahqoVXH/iS5jpNgo3RwBYtDJ3Gb7PfNaYc+Bh4hf+VZnhXqspL1J/M5/jyjzm57isCQ0KJzMrWPGFw+wvPUleQJ2yn4fg2bDUlbl6tYKsuxl4n3jJ29EOPEtWzF2HJqfScfgnZF89GUVzUHD2MqzPyol6gqayUvM+WcXSpmjAZ3SsHi7WNoxNFYf1vHqClukpovGHTsuk3Pl3Ihl4kZkUzaHImVUUNVBVp3Nu+m5EzOpV5j08io59x5FcUl4LDqX3b4rawhgQQEmnlyBZ371PfIxbQtFGJ3AFwjyDUPIFfoooL+S3BcfH0ufxq+s69DmukeFZyY3EhH88VL/0zCuEpaVy5bC0m89mxtL2xgcMfLWbf66/QWKpPudm5CAwLo/fsqxl44+2EpfyvAVnRpnWsulPwSMQEP/77TOK9rPvvCb79pohlf9/mFfVAfyI8NoQLbxrM4Auy9HblLLy1+v8OBf778FoKD4kF1ajCQOlAqbhTKnIHwD2cwC7gJWAHagtHfVNaPYSjuYmyHVs4/ME7tFRVEtmjJ9YI92/sexf+k4o9OzX0UF8G33HvOc/XLVYrCYOH0e/aBURkZFFfWEBLZYWXPWwbl91OxZ6dHHz7dWrzjxGemk5oQiLfPPdb6vKPCdnuNSzZp87+2yMuLYJhF2VjtzkpPlqN4vK8Kp4vYwkwM/rSPlz96/Gk5Xisda7bKIqCw+Gd1f93mCC5VzS7v8jv8knlDzCjdg79RhO/kDsAWjIKtXLgSsDYep8CqIllF9Fv3gLiBgzu0rWO5mY+mn0Btgb/2FYNCAnl6lWbOr8zoigUbV7Pvv+8QuGmdV3PW/AwScNHU7Zzq/DuzLzHJtJnlFfbmnuFquIGvnx9N/s3nABjvXX6Y4L+EzKYeuNgYlKMK6did9iFZH9F+PRv29m7ukDUzCY0VLGVOwDaUQS8h9rP2YWaJyCaMPhP4Beo/Qv6YISATVGoPX6Uo0vfp2TLJqzhkUT2yMJk6ti1o598yInVmley6Eafy+eSNW1W5y8wmYjIyKTXJXPIvHAmrtZWao8fQemgD7m3aCwuFA5KYlPCmfGj4Z36PPgaIRFW+k/IoNfwFGpKG2XJ4Cl6DkniyofGMXZ2X93kfDuD4tJh9X8G8RkR7Fh5XDR4TAfeADRRLZMBgPbUoqo2vQRUouYIuHN4fgK4FtgHLEJN/rCiBhaG2GFoKi2h4IsV5K/6FJPZTFTP3pgDz5H1rShsfuph4a5yhsFkYuJTfyQ41r1tzpDYeHpMmUZdQR7V3x7Q2Dn9mDR/AOm5xkn48gSR8aEMmZpF75GpNNe2UlnYoLdLXsdkMpE7Lp3ZPxvDhKv7eb19rzs4nA6vNDY6FyERVipP1lNxQmgH1ARUAGu18Mn/wnTjEQjMRdUT6KyaUwmq/OPuNn6WCPz41CNBCwe1whoZRZ/LryZn7nxC4r7vWsmWTXx53+06eaY9qWMnMO2f/xWy0VJdxbvTx+FsNZZSm7tYQwK4//XLDFHn7U3KC2rZvORb9q4pwN6i3wrTG1iDAxh4fg/GXt7Xp5I8XYqCXUPNf3cpPV7Lwge/EjWzGRingTtyB8ALuIA9wMvAGtTt/N60HXwpqOWGs4FzqeQ0oraIfBF1l6APBmlx7GxtpXzXdr59bxENRScJT8v4boW8/a9/0KT0zyiMfugRorJ6CdnY/99/U7RpnUYe6c+Imb3IHeebpX8ihEUF03dMGqMv6UNUfCh1Fc001ni3o56nSeoZzfnzBzD7/jH0n5BBaJRvyaE4HPqu/k8THhPM4S3FNNYIBf1JwJ8B4YhG7gDoQxZwFTAU9c2sRq0qWErbq/72MAOzUHcYJmvmoRaYTKSMGkfmRRfz9e8f9ZvSv4j0HlyxdLWQPoLL4eC9mRNoKtOkPlh3TCYTP/7HTOLSIvR2xRAUH61m39oC9q8/4bO5AtFJYQyY2IP+EzNI6RWjtztu43K5sHtI898dtiw9ypcL94ia0aRBkAwA/IsRqJUIV6EePUg8wKgHf8OAG8SUDI+v/IQ1P79HI4/0p/fIFOY/PklvN4yHAoXfVnJg40mO7Sih5HiNcSsITJCcHUOvYcn0G59Oah/v9gfxFJ7o+CdCY00rf79jBS6n0Afh98CvRX0xRDKZRDO2AfNRBYruBW7HvQRESTv0mHyRsI0Di17TwBPjMPrSPnq7YExMkNY3jrS+cXDzEBprWji2o5RjO0soPFRFRWGdbgGByWQiLi2CtL6xZA9LJntoEmHRwfo44yFcLpehJn+AsOgg0nPjKNgnpAlyvha+yB0A/yYSeBVVm0CiEUN+dB/Dfny/29dX7NvNJ/MvE/YjJLk3zSViDZW0IC49grtfuljeTdygtdFO4eEqig5XUZZfS1VhPZWF9bQ2abtlHRQWSFxqBHFpESRmRpGaE0tq71iCfLBXQ1ew2WyGOPv/IRvfPcS6t4Wqf1qBMFRROreROwD+TR2Qo7cT/saBtxYycMEdBIaFuXn968I+hGUOod9PF1N/5GtKVr9G7f7VugkLjb6kj5z83SQoLJDsoUlkD0363v83VLdQXdJAU20rDdUtNNa00FjbitPhorXRjqIo2JrVigNrSAAmk4mgsEAsAWbCooIIiw4mPCaY0KggYlPC/W5l3xmcTpchJ3+AzMEJogFAEGou2VERIzIA8G/GA4P0dsLfsNXVcuTj9+g3b0GXr22urCBv5VJhHxInqnr9Eb3HENF7DC1lxyhdvZDKLR/hcnivrDAoLJAhF/b02njdhfAYdQKXuIkCTi81/HGHlN7RWEMCvgvi3KQPMgCQtMOP9HbA20T27EfmzOuJHzaRsJRMFEWhqTifil0byF/2BnXHtRHdOb5iqVsBwLfvvYlTsB45MDKB2KEzvvd/wYnZZF79JGkX30fZ+kWUbViEo0G4+UiHDL2wJ9ZgeRuRGAun02nY1T+A2WImMSuKkwcqRczkACtEDEgdAP8lDvg33STIs1iDGXT37xhy33NE9x2GNTIWk9mMyWzBGhVLdM5QMi++nqCYRCp2rEMR7AbWWFpMxd7dhMQnEJGW0alrXHY7a3/1UxxNYmVhyVNuI7LP2DZ/ZraGEtF7DIkTr8cak0preT6ORs+oL5pMJuY8MNbQ8q+SbogCdqdxyv7ORdGhKkqP1YqYOAosFzEgAwD/5U5UfQC/x2INZsxT/yVl/CxoR4PeZDIRnTOE2P6jKVqzRDgIqCs4ztGl71Ow+jMCQkOJzu7TrjbA8RVLObr0faExTQFWsq9/DktQ+9KrJksAYRkDSZwwn9CMQdjryrBVFQqN/UNyRqcy6hKZ/S8xFg6nwye6NlYVN5K3q0zERCXwpogBGQD4JybgNQyiEOhpBt31FCkTOh/rhCZnYI2IoWzLF5qM31xRTsEXKzmy5F0Uh4Po3jlYgs5WStv45C+FhX/ihl9C3MjZnb/AZCI4sSfxo68gesAF1B5Yi7NFG+36WXePJDrJvURIicQTKIqCw8Bn/2fS0mBj/7qTIiYqUHd53cZ9KTOJkZkMCDVktwSFkfuTt4gbNQeTxbilQpHZ/elx8XVdvi5z1g1EZuVq6ktjaTFb//IM704fxzd/eJKGwhPf/ax8z07K9+wUHiNx0o1uX1u993NsNcXCPoBa2541OFETWxKJVjgcDuMKLf0ADZI8hWU3ZQDgnwgn/8WOuJTwnsPpOf8ZBj/yJclT78ASarzmH5kzr8dk6vrH2GQy02Pm9R7wCOyNjex/81Xev2Qyqx+6m/I9OzUR/gnPGkZYxsCuX6i4OLn0OYpX/V3Yh9NMmNtPM1sSiRYYUfSnPaziTbPCRQ10iwSxbkYiMEfUSMJ513z398CoRNIveYDUi+6i4pv3KV37H1orCkSH0IT4IePdv3ao+9d2BsXlJG/Vp+St+rTd3ITOkjjphi5f42yq49h/H6T2wBrh8U+T1jeOvmPSNLMnkWiBw+EbW/+nCQoRnn6FdwBkAOB/3AIIpWWH9RhMaFr/s/7fHBRK4sQbSBg/n5o9n1O65jUaju8QGUqYkCT3u8+FJnqxc51gSZI1KomYwdO7dE3twXUUvPc4rZVC54zfxwTTbx8mhX8khsLpNEa3v66gQdtsGQBIvocZVf9fiITx17b7c5PZQsyQ6cQMmU5D3g5KV79GzZ7PhbPq3UHxkYQfURLGz8Nk6dzXtbXyBCeXPkf1rpWa+zHo/EzSc+M0tyuRuIuiKDgd3r/3iGIJFD6BF66/lQGAf3ERkC1iwBISSezQizv9/PCsYYTfNMyjk057NJcXEdHDPbXjptITHT/JAJgDgkgYd02Hz2ss2EPp6lep3rXSI8FYWHQw0+8YprldiUQEp9PpK3l/hkMGAP7FnaIG4kbOxmwN6fJ1QXEZmAO8LwhTvn2t2wFAxa4NGnvjGWKHzyIg/OzWrM6WBppO7qP24Dqqd62itSLfo37MunsEoZFnlzdKJHrhUhScTt9b/RsFGQD4D2nAJaJGzkz+6wqOxmqqvLz6ByhY+RY9L7sZk7lrkhaK4iJ/uZCGhtew1ZaSv/hRAFy2Jmx15dhrS2kpzwfFO1nPw2f0InecF3MmJJJO4PSxxD+jIQMA/+FWBN/P8OyRhCS7p+xW8c0HKA4xjXt3qM87SP6nb5B16U1dui7/k/9Qn3fQM05pTN0hfXcq0nJimfmj4br6IJH8EJfTt8r+jIjUAfAPLMBtokYSzms/+e+cKArlG98RHd5t9r38OBU713f6+RU717PvX0960CP/ISI2hLm/Hq9FwpJEoim+oPdvdOS32j+YBXSuI805CAiLIWbINLeurTu8yePnz+3hctj5+pHrOf7xa+0mvymKi7ylC/n60Rtw2bzXMtdXCYmwct1vzycyvv2+AxKJt7H7kOKfkZFHAP6BsPJf3Kg5mAPcS/Aq3/i26PDCuBx29r70G/KXvUGP6fNIGDaRkKQMTGYzTaUnqNi5nvzlb/rMtr/eWEMCmPfYJBIzo/R2RSL5Hi6XC5dM/NMEGQD4Pj2ArinE/BCTye3kP3t9BTV7tWmqowX1+YfY9/Ljervh0wSHW5n/+CRZ7y8xJL7S7McXkEcAvs8dCHZ1jOwzluCELLeurdi0WAsxnt1AlagRiTgRsSHc9MwFhpv8nQ6Z7CUBh8PZYatfl1N+VjqLDAB8m0DU7H8hEsa5l/ynuJyUb35XdHiAF4A/aWHISzwP3Azs0dsRLUnPjeP2v1xEYpaxtv2b6lp5/ZdfsuWTw3q7ItERRVFwdiBwtfOzPBY9sp7meu9XJPkiMgDwbWYDySIGAiPiiR50oVvX1h5Yg626SGR4gBrgbeCvQKWoMS9QBvwWWAgMQT1+WYWPpySNmNmLBb+/gPDYrotAeZKq4gZeffALTh6sZOUrOzi2o0RvlyQ6obb6PffXrGBvBZ+9spvCQ1W8+fA6asuavOidbyIDAN9GOPkvfsxVndaY/yEalf69ATQB9cBTWhj0ME8Adaf+rqBO/tNRg4HXAJ8qLwiPCebaRycy6+6Rhiv1Kz5azasPfk5VUT0ALqfCe89uovJkvc6eSbyNy+lst+a/uriBD5/75rvt/8rCev7767WU59ed8xqJDAB8mT7AVCELJjPx465261JbdRG1B9YKDX+Kf5zx978CX2ph1EOsB14+x8/2oHZizAKexjd2M7jz/2aQMzpVbzfOouhwFW88vJqm2u/HUy0NNt7+7TpaGuQWb3dBUdpP/GtttPP+778+6zPRUN3C249vkEFAO8gAwHe5A8GmrFG5EwmKda+ve/nGd7SQoV0D7D/j3y7gRoyZEFgOXAt0lPFYAjyMKs28ADjgYb+EMKK2f/GRat58dM05J/nKwnreeWq9TAzsJjgd9nPu/CsuhaV/2UplYdu7Qk11rTIIaAcZAPgmQcBNokbcLf1TnA4qvn5PdHiAf7bxf4XA9YCRlnhO4DpU3zpLK/AfYCAwB3X3QNIBxUer+c+vv+owiSt/bzkrX9nhJa8keuFyuXC2s/X/+at7OLq9tF0bp4OACnl0dBYyAPBNrgLiRQxYo5OJ6j/ZrWur93yGvb5CZHiACuCDc/xsOTCPjlfb3sCJurX/mZvXu4CPgIlAf9RjjgZtXPMvqosbeOvxtbQ2dU7ideunR9j66REPeyXRC0UBu/3ct4Dty4+xffmxTtlqqmtl8RMbqKto1so9v0AGAL6JePLf2Lld7qB3Go2U/16l/YS5D4DbUSdgvbAD81FX8lpwALgPSD1l9yOgUSPbPk1DVTNv/GY1DdUtXbpuxcvbObaz/RWgxDdxOh2cq7gmb1cZX7zWtSrc+qoW3nt6U6cDzO6ADAB8j/6oq0m3MZktxI+5yq1rW8rzqD/ytcjwoK6Kz5VMdyYLUTPsy0UHdINK4HJgsQds1wNvoR4NxAKTgMeAJUCeB8YzNA6bk7d/u56a0q7HQi6nwnvPbDznGbDEN3G5XDjPIfdbWVjPR3/cgsvZ9crb8vw6PvzDN1Is6BRSCtj3EF79R/WfjDXaPfmA8o1vt1uL20k+A4528rlfACOBd4HRogN3krWoZ/4nvTCWDVh36nGaMCATtcFTNBAFBAOnl8eNqPkIZcA+L/joUZb+dQtFh93P+zxdGXDr8xcSHG7V0DOJHiicqvlvg5YGG+///mtaG91fxefvKeer1/cx9ZZBbtvwF2QA4FuEombJC5Ewfp5b17kcrVRu+VB0ePh+6V9nKADOQz0S+C2C+Q/tUIlawvcC+h49NKJWR+zv6Im+zqYPDrJntXgnycqT9bz37CbmPz4Js0WoOEaiMw67A6WNRYbL6eLD576hulg8hWbrp0dJ6R1N/0lCTVR9HnkE4FtcjboidJuguHSi+o5369rqHctxNNaIDA/qyvUTN65zogYOOahSvNWijpxBA6oIUS9USWLZaswLFOwr5/OFuzWzd2xHiawM8HFUwZ+2v36fvbKbgr3CycffseIfOynLq9XMni8iAwDf4k5RA/FjrwaTe297+SZNkv/+hVh2fzXwEGqd/U3ABtybsF3A56i1+qnAI0D3vht4keZ6Gx88t7nDxi5dpb6iya2zYYn+55PyGQAAIABJREFUKCjnFPxxOV001WkrsmlvdbL0z1tx2LpvvC+PAHyHocAYEQMmSyDxY65069rmokM0HBdeXTlQAwAtaAZeP/WIBCagJkcOBFJQeyQkoq7u6049TgBbTz2+Rj1Dl+jA0he+oa5CW6320Zf2YfrtwzCZ5RGAL6Ju/bf9M7PFzOUPjeaL1/ay7dPOpg91TMXJela/sY8Lbx2smU1fQgYA2jMIuA1VpjcLNaHLEChOO7sedW/7XyMCUCfhrtCImhn/OWrwsLeN59QBy049JAZn52fHObi5K5pKHTPlhkFMvKa/pjYl3sPZgdY/gMlk4sJbBhEWFcTaRdqlx2xbfoxeI5LpOTRRM5u+gjwC0I4g4O/ATuAnwAAMNPn7MGGor+V9qK/ti4BM9fZRGqqaWfXvnZranHrTYDn5+zCKouA4R8lfW4y7MofJNwzQ0AFY/vcd2JqNoDvmXWQAoA1BqOp1dyFfU09iAe5Gfa1lEOCDLP/Hdk0b+Vxw4yDGX9VPM3sSL6OAvYM2v20x5vI+nH+9dkFAfWUz6942dNsOjyAnK234CzBFbye6ERcAf9TbCUnXOLS5kAMbtZNWGDM7hwlXy5W/L+NwOlA62Po/F2Pn9GHUpb0182XbsmOUHhOucvIpZAAgziDUznwS73IX6tGAxAdw2l2abv0PmNiDabcN1cyexPu0p/bXWS5YMJD+E9M18UdxKax8ede51If9EhkAiHMb8nXUAwtwq95OSDrH1x9/q4mAC0BydjSX/XQ0JpPM9vdZTm/9i2KCmXcPI6VPjLgtoPhwNfs3eEMA1BjIiUucC/V2oBtzkd4OSDqmsaaFde9ok7UdGhXENY9MJDDIvUZWEmPgcNi1kBQHICDQwpyHRhMWHayJvbVv7sfp6B69AmQAIE4PvR3oxmTq7YCkYzZ+cEibDmwmuOy+0UQlhIrbkuiG0+nE6ea5/7mIiAth9s9GaqIBUVvWxI4VxzXwyvjIAECccL0d6MZE6O2ApH0aa1rYuuyIJrbGXd6XnNGpmtiS6IOiKOds9CNKxoB4Rl+mTVLgpg++xd7q/wqBMgCQSCQeY+MHh7C3iN/wE7OiuGBB91Rr8xcUwG7XYCeoHSbN70dSzyhhO021rez+QrxJldGRAYBEIvEILQ02TVb/JrOJS38yGkuAvF35Mufq8qclZouZmT8epklHyG8+PoLL6d+5APIbJZFIPML2lcc0Wf2PuSyHtJxYDTyS6IXT6Thnlz+tScqOZtQl4kcBdeVN7F+nrWS10ZABgEQi0RzFpWiy+g+LDub8eVLuwZdxuRQcDu+ep0+4NpfI+BBhO9uXH9PAG+MiAwCJRKI5BzcVUlPaKGxnyg2DCAoL1MAjiR4oyqmSPy8TYLUw4RpxiejiI9V+rQ4oAwCJRKI5Oz4TXzkl9Ihi2EU9NfBGohcOh93j5/7nYuCUDBKzxBMCd67KE3fGoMgAQCKRaEpDVTPHdpQI25k0r78mdd0SfXA4HR22+PUkJpOJ8VfnCtvZv+6k35YEBujtQHfnpl15ervQLrZGbeRbz8Wi8wZ61L7E++xZnY/LKbbqS+gRSf8JGRp5JPE2LpcLp5fP/dsiZ3QKCZmRlOfXuW3D1uLgyJZi+k3QpueAkZA7ABKJRFP2rCkQtjHuilyp9e+jKC4Fuw7n/m1igrFX5AibObDBP6sBZAAgkUg0o7askZJj1UI2wqKDGThJKmz7Knan3VAd9XLHpRIRK9Yn4NiOUm3krA2GDAAkEolmHNpcKHzzHzGjFwFW2ezHF7E77CguA83+qOJAQ6ZlCdlw2l0c3VaqjUMGQgYAEolEMw5uFtwqNcFQmfnvkzgcTsMq5w2emiV8pHRshwwAJBKJpE3srU5O7K8QspE1MJHopDCNPJJ4C5fLhdPpmSY/WhARG0yPgfFCNvJ2lRvqaEMLZAAgkUg04cSBCuE+6oOmyA7Pvoahkv7aYcD5YlUljTUtlOXVauSNMZABgEQi0YT8PWVC15vMJvqOSdPIG4k3UDg1+fvAyrjPqBThJkH5e8s18sYYyABAIpFogmgAkNEvntCoII28kXgDh00/pb+uEhweSFpunJCNom/FKlyMhgwAJBKJMIpLofio2M2xz6gUjbyReAO7w4HLRyb/0/QekSx0fdG3VRp5YgxkACCRSISpOFknLJeaNShRI28knsbhdOJy6q/011UyB4klAtZVNFNf1aKRN/ojAwCJRCJMyVGxjmnW4ABSesVo5I3Ek7hcTpwO42b8t0diVhRBIWIK+P7UHVAGABKJRJiS42I3xbS+cZgD5O3I6LhcLuwG0Ph3F5PZJJwHUFlYr5E3+iO/cRKJRJiqIrGbYkpvufo3OoqiYLc7wMfO/X9IUna00PVVhZ5tkOZNZAAgkUiEqS4WuykmZ8sAwMgoCqdq/X178gdIyIwUul4GABKJRHIaBapLG4VMiN6UJZ7FYUCNf3dJFA0ABINdIyGWDSERZuGQLL1dkEiEaKprxd4ikBRmgpjkcO0ckmiKw27H5TKmxr87RCeFYTKZ3NYvaK6z4XK6MFt8f/3s+7+BvoTo7YBEvgd601jbKnR9eHQw1mC5FjEiDocTpx9N/gCWQDNhMe4LTimKQmON2GfeKMgAwD1CgJ8Dx/V2RMJx4CFArOG3xG2a6sRuhpHxoRp5ItESp9Np6AY/IkQliH3mGvxEC0AGAF1nJrAXeBZI0tkXifoe/AH1PZmusy/dksZasZuhlP81Hk6XC4eP1vp3BtHPnGjQaxRkANB5goC/Ap8C2Tr7IjmbXsBy4M+AVWdfuhWtDWKd4EIjZQBgJFwuFw678bv7iRAUGih0va3Fd7UQzkQGAJ0jBlgJ3AuItZOSeBIT8FNgBSBW7CvpNKItgEVvxhLtcCkKdj9e+Z8mOFzsM+cQlL02CjIA6Jg4YDVwvs5+SDrPFOArIFZvR7oDogGARSoAGgLFpeCw23xe6KczBARahK63t/pHkCS/ee0ThrryH6y3I5IuMxR1J0BmmHkYh11sNSQDAP1RFAW7w94d5n5AlQQWwWH3j8oIWXtzbkzAQmCEzn5I3GcU8CowD3+QMDMqgq+s3eak6HAVFSfqKD9RR0WB+md9ZRMAUYlh9BySxPAZ2SRlyZMdrfnf5O/7X5Hy/Dp2fpZH/p5yasvUz09EbDBx6RHEZ0QQlx5JfEYEDptY0GoWDCCMggwAzs1dwFV6OyER5hrU44B/6u2Iv2IJFFvBf/Pxt3zz8bfn/HnFiToqTtSx5ZPDZA9N4oIFg0ntI093tEBB1ff39cm/PL+Oje8d4uCmwrMC0uqSRqpLGjmytUSz8UR3EIyCDADaJgu1zE/iHzyHWiFQoLcj/og3t/CP7Szl2K7P6DsmjUnzBsgWwiIoCg6HA0Xx3e3s0mM1rF98UJ3cvRjDmC0yAPBnngakNqn/EAH8HrhOb0f8idZGO+Un6ig+Wu3dgRU4tLmQQ18XykBAALvD4bMSv3pN/KcpOVJDYVYV8RkRPl3F4h9hjLYMB7YiXxt/QwFGAtv1dkRjhG5/j35yTYfPsTU7KD9RR1leDRUn6ijLr6W8oI66iiaRobXDhFcDgdqyRvL2lFOwv5za0kbqKpqprWj6bifEZILoxDD13Dk9kvTcODIHJgoflWiJ3Uf1/fWe+NsiMj6EuPQIEnpEfu9Pa0jH6+tnr/xIdHiheUruAJzNY8jJ3x8xob63s/V2xKjYWhzfTfBnTvS1ZWKd/jyOF3YE6iub2fHZMXZ/kXfObnBnSuc019u+tzNiDQ4ge1gygyZnkjsuTdczZF+c/I048Z+mrqKZuopmju8s+97/RyaEEp8RQUKGGhDE94hQAwMD9b2QE933kat//8YfdwGEbofnXZlLeUEd5QW11JQ1Gu7m6hYa7ghUnKjjqzf2cHBzoWbtcGOSwxkzO4fh07MJsIrVo3cJBewO35r8jTzxu4VJ7UMQn6FWI3z90WENLOp0sR+yBLhMbyckHuVj/GsXwB9ui55BIBBoqmtl9Zt72b7iKC6nZ17i2JRwZv54BL2GJXvE/vdQwOGw+0xnP7+b+D2HDAA0QrPVf0BYNPFj5hLZ73yCYtNwOWw0Fx+iattSavZ+7lWlraFPbxO6fuevvSiDYDIRPegiYodfQkhKLuaAQFqrCqk7sIaKzYtxNNVqMYq/7QLI22NHdDEQyNtTxofPbaa+qtkLzsGgyZnMumek57aGfWjylxN/l5EBgEZosvoPzx5J1rW/JyC87TrlhqNbOL7o5zib60SH6hS+EgBYQiLped1zhGePbPPnjoYq8t76JQ3HxX6fU/jTLoC8TXaWjgIBBda+vY81b+3TbLu/syRmRnHNIxOISda++MgXzvzlxO82MgDQAE1W/yEpOfS58zXMge23pm8s2MWRl29HcXm+oYQvBAAmSwC97/gXYRmD2n2ey9bM4X/cTHOJ8LmZP+0CyNtlV2krEFBg2Uvb2LrsiG5uhURYmf/4JNL6xmljUAG7047LadzJX078wgjNWV7MQDE0/wByhSyYTGTf8GesMakdPtUalYyjsZqmk/uEhuwMyVN/JHR9yRcva+TJuUkYdw1xo+Z0+DyTJZDQtH5UbtWkdCYFeFvUkAF4XG8HfJHKk/VsX3mUkmM1xKVGsGbRXratOKqrTw6bk4ObTtJ7ZArh0e0vIjplz8AJf6XHalj5z518+fpeqgrbrqqQdIonRC42Tj2CfgwHLhU1EpU7idD0AZ1+fvzoK6nY9I7osH5B3OgrO/3c0PQBROVOovbAGtFhL0V97/1hF0DiDqfLBzcX6u3JdzTX23jzkTXc/IepxKS4fxxg1G1/ueI3FsZRptAP8bp/k4nkqXd06ZLgxGwsQWFCw/oDluAIghOyunRN8tQ7VLUVMU7rAkgkhqKhuoX3/7DJ7TbLRpz8S4/V8P4zm1n489Uc2SInf6PQ3QMAzVb/IaldPEEwmTDLAABLcFiXJ/OQ1FyicidpMfzpXQCJxFAUHa7iqzf2dPk6o03+cuI3Nt39CECX1T+A4nTgaKwSGtofsNdXoricmMxdS0dJnnoHtQfXipZUSnVAiWHZ9MEhcselk57bmaRABbvNjssgXf3kVr9v0J0DAE1W/9EDphDRq+3StfaoO7gexekQHb5DAkKM3dNIcdppPrmHyL4TunRdRK+RRA+YQs3eL0VdkLkABsBiNpOdlsjAXun0y0qlT49kPvxqK0vX7/D5VrXuoigKXyzcxYJnLujoidjsdn1eJwXqKpupLm6gqkh9lB2vpWB/he4Tv8lk4tIxfZkzfgCHCys4UFDO3vxSjhVX+4QmgjfozgGAJqv/1On3uHVp2fo3hYb2J8rWvdnlAAAgdfo91Oz7Su4C+BA/nOgHnPqzX1YaQdbv344WzJrI9kN5PPnKh902EMjfW87hLUX0GdV2dZGiKNi9MPm3NtrVCb64garChu/+Xl3UgL3V8+XMXeH0xP/odRcwvPfZr1ur3cGBE+UcKChnX35ptw4MumsAoNnqvyuZ/6dpOrGPmv1fiQ7vN9Ts/4qmE/sIzejaaxmaPkDuAhiUrkz07TG8bxYfPX9/tw4ENrx3sM0AQOvJ3+lwUVPS+N1K/sxHU22rJmN4ko4m/tMEBQYwNDuFodkp3/v/7hgYdNcAQJOOfykX/dit64pWvuhVOWDDoygUrXqR3re+1OVLU2fcq9UuwKPA5SJGuisp8dEMyE6jf880+men8//tnXlYVOfZ/z8zgyAgyI4yuICCCghBRNFs7tE2zf4mTZs23Wxrm7RvurfJ26T9NVf32KZ90yVJ27dpk2aPiWk0bqk2iQoIiqDs67Dvqywz8/vjgJWIysw5M2eZ53Nd55KL8Txzz+HMee77+9z3/aQkWFmxZCFBM/0Ve48JR6Cosp4fPf0aLx3M9RlHoK6kja6m/kllgQ6Hg9HRMdzR2c/1j9Je30t7Qx89LQN0twzSXtdLR2O/1zsgKsWmzEU8+qktZCdb3R7jUo7B6JidMlsHJXWtFNe2cmb839KGdt07Br7YCVCRrn9haRvcmrAG64sp2Xm71xyAlTtLZZ2f98AShSy5AiYTKQ+87LIKAFDx9A4lVAC9dgf0yo2kVESvFFpQBEwm+FDmDO69PoCcJD+sEWbOjTgpbrCz+8Qov983TGuPMhPEdR9NZd09aQA4HHZGx8Yu+5c/L9lfeGhUsneX6Ub8nkIjioFoBewi8nv+m0ykfO1lt+T/iqd20F0se7KaNrpxAJDhVDUUU/KYIk6VHvcIUHT209pEfyXUcgTmRZr52/2zuG7Zpa/JwLCTb/5tkN+9LV8+9/O3MCcxjEhrCGFzg4iYO4sIawiYoNPWPykJTy+SvbuoPfFfCS87BsIBcAGfiv5BXw6AUAHcQtbNdOu6lbqY6K+ENx2BxFgzhx8JxRoxvTYqP35tiO89552dBY2M1if+KzGVY/DqeyVyhxUOgAv4VPQPOnMAECqAG8j6wI5jzyhlhybwtCPg7wd5P57N8vmu9a2461f9vPD+iOL2+AJ6n/gvh3nbQ3KHkDWH+1InQJH5rwO6i6WKAFeZqAhQANEdUMdMJAvm/t8PuenaFZjkt4yexBc2zXR58gf45SeC0KGwoiomk4mbcpaS+/gOXnv4HsNN/lrAlxwAVev+Reb/NBmvCHCHuBvuE3sECADPOQI7tgS4dV58pJmPZClXFWFkxMTvPXzFARDRv44QKoBAKS50BOJjImSNNTfczDKr+zuob0ibIev9jY6Y+L2PrzgAIvrXE0IFEChMfEwErV29ssZYGC3vcSn3fKMiJn718IVVKRH965AJFUB0BxQowZ/fOMzIqLy9N+T68HZ994xRHCMn9+kFX3BJRfSvR4QKIFAIp9PJU7vkO+E1bfJm8Jo2YzTgUQo/i5mG9l5+/uIRHnnmAM8eOkleuY3eQeP2MNAaRlcAMlEk+t/gXvTfIKJ/OXSfPshAXRHB85e7dJ6CKsBNQDaQK3cggXrszy2msqFV9jjN3Q5O19tJm+deHsDbJ0dl22AkRsfsnKho5ERF40Wvhc8KJHFuOCnzY0hZEEPinAgS50SQsiCaQH+RS6EURncAHkGR6P/Lbp3auEdE/3Jp2veEe3sEKLNTIMBD6KsvgOADPPmqck747/cN89vPBLl8Xk2bg31FwgGYLl39Q+SXD5FfPtk58LOYSZgTTrI1iqXzolkcF0myNZIl8dHERYaoZK1+MbIDINb+DYDIBRDIobmjh12H8xUb76mD59i+MYCMBdNXAZxO+NpfBxkW879sxuwOym0dlNs6ePP45CZnIYEBJMdHkhQXRXJ8FEvio0i2RpEcH0lIoHvlm0bHyA6AEdb+nei/W6O8zyBnp0BlVICJXAChAuiQP+8+zOiYcmvvw6Nw2y/7XGoF/MOXh3j1uOgC6Gn6hobJL2+8SDUAmBsRct4hSBpXDJLjI0mIDWeGn/ulnXrHqA6AUaL/N5Dbulh9ZH8GoQII3MHhcPLUa8qrcFUtDnIe6uWZ+4JZl3Lp9ejuASdff2aQPx0SSW1q09TZR1NnH++cqp70+xl+FhJiw1kyrhgstkaSbJV+nhth/CUFozoARon+f4D+HYAfIE2gQgUQeJV9x09T3djmkbEbOhys/0EfW6+StgNem+zHnDAzPYNOypvtvJE/wpMHhunoEzlAWmZ0zE6ZrZ0yWztvHJv8WmhQwPgSwvgx7hwkW6OYFWiMro5GdACMFP0bIeI8gVABBCrwx1c9v/HWnsJR9hSKxX0j0js4TF65jbxy20WvWSNDzzsFSeOKQcr8GBLmhKtgqfsY0QEwUvRvFIQKIPAqje1dvHGkQG0zFGH+nEiefmg7ZXXNlNc1U1rXRFldEzWN7Z7YX14wDWwdvdg6ejl0smrS7yNCAslKsrIqOZ5t2cnkLJuHWeENqZTEaA6AiP61iVABBF7lT68fZsxujMY79374WjZmp7Ixe/J9PzI6RqWtldLapnHnoInS2iZK65po6+pTyVrfprNviH0nKth3ooJH//EOMWHBfGT1Uj69JYu1KfPVNu8ijOYAiOhfuwgVQOAVHA4nT+96R20zFMFkMvHJD1075Wv+M/xYtjCOZQsvbqPb3TdIWV0TpXXNlNVKikFZXTPl9c0MnhMVCd6itXuAp/fm8/TefFYsjuPLH8nh4xsy8NdI5YGRHAAR/WsboQLoHLvDwaG8M7xy6DiH8s9Q09SGCROJ1hhy0hazITuFDStTmRM5W1U79xw9RW1zu6o2KMV1mUtYFB/j8nlhIUGsSl3EqtRFk37vdDqpb+mkrK553CloGv+5mdomsaTgSU5UNPLZna/w6HPv8OinN3PntWlqm2QoB0BE/9pHqAA6Y8xu5538s7x04BivvJNHe/fF0nJJtY2Saht/euNfAKQmWtmYncqG7FSuz1zK7Fmud86Tw5NeSP7zFp+68TpFxzOZTMyfE8n8OZFsWjXZiR4eGaOioYXS2ibK6/+Tb1Ba2zTl313gHlXNndz94+fZ+cq7aptiGAfAKD3/X8fYkaUyKoDYI8Cj2B0O3i+q4KUDx3hh/zGaO3pcOr+4ykZxlY3Hn38bi9nMVckL2LQqlY3ZaVydkURggOdKqJrau3nz3ZMeG9+bzAqcye0bsr32fgH+fqQmWklNtF70WnffIJW2FqpsbVTZWimpaqCkupHS2ib6h855zUYjcby0QW0TDOMAPIICHfPmbt7h1nkK9vx/VIlBNM4jyFUBkLFHwNb7ldoj4EHgFrmDaAW5k/7lxs0/W03+2Wp++tfd+FksZCTNP+8QXJe5BP8Zyj2G/vjaIcMk/925aTWzAmeqbQYgLSlkLU0ga2nCRa919Q1QXCWpQNW2VqpsrRRX2SitbRJLChrHCA6AMmv/aRtcjihB0bX/1zFoRPkBClAzF8CaoqQKoPtcgP3Hiy8r7yvNmN0+ySEIDQ7k+hVL2ZCdysaVqaQmWjG5WTZldzj40+v/Uthi9fjUR5SV/z1FeEgw12Qkc01G8qTfD4+MUV4vLSOUj5cwnq1tpKyumY6efpWsFVyIdgsUp88uFOiWt+yBl9xyACqe2kF3sSJrjquY2gGQFaqu3Fl65f90GfIeWCLrfKa+xzKB/Eu8Nm3C0ja4pQIM2koo+eVtSqgAu1BfBTBUq7no8BDWrVjGxlVpbMpOJdE6/QS4N44UcPM3HvOgdd4jad4czr74M7edIa3T1TdAla31oiWFs7WNDAyJ1skuIOsG0bsCIKJ/fSJUAMGUtHX18eKB47x44DgAidYYNqxMYUN2KuuzlhEbcekKgycV6PsfM2smbQPnVN/F+94brzXs5A+SajDVkoLD4aSupeN8dUJpTSPl9S2U1TVR19KBw2Eof1d19H6HyY/+TSZSvvayW8l/CkX/TmAll55EjKgAgDRx5l3m9WnhtgrQUEzJY7croQK8jroVAT7zRDSZTKQlxp93CK5fsZTQ4EAA6ls6SLzla7LXnHesXUzX4AhvlDQyMDKmhNkuYzGbqd61k/iYCFXeX6ucGxm9oHxxvEphvAlSZ6/PLin4rAIg6v71jegLIHAJp9NJUWU9RZX1/Pr5vfhZLKxclsDG7FQaWjtlT/4JEcGEB/oTHujP53MWcbCihVNN3V5XAzatShWT/xTM9J9B+uJ5pC+ed9Fr7d19kmIwnm9wYeOjYZUcOT2gZwdA1P3rH9EXQOA2Y3Y7R09XcPR0hSLjZVr/s5FL4AwLH14WR/a8SI5UtVLW3uc1R0Dp2n9fICoshKiwENamJ036vcPhpLa5XXIOzndEbKK8roW6lg6caq/1qIxeHQAR/RsDoQIINEGwvx/J0Rfv/x4zK4Db0+fRPTRKYWMXZ1t76Rz0XCvd8JBgbr4+y2Pj+xpms4mEuGgS4qK5IWdyntfQ8Mj5Lohl48rBxJJCV9+AShZ7F706ACL6Nw5CBRCoTkZc2GV3bQsLnMG6RTGsWxRDx+AIDd2D2HqH6BocoefcKOdG7Zwbk99/4O4b1jDTf4bscQRXJjDAn4yk+WQkXbxJT1tX3/ldF8vHnYTS2iYqGloYGTXOkoIeHQAR/RsLoQIIVMVkgqvipr+Pe2SQP5FB/mTEhZ3/ndMJv323nL7hUVm2CPlfG0SHhxAdHnJRbwO7w0FtU/v5fIOy2iaKKuo5WV5H36D+OiLq0QEQ0b/xECqAQDXMJhPv1bazJDqEheHBWMyu34bVnf2yJ/+0RfGsXHZxpz2BdrCYzSRaY0i0xrB1Tfr534/Z7RwpLOXF/cf4+573dOMMmNU2wEVE9G9MJlQAWUyoAK4yoQIowIQKINARdoeTQlsXzxfWsfNwKa+ebqC4pYfhselXFZxq6pZth4j+9YufxcL6rBSe+Panqd/9ON//3K2EBGmjjfPl0JsDIKJ/4/ID5Na0j6sA7hB3w32SFiyPCRVAoFNG7A7OtPSy67SNXx0p5bmCOk7YuugfvvS679ConbI2eW2UZ/hZuGfb1bLGEGiD0OBAHtl+G6f/8ZNJKoEW0ZMDIKJ/YyNUAB0RPTuYz2/L5vEdN3LLmmXMCvTcDn9qYXc4qe7sZ8/ZJh7/dxl/ya3m/Zp2OgYmt6otaelhTGaHug+tzSAmPFTWGAJtMS82kjd3foOHt9+m2a6OesoBENG/8RG5ABomKjSI265O5Y5r01ifkYDFLMUP992Uw8iYnX8X17I3r5y38so4XdOisrXK09g7RGPvEIcqW4kMDiA5OoQl0SGcbFRA/tfJxj8C1zCZTDz8uVuJiwpjx0//rLlWxtp0Sy5G3bax9cWU7FStbaxRWwFfCmXaOz/wsssVAQAVT+9QoiLgSu2dlcSjT5RLTfpXor6thz355ezJLeNAYSW9g2KDl0sREx5K/e7HmeFnUdsUgQfZ+dwevv6rvys9rE+0AhbRv+8gVACVcXfSv5B50bPZvnUl27euZHTMzrsldezJK2NPXjkI1s7wAAARd0lEQVSnqps9YLV+uWfb1WLy9wEeuHsrhaU1PPPWu2qbch49OABi7d+3EH0BVCAseCZ3XrecO65NY116An4W5dKDZvhZWJeewLr0BH7ymRuwdfTyVm4Ze/PL2V9QSc+APkqmPIXI/vcdfvPNezlcUEptc7vapgD6SAKUH/0Dczd/ya3zFIr+AX6kxCA+wiOoWRGw9X6lKgK+L3cQb/GHr97C779yM5syFyk6+U+FNTKUz21dyYsP3k37C98j9/Ev8f2PbyArKU6zyVKeIjslkbRF8WqbIfASocGB/OK/P6a2GefRugOgTPSftoHg+cuv/B8/gILR/+tArhID+QgFqFkRYE1RqiLgJnRQEZCVFMcd17iujimBxWwmKymOR+7ZQO7jX6L+mW/x1AO3csc1qYQFa7+OWi7XZy6VvYuhQF/cvj6bFUsWqm0GoH0HQET/vssjCBXAKzxw69WaibzjIkP4zJYsXnjwbtrG1YEff2YLV6cs0IyNSvKLv/+TOVu/zF3f+w1/fO0QtrYutU0SeIHP3rxObRMAbVcBZAL5yM7838jizz7h8nmDDcWUPKZI5v8u4BYZ5/taFcCFyK8IAJY98JJbCpBCFQEAq/CcAiTr/ggNCqDx2e8QFKD9DWjaegZ451Q1u4+dZfexUrr6h9Q2ySOkJFj5yLWZbMxO4/oVS0WCoAHp6R/E+uH7GTwne2dJWfOjlh0AZcrBvvayW8l/GioH82UHQN3yT+WcQHfKP6eLLOPuum45z333LqVs8Rp2h4P3z9Sf7ztQUNlkyL3dI0JnsXl1GlvXpLN1TTqxEbPVNkmgEHd859e8cihP7jCGLAPMRJHM/w3uZf43FEulYPJ5HZ1kgWsUZSoCTh9koK7IZRVAwYqAm4BsNJgHsjZ1gdomuIXFbOaa1AVck7qA/3fvpvPqwIGCSl4/eobmrn61TVSEzt5+nt93lOf3HQWEOmAkspYlKuEAyEKrCoCI/ieP4zY6VwBAqABXQpZh7z72edYsu3g/dD1jdzg4drbhfN+BExWNOAyoDoSHBLN5dRo3rElna046c6PCrnySQDPsPVrEtq/+TO4whlMA1K/7Vyb6F3X/yiD6AngQa6Tx+s9bzGbWpsxnbcp8fvjJTbR2D7A3v5w9eWW8faKCjt5BtU1UhK6+AV7Yf4wX9h/DZDJxVfJ8tuakc8OadNamJ+FnEeqAllm2ME5tEzSpAIjo/+Kx3MYACgAIFeByyDJqYNfDBPprPwFQKewOB7llNvbklvFWXhn55cZUB8JCgtiULakD29amExcVrrZJgg/Q2tXLnK1fljOEE5mVfFpTAET0L5gKoQJ4CJMmYwDPYTGbyVk6j5yl83jkExtp65lQB8p5O7+cdoOoA919g7x08DgvHTwOQEbS/PFEwgzWpieJ3AENoMDfwC53AK19+0X0P/V4bmMQBQCECnApZBnU/sKDRIQEKmWLrnE4neSV2Xgrr4w9uWXkltkMqQ6EBgeyaVUqW9dksHVNOvExEWqb5JN09vYTtXmHnCG6AVnSjpYUABH9Cy6HUAGmpgmY6+7JLd39wgEYx2wysWpJPKuWxPPwxzfQ3jvI2+PqwN78ctp6BtQ2URF6B4Z45VDe+Qz05YvmsW2tlDtwTcYSoQ54icqGVrlDyC510ZIDoO6Of2+LHf90gNgp8GKakeEAFFU3s2xetEKmGIuo0CA+tj6Dj63PwOF0kl/eOEkdMEoL36LKeooq6/nZM28SEjSTTavGcwfWpDMvNlJt8wzLmZpGuUP0yB1AKw6AiP4F00GoABfThNQ3wy0KKpq48zrXuyT6GmaTiexkK9nJVr7/sfV09A6yr6CCPbnl7Mkvo7XbGOpA3+A5Xn0nj1ffkdSB1EQr29ZksDlnOddetYSZPpQw6mmKKxvkDlEtdwCt7AUgon/BdPkBau4RcMN9Su0R8LDcQcaplXPyG8fOKmSGbxEZGsRHr0/nL9+4ncZnv8PRX32RG1fLzpfRHMVVNn7x939yw/0/JXLTF9n21Z/x2LNvcVr+5OXzvPavfLlDlMkdQAsKgIj+Ba4gVIDJyDq/pK6VM/VtYhnADWpbu9l3ooJ9Jyo4UFhJZ58x9yaYYGh4hL1Hi9h7tAiAuKhwtuSksXn1cjZlpxEdHqKyhfoh/2w15fXNcocplzuAFhwAEf0LXEXkAvwH2WHEb3a9zxP3yd5zyfD0D41w6FQV+09U8PaJCkob2tU2SVUa27v4y+4j/GX3EcxmE5nJC9myOo3NOctZuzwJ/xlamF60yd/++a4SwxyXO4DaZYDqlnbVF1OyU5OlXRciygCnRpmS0QdedlkFAE2VjPoDXUCQuwPM9Pej8s9fZ26EiOAuZCLx7+0T5ew/Ucl7Z+oYHZNdeu0TBAcGsD4rhc2r09iyejlLFridp2o4apraSbnzW5wbGZUzTDcQhcxeAGq7aCL6F7iLUAEkRoD9yHCGzo2M8c2n9vC3b/2XDDOMQXVzFwcKK9lfUMmBwkrDtA32NgNDw+z+dwG7/10AwII5UWzJWc7m1WlszE4lPCRYZQvV48EnXpA7+QMcRoFGQGo6AGLtXyAHkQvwH2Rfh2cPneTudel8eJXxEtkuR2v3AIdOVXGwoJIDhVVUNXeqbZIhqW1u58nXDvHka4ewmM2sXJbAlpzlbFm9nNVpi3xm34K9R4v4x/jOjjJ5U4lB1FwCEF3/pv8ebmPgJQBQewlJO90B5wANgKynaGRoEO899gWSrMat/e4bGuZwUQ0HC6UJv6imBacBu/3pidmzgtiwMoXNq5ezZXUaidYYtU3yCGV1zeR85mG6+2SrSiNIvT9ke6tqKQAi+hcogVABJJqB3cjMQ+noHeTGh//K4Z9vJzZ8lpyhNMPImJ33z9RxsLCKg4VVHCutZ8xujAY+RqGnf3BS74FF8TFsWb2czauXc/2KpYZYLujqG+DmbzymxOQP8E8UmPxBPQVAJHC59j5uY3AFANRWAbSTSLoVeEuuEQCL5kbw1o/uZXGc/pSAgXMjHD1bz5HTtRw5XcOxs/UMDstebxWohMVs5qrkBazPWsa6lSlcl7mEWYEz1TbLJRrbu9j2lZ9TVFmv1JA3ouMlAPHAdg3hAFwZ4VBKTb3OAklyDQGInh3MH796CzevWabEcB6js2+Id0tqOVJUw7+La8mvaDR8pr7ZYiIuOYJFK2IBqDzRQmNZJw678Zcy/CwWslMSWJ+VwvqVKaxNTyIwwF9tsy7JofwS7vn+72hq71ZqyJNInT8V+WOr4QCIh7Xr7+U2PuIACKdS4uPA3+QacSGf3JjJjz61mfioUCWHdZtyWwe5ZQ28f6aOw0U1FNe2GnLHvg8yK3wmCZkxJGbGkpARQ0Dw5Ja8wwOjVJ9spaqghaoTrQx0n1PJUu8S4O9HTtpi1mWlcE1GMqvTFmlCIWjv7uN/fv8ST+46hMOh6P15N/APpQbztgOQBeTKfV8DPKhdQTgA08MojmU27jf3MQMFQLpcQy4kYIYf27etZPu2bJYvjFVy6CkZszto6xmgvq2HkrpWSuvbKahsJLfMRle/sbvtTTAR5SdmxpK4IpbYhbOn/01yQktND1UnWqgqaMFW2olT2UlIs1jMZtKT5rFmeRLpSfNJXzyPBXOiiAoL8couh5UNrfzhlQP84dWD9A0q7oSdRJpDFZO4vO0AGOUh7a3of+L93MaHHAChAkgolgswFakLYti2MpmsZCvpCXOIDAkifNZMZvhZcDid9AxID72+wWHGHA6GR+0MnhvFiZPufum1jr5B2roHaO8ZoL13kKbOPtp7B2nrGaCtZ8Bna++Dw2aSuEKK8hemxzBzljIb75zrH6XmVOu4Q+A76sAHiQidRUxEKNFhIUSFhTA3Koyo2SFEhYcQEx5KRKiU+BoWEoTJBEEzAwiY4YefxUJIsKQqzA4Owmw24XQ66e4fpKWjh7L6Zo4VVbA/t5jckipPme8ErgeOKDmoNx0ARaJ/DeDN6B8UWutREW/+veU7mOojVwUA+CvwCWXMEXgKs8WEdUkECVfFkpgZQ2xCmOe/LU5oqe6WlgoKWn0md8AA/B24R+lBxcPZdVYhOTLeQu/fTm/eY5lIE6fencxdwC0yzo8ASgDP6/UCl5gdE0RCRgwL0qOnXMv3NqPDdmylndSeaqU8t5mOhj5V7RFMiQ24ClB88wlvPSjFg9l9hAPgGsLRlNgI7EVmcyCBPGYEWLAuiWBBegwL06OZsyhMbZMuS3fLADWn2qg91UZ1YSvDg6KEUmUcwGZA9tr1VOgnQUt9vL32f+H76hlvOwCK5AJoACWWmr4N/EQBWwTTxQSxC2eTcFUsCVfFYF0agcXPrLZVbmEfc2A720l1YQvVha201PTo/2mkPx4CHvXU4N54SKYBp7z0Xp7E22v/E+j9K6fPUlP1cSJl85+WMYYJqSzwY4pYJJiS4LAAFqbHkJAZw8L0GILDAtQ2ySMMdA9Tc7KVqsJWak62MtgzrLZJRudpYDsenAO88XD+KfAtL7yPp/H22v8EwgFwHaMsOf0E+K7MMSzAc4DY6k8hzBYTMQtnsyhrDotXziE2cTYmk95vNdfpbhmgIq+Zyrxm6s90YB8VLZYVZDdwKzDmyTfxxl17GnC9Zk9bqBX9g3AA3MUIKsApIEOBcQKAV4FtCozlk0TFh7AgQ1rHn58Whf9MtXdS1xYj58aoO91OzclWak+10S6SCeXwBnAX4PGmF954OHcC4V54H0+iVvQPwgFwFyOoAO1AtEJj+QG/Ab6o0HiGJjgsgHkpUSxIjyYxM5bQqEC1TdIVA93D1Je0U3uqjaqCFnrbfaOBkwL8H5Lsb5jsy36kSUyvxy7lL4lL9KL+NXD36PXA9XCFXah/DbR2/R5E6iSm9mfT2tENvAbcB2h7AwR9kgLcj/Sd7EH9v7fWjjGk76aeA5YpyUX9i+vu4UBqYKQmxah/Hdw9ijxwPVwhC+lvqPZ1cPc4pvwlAWAD0KCBz6fm0Y9UJvldIAdRLulN/IA1wPeAt9F/kCj3aACuk3VFNcyvUP8Cu3uoHf2Dvq/fYx64Hq6iZxXAk9cvEik5UO3P6K1jAGmy+R6wFlC3A4/gQmYAVyOVvO1H+lupfb9443AgVelEyb+E2mURkryh9sV29bAjrSOrTRr6vH5jSLKf2qxAn5L3GJDogevxQdYhbTKi9udV+uhHmkweAq4BtLtnrOCD+APXAv8DHMCYCkHh+Gf0CXai/gV39fitR66Ee/wW9a+Hq8evPXIl3ON3qH89XD28qZ5YgE8iLdmo/bndPWqBZ5HWmbOQZGaBMfBDasL2FSTVqg717zd3j0Lgo/jYkpMf0nqb2hd/uscBpNIpreCPFM2ofV2me+xDWxLrTOAQ6l+X6R57UGcCMwEfRqpBHnHBXm8fPcC7SIHFfwFWT1wMgaaJB+5EWiJ9D20nFp5DSjD9EAZM8psuM4Cfoe2krDHgf5EmDK3hj1TGpeXlgDGkyF9Lk/8EgcATaPv6OZAaZ2nh+kUCX0ByBtR4uA4D9cBRpHXSbyM5Jws9+JkF+mYhcCPwHaTd844i3UNqOLNdSP1jtqPhMng1vJFk4PNImcgJgNq7YwwB1UhR12/Hf9YyqcBnkTaIWAjMUtUaaX2uBinB6mmkXei0TAKSTLwV6fqpXeDdjXTPHQCeBMrUNWdKLEi7ka0GkpC+w4lAMNL9F8bkZ0nXBT+PIt0j/UiRUC8wiORUdE5x2IAWoNVjn0bgi8QCMUhqUSTSjpnh4/9GIN3DgcBsJPV31vhxoTN+4UTuRPruTtzblUjf3XLgOFJejd1jn0YgEAgEAoFAIBAIBAKBQCAQCAQCgUAgEAgEAoFAIBAIBAKBQCAQCAQCgUAgEAgEAoFAIBAIBAKBQCAQCAQCgUAgEAgEAoFAIBAIBAKBQCAQCAQCgUAgEAgEAoFAIBAIBAKBQCAQCAQCgUAgEAgEAoHH+P+JkqZ2I9342AAAAABJRU5ErkJggg==;" parent="1" vertex="1">
          <mxGeometry x="586.25" y="351.24999999999994" width="50" height="50" as="geometry" />
        </mxCell>
        <mxCell id="inQNlQKym5KlZ0pr-Kys-84" value="" style="edgeStyle=orthogonalEdgeStyle;rounded=0;orthogonalLoop=1;jettySize=auto;html=1;strokeWidth=2;" parent="1" source="inQNlQKym5KlZ0pr-Kys-79" target="inQNlQKym5KlZ0pr-Kys-83" edge="1">
          <mxGeometry relative="1" as="geometry" />
        </mxCell>
        <mxCell id="inQNlQKym5KlZ0pr-Kys-79" value="&lt;font style=&quot;&quot; face=&quot;Comic Sans MS&quot;&gt;&lt;u style=&quot;font-size: 14px;&quot;&gt;Top k stars most similar &lt;/u&gt;&lt;br&gt;&lt;u style=&quot;font-size: 14px;&quot;&gt;to a star with &lt;/u&gt;&lt;br&gt;&lt;span style=&quot;font-size: 14px;&quot;&gt;T&lt;/span&gt;&lt;sub style=&quot;&quot;&gt;&lt;font style=&quot;font-size: 9px;&quot;&gt;eff&lt;/font&gt;&lt;/sub&gt;&lt;span style=&quot;font-size: 14px;&quot;&gt;=4700K, log(g)=2.5dex ....&lt;/span&gt;&lt;/font&gt;" style="shape=callout;whiteSpace=wrap;html=1;perimeter=calloutPerimeter;position2=0.15;rounded=1;base=40;size=20;position=0.2;strokeWidth=2;" parent="1" vertex="1">
          <mxGeometry x="610" y="271.25" width="200" height="90" as="geometry" />
        </mxCell>
        <mxCell id="inQNlQKym5KlZ0pr-Kys-91" style="edgeStyle=orthogonalEdgeStyle;rounded=0;orthogonalLoop=1;jettySize=auto;html=1;exitX=0.5;exitY=1;exitDx=0;exitDy=0;entryX=0.5;entryY=0;entryDx=0;entryDy=0;strokeWidth=2;" parent="1" edge="1">
          <mxGeometry relative="1" as="geometry">
            <mxPoint x="715.9999999999998" y="512.1299999999999" as="sourcePoint" />
            <mxPoint x="715.9999999999998" y="562.56" as="targetPoint" />
          </mxGeometry>
        </mxCell>
        <mxCell id="inQNlQKym5KlZ0pr-Kys-81" value="&lt;font color=&quot;#cc6600&quot; face=&quot;Comic Sans MS&quot; style=&quot;font-size: 14px;&quot;&gt;Stars Embedding&lt;br&gt;&lt;/font&gt;" style="rounded=1;whiteSpace=wrap;html=1;fillColor=#ffe6cc;strokeColor=#d79b00;strokeWidth=2;" parent="1" vertex="1">
          <mxGeometry x="650" y="483.56" width="120" height="28.57" as="geometry" />
        </mxCell>
        <mxCell id="inQNlQKym5KlZ0pr-Kys-85" value="" style="edgeStyle=orthogonalEdgeStyle;rounded=0;orthogonalLoop=1;jettySize=auto;html=1;strokeWidth=2;" parent="1" source="inQNlQKym5KlZ0pr-Kys-83" target="inQNlQKym5KlZ0pr-Kys-81" edge="1">
          <mxGeometry relative="1" as="geometry" />
        </mxCell>
        <mxCell id="inQNlQKym5KlZ0pr-Kys-83" value="&lt;span style=&quot;border-color: var(--border-color); color: rgb(255, 0, 0); font-family: &amp;quot;Comic Sans MS&amp;quot;; font-size: 14px;&quot;&gt;Expert&lt;br style=&quot;border-color: var(--border-color);&quot;&gt;Stars&lt;br style=&quot;border-color: var(--border-color);&quot;&gt;Encoder&lt;/span&gt;&lt;font style=&quot;font-size: 14px;&quot; face=&quot;Comic Sans MS&quot;&gt;&lt;br&gt;&lt;/font&gt;" style="shape=trapezoid;perimeter=trapezoidPerimeter;whiteSpace=wrap;html=1;fixedSize=1;fillColor=#f8cecc;strokeColor=#b85450;strokeWidth=2;flipV=1;" parent="1" vertex="1">
          <mxGeometry x="650" y="384.1" width="120" height="60" as="geometry" />
        </mxCell>
        <mxCell id="inQNlQKym5KlZ0pr-Kys-90" style="rounded=0;orthogonalLoop=1;jettySize=auto;html=1;exitX=0.25;exitY=0;exitDx=0;exitDy=0;entryX=0.25;entryY=1;entryDx=0;entryDy=0;strokeWidth=2;" parent="1" edge="1">
          <mxGeometry relative="1" as="geometry">
            <mxPoint x="703.9999999999998" y="562.56" as="sourcePoint" />
            <mxPoint x="703.9999999999998" y="512.1299999999999" as="targetPoint" />
          </mxGeometry>
        </mxCell>
        <mxCell id="inQNlQKym5KlZ0pr-Kys-86" value="&lt;font color=&quot;#cc6600&quot; face=&quot;Comic Sans MS&quot; style=&quot;font-size: 14px;&quot;&gt;Stars Embedding&lt;br&gt;Database&lt;br&gt;&lt;/font&gt;" style="rounded=1;whiteSpace=wrap;html=1;fillColor=#ffe6cc;strokeColor=#d79b00;strokeWidth=2;" parent="1" vertex="1">
          <mxGeometry x="650" y="562.5600000000001" width="120" height="60" as="geometry" />
        </mxCell>
        <mxCell id="inQNlQKym5KlZ0pr-Kys-127" style="edgeStyle=orthogonalEdgeStyle;rounded=1;orthogonalLoop=1;jettySize=auto;html=1;exitX=1;exitY=0.5;exitDx=0;exitDy=0;entryX=0.5;entryY=0;entryDx=0;entryDy=0;entryPerimeter=0;strokeColor=#000000;fontColor=#46495D;fillColor=#B2C9AB;strokeWidth=2;" parent="1" source="inQNlQKym5KlZ0pr-Kys-92" target="inQNlQKym5KlZ0pr-Kys-95" edge="1">
          <mxGeometry relative="1" as="geometry">
            <Array as="points">
              <mxPoint x="820" y="538" />
              <mxPoint x="820" y="630" />
              <mxPoint x="686" y="630" />
            </Array>
          </mxGeometry>
        </mxCell>
        <mxCell id="inQNlQKym5KlZ0pr-Kys-92" value="&lt;font style=&quot;font-size: 14px;&quot; face=&quot;Comic Sans MS&quot;&gt;Select top k similar&lt;/font&gt;" style="text;html=1;strokeColor=none;fillColor=none;align=center;verticalAlign=middle;whiteSpace=wrap;rounded=0;" parent="1" vertex="1">
          <mxGeometry x="712.25" y="515.77" width="96.25" height="45" as="geometry" />
        </mxCell>
        <mxCell id="inQNlQKym5KlZ0pr-Kys-94" value="" style="shape=image;verticalLabelPosition=bottom;labelBackgroundColor=default;verticalAlign=top;aspect=fixed;imageAspect=0;image=data:image/png,iVBORw0KGgoAAAANSUhEUgAAAkoAAAHaCAYAAAD/rWZHAAAACXBIWXMAAC4jAAAuIwF4pT92AAC3VElEQVR4nOydd1gUydbGTw85CogiKCqIijlhFrOgglnMOa8551UMa845IOacc9Y1IZhWRFBARCWJSAaJM+f7w4ufgTDV0z01A/U+z++5e3eh6q3TNU1Nd9U5HCKCKovjOF0AqAoANQHADgDKA0BZACgOAOYAoAcARrT8MTExMTExMeWrZABIA4CvABALAJ8A4AMAvAOAVwAQgIjp1NwVIE7VFkocxxkCQBsAaAkAjgBQCwA0aXpiYmJiYmJiEk3ZAOALAA8A4F8AuI2IKVQd/SSVWChxHFcCAHoCQA/4vjjSpuuIiYmJiYmJiZIy4fui6TQAnELEGJpmqC2UOI7TAAAXABj+v//VoGKEiYmJiYmJSVUlBYArALAbAK4golTZBpS+UOI4zgi+L44mA0A5pXbOxMTExMTEpK76CAAbAGAPIiYrq1OlLZQ4jjMAgPEAMAO+b8RmYmJiYmJiYiJVLACsBoCtytjLJPpCieM4CQAMAYClAGApamdMTExMTExMRUVRADAfAPYhokysTkRdKHEcVxe+v1esK1onTExMTExMTEVZLwBgJCK+EKNxiRiNchynw3HcKgDwAbZIYmJiYmJiYhJPdQHAh+O4Vf/LvSioBH+ixHFcNQA4At8TRDIxMTExMTExKUuvAKAfIvoL1aCgT5Q4jhsEAE+BLZKYmJiYmJiYlK+aAPD0f+sRQSTIQonjOA2O47YAwH74XlKEiYmJiYmJiYmG9ABgP8dxW/6Xs1EhKfzq7X8lR04AQAdFzTAxMTExMTExCairANBbkbxLCi2UOI4rDgDXAMCBdyNMTExMTExMTOLpOQA4I2Isn1/mvVDiOK4UANwCgGq8GmBiYmJiYmJiUo78AaAdIkaR/iKvhdL/itjeBoAaxL/MxMTExMTExKR8+QFAG9Iiu8SbuTmOKwbf3/mxRRITExMTExOTuqgGAFz93zpGbhEtlP63e/wAANQj+T0mJiYmJiYmJhVQPQA4RHIajvSJ0noA6Ez4O0xMTExMTExMqiJXANgg7w/LvUeJ47ghALCXlyUmJiYmJiYmJtXSUETcV9APybVQ4jiuOnyv26avuC8mJiYmJiYmJur6BgANEfF1fj9U4Ku3/xWYOwxskcTExMTExMRUeKQPAIc5jtPJ74fk2aO0BFjtNiYmJiYmJqbCp5rwfZ2Tp/J99cZxXD34/spN4VopTExMqi0TExPQ19eH7Oxs+PLlC207TExMTMqSFL6/gnue23/Mc6HEcZwEvi+SWHkSJqZCJjs7O+jQoQM0btwYmjZtCmXLlv3lv6empkJoaCi8fPkSLly4ANeuXYPkZN6lkpiYmJhUXc8BoAEiyn7/D/ktlEYAwG6RjTExMSlJEokEnJ2dYeLEieDk5AQSifzZQTIyMuDkyZOwePFiCA4OFtGl6qtSpUrQrl07cHBwgJIlS4KlpSUUK1YMYmJi4MuXL/D582d4/Pgx3Lx5E8LDw2nbZWJikl8jEHHPH/8WEf8AAAwAIAoAkMFgqD/29vb44MEDVFRZWVno4eGBxYsXpz4mZWJubo6LFi3CDx8+EMUrICAAZ8yYgUZGRtTHwGAwCiQKAAz+WBPlsVCapQKGGQyGgnAchzNnzsS0tDSFF0k/69OnT9ikSRPq4xMbU1NT3LhxI6akpCgUr7i4OFy8eDEaGhpSHxODwciXWVjQQgkADAEgVgXMMhgMBdDQ0MCdO3cquCTKW5mZmThy5Ejq4xSLdu3aYXh4uKAxCwoKwgYNGlAfG4PByJNYADDEAhZKk1TAKIPBUAANDQ08fvy4oH/kc5NUKsWBAwdSH6+QcByHq1atQplMJkrMMjMzcfr06dTHyWAw8mQK5rVQAgBNAPioAiYZDIYCLFu2TJQ/8rkpKysLO3XqRH3MQsBxHG7fvl0pcVu4cCH18TIYjFz5CACamMdCqZMKGGQwGArg6uoq2tOQvBQTE4MlS5akPnZFUdYiKUfz58+nPmYGg5ErnTGPhdJFFTDHYDB4YmxsjDExMUr9Y5+j48ePUx+/IgwdOlTpMZPJZNixY0fqY2cwGH9wEX9fKAFASQDIUgFzDAaDJ+7u7kr/Y/+z2rZtSz0GfLCzs8Pk5GQqMYuKisISJUpQjwGDwfiFLAAoiYi/1HrrAd/3KDExMamhihcvDlOmTKHqYfLkyVT75ysPDw8wNDSk0nepUqVg06ZNVPpmYmLKU5rwfV30y0KpJx0vTExMQqhv375gbGzM+/cTExMhPDwcZLI/MvjLrQ4dOkCFChV4/z4NOTo6QosWLah66NWrF9jb21P1wMTE9Id6AvyvhAnHccYA8BUAtOh6YmJi4qvbt29D69atiX5HJpOBp6cnbNq0Cfz8/AAAQEdHB5ycnGDevHnQsGFDYh9+fn7w9u1bAABISUmBrKwskMlkkJiYCAAAaWlpkJ6eDgAACQkJgIiQmZkJqampAACQnJwM2dnZIJVKISkpCQAAvn37BhkZGYCIkJCQAAAA6enpkJaWRuzvd126dAlcXFwUbkdR7d27F4YNG0bbBhMT0/8rCwBK5CyUugLAWcqGmJiYeKp48eLw+fNn0NSU/+15RkYGuLm5wcWLF3P97xoaGrB161YYPXq0UDZFU2JiIshkMsjKyoKUlBQAKHiRFh8fD1paWjBkyBDgOI64T19fX9i7dy94e3tDfHw82NjYgIODA4wbNw4sLS2J28vMzAQrKyuIjY0l/l0mJibR1C1nI/cGoL9xisFg8KRt27bEm4jHjh0rV9u3bt0SdPOyuiszMxPHjx+PEokk13jp6OjgmjVreLXdq1cv6nOJwWD8woachdIzFTDDYDB4MmLECKI/yEFBQaihoSFX29WqVeP1R78wSiaTyb2YmTNnDnH7Hh4e1OcSg8H4hWcSjuN0AaAWMDExqa3Kly9P9PNnz54FqVQq18/6+/vD+/fvebgqfNq3bx+cOHFCrp9dsWIF3L59m6j9Vq1a8bHFxMQknmpJAKAasLQATExqJz09PXB1dYXdu3fDX3/9RfS7ISEhRD/v7+9P9POFVcuXL5f7ZxER1qxZQ9R++fLlQUdHh9QWExOTeNLUBIDqtF0wMTHJJ3Nzc3BxcYEuXbqAk5MTGBgY8GqnWLFiRD+vr6/Pq5/CpKCgIAgODib6nQcPHkBWVhZoacl3oFgikUCpUqXg48ePfCwyMTGJIE0AqEjbBBMTqaytraFGjRpgb28PpUqVAjMzsx+vkmJjY+HTp08QFBQEz549+3HEXF1VoUIF6Nq1K3Tu3BmaNm0KGhoaCrdZvbr834+0tLSgZs2aCvep7uKzeElNTYWwsDCwtbWV+3doJb5kYmLKXZoAYEPbBBNTQeI4Dpo1awZ9+/YFJycnuZMaymQyePXqFVy4cAFOnjwJr1+/Ftmp4uI4DurXr/9jcVStWjXB++jZsyfMmDEDvnz5UuDPuri4QIkSJQT3oG7im8yT9KmfiYkJr36YmJjE0z2gv6ucwcgVHR0d/Ouvv/Ddu3eCnFp68OAB9ujRAzmOoz6238fZoUMH3LFjB0ZGRgoy1oJ07NixPI+451C8eHEMCwtTih9VV1xcHPG8MTc3x6ysLKJ+srOz8dKlS9i1a1fU0tKiPjcZDAbAGxUwwWD8Qd++fUX7I/3s2TNs2bIl1fGZmZnhgAED8OTJk9QKsnp6eqKRkVGu/ipVqoT//fcfFV+qKldXV6JrPHbsWIX6i4qKwuXLl6OdnR31zyODUYSBaBUwwWD8oEyZMnjz5k2B/rTlLZlMhtu3b89zoSAGNjY2OGnSJLxz5w7xkwaxFBERge7u7timTRts0KABdu7cGT09PTElJYW2NZWTj48PampqynWtTU1N8ePHj4L0K5PJ8M6dO9ivXz/U1dWl/hllMIoSHAAkAYARMDGpgJycnODQoUNK3RMTEBAAXbt2JT7RJI84joN69epB586doUuXLkVqU/SJEyfg+vXroKmpCRoaGj/2+Ojr64OOjg5wHPdjP46uri7o6ekBwPcTeRKJBLS0tH5sbDYyMsqzHWVr3759MGzYsJxkvblKR0cHTp48CZ06dRK8/7i4ODh06BB4eHj8qM/HxMQknjj4vmJiYqKuwYMHg4eHB1G9MqEUHx8PLi4u8PjxY4Xb0tbWhpYtW0LXrl2hU6dOUKZMGQEcqqe2bdsG06ZN+1FfTSyZmpoCQMELLkNDQ9DS0vqx4GrUqBEMHTqUuL/Tp0/DpEmTICIi4o//Vq1aNTh48CDUqVNHgRHJJx8fH/Dw8IDjx49DcnKy6P0xMRVFsYUSk0pozJgxsG3bNl7FSYVScnIydOzYER4+fEj8uyYmJtChQwfo0qULdOjQgfcJqcKo//77D3r16gXv3r2jbeUPlSxZEsLDw+XOc/SzMjIy4OHDh3Dv3j1IS0sDY2NjaNeuHTRq1EgEp/krJSUFjh07Bh4eHuDj46P0/pmYCruov/9jFG26deuG2dnZguzlUFRxcXFYuXJluXyXLVsWx48fjzdv3sTMzEza1lVaiYmJ2Lt3b+pzLTdOnDhBOzyC6tWrVzhx4kQ0MzOjHlsGo5BA3QCjCFO1alWV2zQcFBSExsbGufqtU6cOLly4EF+8eEHbZq5KT0/Hq1evYlJSEm0ruWr79u0qtxm5evXqKJVKaYdGcKWlpeHhw4exVatWKpcOg8FQM6gbYBRRdHV10c/Pj/bfk1y1d+9eBADU0tLCtm3b4qZNm/DDhw+0beWquLg4PHToELq5uf04wTd+/HjatvLUf//9h5UqVaI+/35mz549tMMiqoKDg3H27NloaWlJPdYMhhpC3QCjiLJw4ULafz/y1eXLlzE+Pp62jVwVGhqKGzduxNatW+d6XF0Z6RUUUVJSEvbt25f6HMzBxMQEIyIiaIdFdGVlZeG5c+fQ1dUVNTQ0qMedwVAH2GZuJioqV64cvHnz5scJJb568+YNPHz4ECIjIyEuLg6KFSsGNjY20LRpU6hUqZJAbukLEeHFixdw/vx5uHDhAvj6+ub5s506dYILFy4o0R1/7d69GyZNmgRpaWm0rYCjoyPcunULtLW1ldanTCYDiUSitP5+Vnh4OOzduxc8PT3hw4cPVDwwMamLqK/WGEWPHTt28P5WnJmZiZs3by7w9U3t2rVxz549KrNRnFQZGRl448YNHDt2LFpbW8sVVy0tLQwMDBTdW2JiomBt+fr6yr2BXmwGDx6stP1Kqamp2LJlS2zUqBF6eHhQy84ulUrx+vXr6Obmhtra2tSvAYOhglA3wChiWFpaYnp6Oq+bure3N3E5hzp16uCbN28E/vMijhISEvDo0aPYu3dvLFasGHFsJ0+eLKq/d+/eYbdu3bBYsWJ48uRJwdpNTk7GAQMGUJ+bAIBDhw4VfXH97ds3bNu27S/9GhkZ4ciRI9HHx0fUvvPTly9fcO3atVilShVRY6ypqYmOjo44c+ZMPHbsGPr4+GB4eDgmJibit2/fMC4uDoODg/HOnTu4ZcsWHDJkCJYrV4763GAUWagbYBQxZsyYwesmfvToUd4npoyMjPD27dsC/1kRRh8/fsQtW7Zgu3btFCqCWrx4cYyLixPcn1Qq/VE+4/f9UOPGjeO96M1NHh4eqKenR32OdujQAb9+/SrYuH5WcHAw1qlTJ9/+a9asiZs2bRLlesqrBw8e4ODBg1FfX1+wuDZv3hwPHDjAe1x+fn5sUzqDBtQNMIoYvr6+xDfIW7duyV1jKy8MDAzw6dOnvG7QQuu///5Dd3d3rFu3rmBx3bx5M7EPmUyG+/btw2vXruGzZ8/Q19cXfXx88NKlS7h27Vrs168fWlhY5Ntv3bp1MTg4WLDY+Pn5if5EQx7KlSuHly9fFmxcMpkMDx48SPSkUFdXF/v37493795FmUwmmBcSJSQk4LZt23jPVY7jsFu3bvjy5UvBPGVkZODu3bvR1taW+jxhFAmoG2AUIcqUKUN8U4yMjBQseZ6dnR2VvSCZmZl469YtnDBhgiivEKpUqcKryO6xY8cE6d/Y2BiPHTsmWLxSUlJw0KBB1OcrAGDnzp3x2bNnCo3nzp076ODgoJCPihUr4ooVKzAqKkqgKJPrxYsXOHbsWLkXe9WrV8cHDx6I5ic9PR2XLFmiEk8hGYUa6gYYRYghQ4YQ3wxHjRolqAd3d3cRbtl/KjExEY8fP479+vVDU1NTUeN65coVYn9paWlYvnx5QX2MGTMG09LSBIuhp6enoK9+FGH9+vVE3j9//oyrVq3C6tWrC+pDS0sLu3XrhpcvX6Z2UCE1NRX379+PzZo1y9Ujx3E4depUzMjIUIoff39/rFWrFvU5wii0UDfAKEJs2rSJ6Ab46dMnhV+5/Y6JiQmmpqaKcsMODw/H7du3o7OzM+ro6Cglpu3bt+fl9Z9//hHFT+3atQU9eff69WusWrUq9bm7dOlSIt8LFy4U3ZO1tTUuWLCAajLUN2/e4LRp07BEiRIIAKinp4enT59Wuo+0tDTs1asX9XnCKJRQN8AoQty5c4fo5rdp0yZRfAh5I3/16hUuXboUHRwclF4qQlNTE/39/Yk9R0ZG/sjiLQZGRkZ45MgRwWKcmpqKQ4YMoTp3N27cSOR56tSpSvMmkUjQ2dkZT548qbSnOL8rIyMDT548iV5eXlT6R/y+D2zSpElU5wmjUELdAKMIQbrpt0OHDqL4GDt2LO+bcXZ2Nt69excnT55MfTPpuHHjeI1h2LBhSvE3atQo/PbtG+9Y/679+/ejgYEBlVh7enoSeR05ciQVnyVLlsTp06fj27dvBYu7Okkmk+HYsWOpfi4ZhQ7qBhhFCNKSIGKdfmrZsiWRj/T0dDx16hQOHDgQixcvTj2OAICmpqYYExNDNA7E7xtyJRKJ0nzWrFlT0D/aAQEBgu/7kYdTp04R+ezTpw/1OeLo6Ij79+8XdLGqDpJKpeji4kI9/oxCA3UDjCIE6UZfExMTUXzUqVOHyMfr16+px+531q1bRzSGHLVs2VLpXg0NDfHQoUO8/Oam1NRUHD58uFLHcP36dSKPqvSH2sTEBMeOHYsvXrwQ7BqouhITE6k/8WUUGqgbYBQhSI/mm5ubi+KjXr16RD5evHhBPXY/U6lSJV57UU6fPk3V9/DhwwV9unHw4EE0NDRUinfSvTfNmzenPk/ymvvbt28XtAyNqur+/ftKfXrKKLRQN8AoQpDmgKlWrZooPrp06ULk499//6Ueu585f/48kX/E768PK1SoQN17jRo1MCAggNh/Xnrz5g3WrFlTdN9+fn5EvgrKvk0bfX19HDJkCD58+FCwa6GKorVXjFF4oFO2mqnIKiIigujn69evL4qPOnXqEP38169fRfHBR23atIHOnTsT/96mTZsgJCREBEdk8vPzg/r168OBAwcEac/e3h68vb1h5MiRgrSXl4yMjIh+Pjk5WSQnwujbt2+wb98+aNasGVStWhXWrVun9HmemZkJ165dgzFjxkCDBg2gdOnSYGJiAuXKlQNnZ2dYunQpvH//XqE+li5dSnztmJh+F/XVGqPoQLoh9vjx46L4ePLkCZGPpUuXUo8dAKCGhgavEjDR0dG8iuyKzdChQwXNaXX48GHR0h7ExsYSeSmo9IsqoqOjg7169cIbN26gVCoV7Lr8LqlUiocOHUIbG5sCPXEch927d8d3797x7m/atGnUY8tQa6gbYBQhZs+eTXSDS09P/5HITihI9ychIvbt25d67AC+H7fno9GjR1P3nhfVqlXjlQsqLwUGBoqSpTkzM5PIh6pkFOeLjY0NLlmyBMPDwwW7NoiISUlJ2LlzZ2I/BgYGvA8EfPr0CTU0NKjHlKG2UDfAKEK0atWK+Ca3efNmQT1cvHiR2IO1tTX12BkbG2N0dDSx91evXqn8HwkDAwPcu3cv8djyUlpamqCLQ11dXaL+s7KyqMdUKDQ0NNDV1RXPnTvHq57gz4qPj1d4EUua3T9Hzs7O1GPJUFuoG2AUIbS1tTEhIYHoBpeVlYWOjo6C9N+nTx/iG6yqpAZYuXIlsXdExLZt21L3Li+DBw/GlJQUXuPMTceOHUNjY2OFfZUoUYKo3/j4eOqxFANLS0ucM2cOr9dg2dnZ2L59e4U9cByHFy5cIO7f09OTevwYagt1A4wixuHDh4lvcpGRkQrnRHFwcOC1H0asmmgk2NraYnp6OrH3CxcuUPdOSpUqVYhPmOWnoKAghU+g2draEvX56dMn6nEUEz5fODZu3ChY/yVKlCDeMxYeHk49bgy1hboBRhGDz+u3nBsd38f27dq1I36Shfi9HIIqHKkn3QSPiJiZmYmVK1em7p0P+vr6uGfPHuIx56W0tDSFylrUqlWLqD9/f3/qMRTjmjg7O+Pq1avx/fv3RPFITEwUfK/hnDlziDwgIktAyeALdQOMIsibN2+Ib3KI3zd3z5w5E3V1deXqx8jICNevX4/Z2dm8+rt+/Tr1WDVv3pyX9/Xr11P3rigDBgwgTlKan06cOMHrVVyzZs2I+vH29qYeO0XR0NDABg0a4Ny5c/HOnTu8nmjmaOfOnYL7MzU1JU662qNHD+pxZagl1A0wihjjx4/nvXDJUXh4OC5cuBBr1KjxR+ZdDQ0NbNKkCa5du5a4ttzPkslk2KhRI6qxkkgk+Pz5c2LvX79+RVNTU+rXWgjs7e3x1atXvK/j73r37h3Wq1ePyEOHDh2I+rh58yb1uPGhYsWK+Ndff+Hp06cxLi5OsJh37NhRFL/Xrl0j8jF79mzqMWaoJdQNMIoIGhoavE+s5KfU1FT09fXFZ8+eYWBgIHE9ubx05swZ6jEbOnQoL+/jx4+n7l1I9PT0cNeuXYJcV8TvTybljVGtWrXQ09OTqH1VmDvyUKJECezTpw96eHjghw8fBIvv7xJiQ31uLFmyhMiH0CdoGUUG6gYYRQAjIyO8fPmySLdh4ZWQkEA9JYChoSFGRkYSew8ICEBNTU3q11wM+vXrh0lJSYJd51OnTuWaiNPQ0BAnTpzI+xVxUlISrlixAi0tLanH7Gd+3mf033//oUwmEyyWeSklJUW08QwZMoTIy4EDB6hfA4ZaQt0Ao5BTtmxZQV+dKEPDhg2jHrelS5fy8i7Waw5VoVKlSvjy5UvBrnVISAg6ODggwPennuPGjcPPnz8L0nZ6ejpu376d2mtQIfcZ8ZWYJwD79u1L5OXYsWPU5y9DLaFugFGIadCgAXEhXNravXs39biVK1cOv337Ruz96tWr1L0rA11dXdyxY4dg1zwjIwP//vtv9PLyEqzNnxUeHi5IDiF5EGufEV8lJCSINlbSTPX79u2jPncZagl1A4xCipubG68/9jR169Yt1NLSoh67o0ePEnvPysrCqlWrUveuTPr06YOJiYkizAThJZPJcO3atchxnKAxUNY+I76SyWRYvHhxUa7/8uXLibwUhpOgDCpQN8AohMydO1cp+x+E1M2bN9HAwIB67Jo0acIrdlu3bqXunQYVK1bEFy9eiDAjxJGnp6dCJWVo7DNSVK6urqJc+0ePHhH5mDx5MvX5ylBLqBtgFCK0tbVx3759It1uxdOrV6/kzs0kJhzHobe3N7H/+Ph4NDc3p+6fFrq6urh161YRZoY4Onr06B9pLfJCFfYZKSoxNlGXKVOGOM2Ii4sL9bnKUEuoG2AUEooXL4737t0T6VYrrtLS0rBUqVLUYzhgwABe/qdOnUrduyrg5uamNq/i5s2bl+c4VG2fkaL69u0bWllZCXqtV6xYQeRBJpNhyZIlqc9RhlpC3QCjEFCpUiUMDg4W5Ka6fPlydHFxUfp+i1WrVlGNob6+PoaFhRH7DgoKQm1tbepzQFWoUKECPnv2TIQZIqyysrKwRYsWCKD6+4yEkJAbqStUqEC8//HNmzfU5yZDbaFugKHmtGrVirhAZW7KyMjAoUOH/mjX0NAQFyxYoFB2bRIlJSWhmZkZtTguXLiQl+8uXbpQnwOqho6ODm7evFnYCSKCPn/+rDb7jHL0/v173L17N69XgH369BHk2pLuTUKk/0WIodZQN8BQY4YNG0Zcbyk3xcbGYsuWLXPtw8TEBKdMmYKvX79WuJ+C5O7uTiWOpUuXxpSUFGK/t2/fpj4HVJkePXrwKobM9P+KjY3FkydP4ujRo38pEH3ixAnitlJTU7Fdu3a8r6e2tjavfhHZ/iSGQlA3wFBDJBIJ8R6BvBQUFIQVK1aUq9/q1avjtGnT8OLFixgaGppnmxkZGbzqycXGxqKRkZHS43ngwAFir9nZ2VizZk3qc0HVsbW1xadPnxLHNz9FR0ejr68vfvz4UeG6haqmtLQ0vHXrFs6ePRsdHBzy3HTesWNHXu2np6fjmDFjiNMkWFpa4t27d3mPKyIiAmvVqkV9PjLUEuoGGGqGvr4+nj59mvcN62fdvXtXoddd+vr6WK5cOaxbty7Wq1cP69ati1ZWVshxHO9TUDNnzlRqPOvXr8/r1cuuXbuozwV1QVtbGzdu3KjQK66IiAicPn06litX7pe2DQwMsGfPnrxeB6mCpFIpPn/+HFeuXInt2rVDPT09uWLKcRz6+vry7vfWrVvYuHHjAvsxMjLCqVOnCvJkMCEhAVu1akV9PjLUDuoGGGqElZWVYN/OPT09Rd2EXLFiRZRKpcS+Pn/+LPcfC0XhOA4fPnxI7DExMREtLCyozwd1Y/fu3cSxRkTcv3+/XIVdhw0bphZJVt+/f4+7du3CXr16KZRWonv37gp78fX1xcWLF2P37t2xXr16WK9ePWzRogUOHz4cjxw5IvgpxvT0dOzduzf1uchQK6gbYKgJtWvX5nUq63fJZDKcPXu2UjyfP3+el0d5K8srSu/evXn5mzVrFvX5oI74+PgQx3rjxo1EfbRu3VqQfXtCKq99RorCcRzeuXOH9vCIJZVKWfJJBgnUDTDUgE6dOmFycrLCN6jU1FTs0aOH0ny3aNGCl8+PHz+KXspEV1c3331WeSkkJAR1dHSozwl1w8zMjHg/0b179+RODPkzkydPJr6uQiotLQ1v376Nc+bMwfr16yuUCbwg7Ozs1OIpWm5avXq14CVlGIUS6gYYKs7kyZMF2bAaGRmJ9evXV7p/vjl1hg0bJqqvuXPn8vLVs2dP6nNCHenUqRNxrGvXrs2rL01NTXz79i2v68tHUqkUX7x4gatWrUInJyelvTrOYcSIEUobq9A6fPgwy0PGKAjqBhgqiqamJm7fvl2Qm5Gvry+WLVuWyjj69+/Py3NQUJBo38RLlSqFSUlJxJ7u3btHfV6oK+PGjSOKtZeXl0L9TZ06lfj6kig0NBR3796NvXv3VonyNULdK2jo5s2bVE67MtQG6gYYKkixYsXw+vXrgtyELl26RPUmpKWlxXtvlRAJ8nJjz549xF6kUinWq1eP+txQV0grzS9evFih/mrWrEl8jfNTbGwsnjp1CseMGYN2dnbU4/k7mpqaeOrUKUHHrEy9ePFCJcoYMVQS6gYYKoaNjQ36+/sLcvPZuHGjqPsj5GXWrFm8/Pv6+gq+h6FOnTq8TuPt3buXehzVEWNjY+zatSu+ePGCKN4DBw5UqF99fX3ia/yzlLnPSCi0tLTUerH0/v17rFSpEvU4MlQO6gYYKkSTJk0wOjpa4RtOVlYWjh07lvp4cjA1NeW9Gb1z586CeuGTNC85OVnwoqKFFU1NTWzSpAkuXLgQHz58iFlZWbyue9++fRXyoaOjQ9SfTCajus9IKCQSCS5btkzpZVnCwsIESV0SExODDRs2pB5HhkpB3QBDRejbty+mpaUpfKNJTExEZ2dn6uP5Hb61v7y9vQXz0K1bN14e5s+fTz1+qkyFChXwr7/+wjNnzghWsmTatGkKebK1tSXq7/Pnz9TjKCTdunXDz58/C3ItCtKJEyfQzMwM9fX18cKFCwq3l5qaiq6urtRjyFAZqBtgUIbjOFy4cKEg3wBDQ0OxevXq1MeUGxUqVOB9eq9t27YK96+jo4Pv3r0j7vvjx49q+3RBLExNTbFHjx64Y8cODAkJ4XVNC9Lp06cV8jh48GCi/p49e0Y9rkJjbm6Oe/fu5fWqWR6FhYX98YpUU1OTd2LRn5WVlYXDhw+nHkOGSkDdAIMiOjo6ePjwYQFuWYiPHz9W+WzRZ86c4TW2O3fuKNz39OnTefWt6CugwoCmpiY6Ojri4sWL8fHjx0qpr/bt2zcsUaIEb883btwg6u/cuXPU4ywW1apVE7TES1hYGI4bNy7ffGLu7u4K9yOTyfDvv/+mHj8GdagbYFCiRIkSvMpn5KZjx46hrq4u9TEVhKOjI+8xNmnSRKFY83kl5OXlVWQT4lWqVAnHjx+P58+f55VKQQht2rSJl/c2bdoQ9zVv3jzqMRcTRYtox8fH4/79+7Fz585yJ1wdNWqUIIvqHTt2qMVmeoZoUDfAoECVKlUEeWUhk8lw8eLFavXH/MmTJ7zGeunSJd598skxI5PJitSm0uLFi2OvXr1w9+7d+OHDB17XSGhJpVLivSqWlpYYHh5O3JciC3F1wNPTkygeL1++xPXr1+PIkSOxSZMmvJNCdu7cGVNTU4mvx+86d+4cewVedKFugKFk2rVrh/Hx8QrfONLT03HAgAHUx0NK3759eY1XJpPxytRco0YNXt9qDx06RD1WYqKtrY0tW7bEf/75B588eSLaPhZF9e3bN7mzoVeqVIlXRm6pVIqWlpbUr4mYXLx4kSgmQhaubdy4MX79+pX4uvyuR48eoZmZGfVYMpQOdQMMJTJ69Gjex6V/VkxMDDZr1oz6ePigqamJnz594jXuEydOEPdHulcF8fupG2tra+qxEpqqVavipEmT8NKlS5iSksLrGtCQTCbDw4cPY+XKlXMdl4mJCf79998KvSKMjIzEdu3aUb9GYuHt7U0Uj9atWwvav729Pa/air8rICAAy5UrRz2eDOXB/e8fmAq5NDQ0YNWqVTB16lSF23r79i24urpCSEiIAM7oaMaMGbBq1Sri35PJZFCtWjV4+/atXD/v6uoKFy9eJO5n8eLFsHDhQuLfUzWVKFEC2rZtC+3atYN27dpBmTJlaFtSWC9fvoRnz55BbGwsGBsbQ+XKlcHR0RG0tLQUblsmk8G6detg3rx5kJmZKYBb1VFISAjY2trK/fM1atSA169fC+rBysoKrly5ArVq1VKoncjISOjQoQO8evUq1/+uoaEBlSpVgurVq4OVlRUUL14cUlNTISMjA6KiosDf3x/evn0L2dnZCvlgUp6or9YY4mJoaIjnz59X+JsUIuKtW7fQ1NSU+pgUxcTEhPe3/3379snVh5aWFq/XMOHh4WhgYEA9RnzQ0dHBNm3a4IoVK/D58+cq+zpN1fXs2bM8n16pK6SfN7FO0BobG+Pt27cVvkYJCQnYqlWrXz7vXbt2xePHj2NcXFyBv5+UlIRnzpzBvn37qsVBmCIOdQMMESlTpgz+999/Ct8UEBF37dqFWlpa1MckFBs2bOAVh8zMTCxfvnyB7U+aNIlX+4MGDaIeGxJq1KiBU6dOxatXrwqyaZbpu1JSUgpNHh9dXV2isUulUtTU1BTNj7a2Nh49elTha5SzT3PChAkYERHBu52YmBicO3cuGhoaUr9WjFyhboAhEvXq1VPow5sjqVSK06dPpz4eobG1teV9dHjbtm1oYGCA5ubmaGxs/EfbxYsXl+tb5e968uQJSiQS6rHJDwsLCxwwYADu378fIyMjecWPhgIDA3HLli3YpUsXbNasmSBZ6JWhkydPqv1TXGtra6Ixf/36VXRPEokE161bJ9JV46ewsDDs0qUL9evF+APqBhgi0K1bN0E2y6akpGDXrl2pj0cshCrgmZ2djZ8/f8Zbt27hqlWr8PTp08RtyGQyldwgr6enh05OTrh69Wp8+fKl0mt48VVsbCyeOHECR44cmesTwDFjxtC2KLc+fvyIzZs3pz4X+FK3bl2i8b5580Zp3qZNm6Zyc3rLli280yEwRIG6AYbAzJgxQ5C9IeHh4Vi3bl3q4xGTpk2bCnBbE0bHjx+nHg+A7yVtateujTNmzMAbN26ozZOXjIwM/Pfff3HevHnYoEEDuRIEenh40LYtt7Kzs3HJkiWivpISC2dnZ6Kx3r9/X6n++vbtixkZGSJdOX66fv262u5VLIRQN8AQCC0tLcFu/C9evMDSpUtTH5MyID22LIbS0tLk2vckFlZWVjh48GA8dOiQ0gqZCqGAgADcuHEjuri48NrfIZFI8MCBA7SHQSQvLy+0sbGh/rkhYeDAgURjVLTOHh/atGmDiYmJIl01frpz547cWcgZokLdAEMATE1NBTnJgfg9A21R+ibTq1cvQeKmiJYtW6bUMevr62OHDh1w3bp16OfnR3v4cuvLly949OhRHDZsGJYpU0aQWGhoaOC2bdtoD41IiYmJ2L9/f+qfHXmZOnUq0fh27NhBxWft2rVVbt/dgQMHqF8/Bn0DDAWxs7PjdQw9N61Zs0blNxMLjaamJtWSGVFRUWhkZCTqGCUSCdarVw9nz56Nt2/fxvT0dGrjJVF6ejrevn0bZ8+ejXXr1hV1bvbv31/UJJgHDhzAe/fuCdrmwYMHcz1MoGosX76caFxLliyh5rV8+fKC3U+F0tChQ6lfwyIOdQMMBXB0dBQkNX9mZiaOGjWK+nho0LhxY4yNjRXgdsZPYh0Bt7a2xmHDhuHRo0cxJiaG2vhI5efnh+vWrcP27dujvr6+UueCnZ0dnj17VtDxfPjwAV1cXBDg+9Or+fPnC5IdP0chISEqXxOQdEvAhAkTqPo1NzfHx48fC3aNFFVCQoJoeaUYckHdAIMngwYNEuTJQHx8PLZt25b6eGjg7OxMNfdPfHy8YMnmDA0N0dXVFTdu3Ihv3ryhNiZSff78GQ8dOoSDBg1SmXpnLVu2VPhARGhoKI4ZMybX00uNGjUSpCh1jrKysnDevHkqW+GeNOFtnz59qHvW19fHCxcuCHaNFNWuXbuox6QIQ90AgxCO43Dp0qWCHGkNCQnBKlWqUB8TDRo3bqwS9cb27duHHMcR+9fQ0MAGDRrgvHnz8N9//8XMzEzaQ5FL3759wxs3buD06dOxVq1avMYuNqVKleI1tsDAQNy5cye2aNGiwNeExsbGeOjQIUFj+++//6pkjUAvLy+icbRp04a6Z4Dvr+U9PT0FvUZ8lZGRIdi+PAYx1A0wCNDT08Pjx48L8sF7+PAhmpubUx8TDaytrVXqddTChQvl8l2+fHkcOXIknjhxgurrQhLJZDJ8+fIlrlq1Ctu1a4d6enrUr39BkKaNiIiIwBIlSvDqa8CAAYKetoqNjcUePXpQj+HPBAcHE42hZs2a1D3nMH36dN7XIjk5GU+fPo2rVq3CdevW4eXLlzE5OZl3e4sWLaIejyIKdQMMObGwsBDsKPuhQ4eK7LFTTU1NfPjwoSBxFEpSqRSbNm36h1djY2Ps0qULbtmyBYOCgmjblFuRkZG4b98+7N+/v1rurRg8eDDReO/cuaNQf7a2toLvidm1a5fKnF5NSEgg8q4qr2ABAH19fYljn5WVhe7u7rmmrDAzM8NFixbx2qf27t076vEoolA3wJCDGjVqCHIySyaT4YIFC1TydYeyID2qrCwFBwejsbExNm7cGBcsWIAPHjwQdNOvmEpNTcWrV6/ilClTsHr16tSvsaIsWbKEaPy7d+9WuE9NTU1cunQp77I6uent27fUk8bq6OgQeZbJZCpTU9LKyoo45hkZGejs7Fxg266urrz2R1asWJF6XIog1A0wCqBDhw6CPJpPS0tTiU2SNLG0tCSuYp6X0tPTMS4uTrD2EFFt9hlJpVJ89uwZLl++HFu3bl3onk4eOXKEKB6zZs0SrO8WLVrgp0+fBLtWGRkZOG3aNGpfjsqUKUPkNy4ujvr1z6F3797E8SY5sTds2DDi9gtLoWQ1g7oBRj6MHz9ekG+Y0dHR2LhxY+rjoc3GjRsViuPTp09xwoQJWLly5V9OGBUrVgzbt2+P27dvV4kN4mLo06dPuGfPHuzTpw/v/TjqwpMnT4hiI/SeIFNTUzx58qSg1+/69etYqlQppceyTp06RD4DAwOpX/8cFi1aROQ9ODiYqMQMx3H4+vVroj7Wrl1LPS5FEOoGCiWGhoZYunRptLW1xdKlSxNvYNXQ0MBNmzYRfYDy0uvXr9Wu5IEYlCxZEr99+8Yrhh8+fMCOHTvK1Y+ZmRnu3LlT5Qptkio5ORkvXryIEydOLHInI0k3yteuXVsUHyNGjBB04f3lyxd0dXVVaiydnJyIPD58+JD69c/h4MGDRN7/+ecf4j5WrlxJ1MepU6eox6UIQt2A2iORSLBJkya4aNEivHPnTp61sqKiovDGjRu4cOFCdHBwyPNRuJGREV6+fJnow5OXrl27hsWKFaMeI1Vg2rRpSo1hjx49eC/MaCg7Oxt9fHxw6dKl2KJFiyJbvdzMzIw4dnzqzMlL5cqV8fnz54JdZ5lMhps3bxYsf1dB9O/fn8jfmTNnqM+BHM6dO0fknc/Whq5duxL1cevWLepxKYJQN6C2mJub4/z58zE0NJRooufo/fv3OHPmTDQzM/vRZtmyZfHVq1e82vtd27ZtU8tK42Lx8uVL4hjeuHFDof037du3V+kN2aGhobhr1y50c3P7ZR4WZRo0aEAUw6ioKNE9aWtr4+rVqwV9Svnq1SulbLyfPHkyka+dO3dSnwM5kH5h7datG3EfXbp0IepD0ROWDF5QN6B26Ovr44IFCwTLfRIfH48zZsxAR0dHjIqKUri97OxsnDRpEvU4qRLW1tbEcQwLC8PixYsr3PecOXMUvqZCKTExEc+dO4fjxo3DSpUqUb8uqkjfvn2JYqrMV0Xt2rUTtGjrt2/fcNy4caJu9P7nn3+IPC1dupT6HMjh6NGjRN5nzpxJ3MeIESOI+rh8+TL1uBRBqBtQKxo1aqRyBRN/VnJystL3IKgDQ4YMIY6lUCcEtbS00N/fX4SrXbCys7PRy8sLFy1ahM2aNWNPGOXg77//Jorxvn37lOqvRIkSePHiRUHnyYULF0TboL9r1y4iL6rwJU8ikWCPHj2Iy8xcuXKFuC/Sa8lKmVCBugG1YdSoUSr9GuXTp09Yq1Yt6nFSRTZv3kwUy+DgYEG/ZQ8dOlSkq/6n3r17h9u3b8fu3bujiYkJ9dirG/v27SOK999//610jxzH4fjx4zEtLU2weRMZGYnt2rUT3CtpkeF+/fpRu/Y6Ojo4atQo3sldZTIZUVZxGxsb4pQgfJ5aMRSGugG1gDQBnbL19OlTlcpmq2rcunWLKJ7ylhSRFwMDA0EKGOem+Ph4PH36NI4ZMwZtbW2px1rdIc3a3rdvX2peq1evjn5+foLNJalUiqtXrxZ0Iz9pPMVYrBWEiYkJzp49W5CtDy9fvpTr8Ie2tjbev3+fuP0WLVpQ/4wUQagbUHlUaY9Jbjp16hTq6+tTj5My0dbWRisrK6xZsya2bdsW+/XrhxMnTsTFixfjtm3b8PTp03j//n0MCAjAL1++EG+CbdmypeCe7927J8j1zsrKwgcPHuCCBQuwUaNGKlsxXl3J69RqXqpfvz5Vv7q6urh582ZBN3o/e/YMK1euLIg/0qczYqVayA0rKytcvXq1oLX2EBEfPHiQb84qa2trXouk5ORkpZ1WZPwCdQMqjZubm6AfIKG1YsWKAquUqwP6+vpYtmxZdHBwwA4dOuDAgQNx6tSpuHz5ctyzZw+eP38eHz16hIGBgcR1o/hIjKdzHh4evP0EBgbili1bsHPnzmhkZET9ehVWjIyMiK+NqpwWdHV1xS9fvvCeY78rJSVFoSzQxsbG6OLiQlwEtnTp0qLHyt7eHvfs2YMZGRmCxet3JSQk4KpVq7Bt27Zobm6OZcqUwcaNG+OGDRswLi6OV5vHjx+nPs+KKNQNqCw2NjZK+aPMRxkZGTh06FDqMcoLIyMjtLOzw8aNG2OnTp1w6NChOGvWLFy7di3u378fL1++jD4+Pvjhwwde9Y7ElhgV7tesWUPkwcfHB0eOHInlypWjfj2LCrVr1ya6RrGxsdQ9/4ylpSXeuHGDaAwF6eTJk2hqaipX/2ZmZjhx4kT08fHhXVGgWbNmosWncePGePbsWZRKpYLGSFlq06YN9TlWRKFuQGW5evUq7c9FroqNjRXl1VB+mJubo729PTo6OmK3bt1w9OjROH/+fNywYQMeOnQIr1+/ji9fvsTw8HDR9uIoU1ZWVoLHcMuWLUQeVOH0T1GjR48eRNfIx8eHuuff4TgOp0+fLujTko8fP2Lz5s3z7NPa2ho9PDwE21z+6NEj7N69uyAHKjiOQxcXF16vulRJL168KNLFzGmiCUy5ytXVFdq3b0/bxh8KDg4GV1dXCAoK4t2GpqYmmJub/8DCwgJKlCjx4/+XLFkSSpYs+cvPaGhoCDgK1Vfp0qUhMjJS0Dbt7OyIfj4lJUXQ/pkKFuk1CgkJEckJfyEirFmzBu7cuQNHjhyBypUrK9xm2bJl4c6dO7B8+XJYtGgRZGdnAwCAnp4euLu7w8SJE0FXV1fhfnLUpEkTaNKkCdy/fx/GjRsHr1+/Jm5DS0sL+vbtCzNmzIDq1asL5o2W5s6dC4hI20aRFfXVmiri4+Oj8DeAz58/Y0hICPHm0Lz077//5poAUVdXF8uUKYO1a9dGZ2dn7N+/P06ePBmXLl2Ku3btwrNnz+KDBw/wzZs3+PXrV0G8FHZNnz5d2G8kmprEsU9KSkIPDw9WzFiJkOb8Wbx4MXXP+WFgYIC7d+8mGlNB8vLyQhsbG6xVq5ZS8oNlZmbiggUL5H6aYmhoiJMnT8ZPnz6J7k1ZOnbsGPW5VMShbkDlaNKkCe8J/e7dOxw7duwfm4FLlSqF48ePx/fv3/Nue8+ePbh37168ePEiPn78GENCQog3SjLJJ6GzLbdt21YhP/7+/jht2jQsWbIk9c9HYebOnTtE12Xw4MHUPctDz549eW8gzk1JSUlKf8V+/vx5NDY2znOMJUuWxCVLlhAXNFZ1ffjwQZAKAQyFoG5A5dixYwevCb127doCj27q6Ojghg0bBP4oMYkhR0dHweaUUBtsMzIy8NSpU9ixY0eWFkAESJ9CNG3alLpnebG2tsZ///1XkHlISy9fvvzjlKGtrS1u3bpVrQpQy6ukpCSsU6cO9bnDoG9ApZBIJLySjs2ePZuon3nz5onwsWISUt7e3oKU/CAteimvwsLCcMmSJSzJpEDo6uoSn4aysLCg7psEDQ0NnDdvnkpXGChIT58+xWLFimGdOnXw2LFjvE/Xkerbt2+4detW7NmzJ8bHx4veX0pKSr4b6BlKhboBlaJmzZrEE/r06dPE/XAch+fPnxfh48UkpDZt2qTQfLK1tRU0t01ukslkePv2bezXrx9LRqcAVatWJYp7UlISdc98adSoEXEdM1VSdHS00vqKjY3FJUuW/PLau27duhgWFiZan5GRkejg4EB9njB+QN2ASkFaPDUrKwvLly/Pq68KFSoo7dsQE38tWbKE17HcChUqKLQnjY/i4uJwy5Yt7HE9Dzp16kQU6//++4+6Z0UwNjbGgwcPijQT1V8fP37EyZMno6GhYa7xK1GiBF6+fFmUvrdt20Z9fjB+gboBlWLlypVEE5pPteifuXbtmigfNKY/lZKSwrvMw7lz57BMmTJyXVOO47BPnz5KeTyfn54/f47jxo1jhXHlZMqUKUTxPXnyJHXPQtC/f3/BS3ios/z8/HDQoEGopaUlV/x69+6NoaGhgnqIjo4W5LU/QzCoG1Ap9u7dSzShFT1GPnPmTEE/YEVJCQkJGBgYiI8ePcLz58/jnj17cNmyZThlyhQcOHAgdujQAR0cHLBs2bI/auGdPn2ad3/fvn3DtWvXooODQ65PmAwMDLBfv37o5eUl4CgVV1paGh46dAhbt27NEtblw9atW4niumLFCuqehcLW1hYfP34s0gxUD927dw9dXFx4fUa0tLRwyJAh+OjRI8H80CgOzMgd7n//wPQ/nT9/Hjp37iz3z/fo0QPOnDnDu79evXrB8ePHef9+YREiwtevX+Hr168QExMDX79+hejo6B//7uvXr/Dlyxf48uXLj/+fmZlJ3E+NGjXg5cuXIJFIFPIbHR0N7969g+joaNDS0oLSpUtDzZo1QVNTtXO4vn//Hjw9PWHfvn0QERFB245K6dq1a+Ds7Cz3z48cORI8PDxEdKRcaWpqwsKFC2HOnDmCJpgNDg6GM2fOwLNnz+DDhw+AiGBiYgJVqlQBJycnaN++PWhpaQnWH4lkMhlcuHABVq1aBY8fPxakTRsbG2jXrh00adIEqlSpAtbW1mBoaAhGRkZE7ezZswdGjBghiCcmxUV9taZKkD5x6N69u0L99enTR7BvIKqkzMxMjIyMxFevXuHt27fxyJEjuGnTJlywYAGOHTsWe/Togc2bN8eqVatiyZIllVrYl7SUSGFUdnY2Xr58Gbt37y73K4bCzrt374hi2KpVK+qexaB58+aCJGv09fVFFxeXAvuzsrLCzZs3K3W/ZkZGBu7Zswft7e2VFlfSFCGxsbGora1NfT4wAEEFDKgUhw4dIprMU6ZMUag/dXn19u3bN/z06RM+f/4cr169igcPHsT169fj3Llzcfjw4dilSxds2rQpVq5cWe4CmrQwMjLCjx8/0g6pyig6OhrXrFmDVapUoX5taKGlpUV8ZN7a2pq6b7EwNTXFkydP8p5T69evJ/4j37RpU8GqGOSlxMREXLVqlSi1HAti+PDhxH7lWWgylAJ1AyrFihUriCby+fPnFerv+vXrxB8eIZScnIwhISH4+PFjvHjxIu7duxdXrVqF06ZNw8GDB6OLiws2bNgQbWxs8jz1oc40bNhQpYr3njp1Crt164aXLl2iehLy0aNHOGzYsEJ5zfPDzs6OKE5paWlKfQpKg0aNGvGaQ/PmzePdp62tLUZGRvLqNz9FRUXhrFmzsFixYtTiaWpqSlyo+MCBA9TnAQMQVMCASjFixAiiiZyeni73aajfKV++vGAVvmNjY/Ht27f44MEDPHv2LO7atQuXLl2KkydPxgEDBqCzszPWrl0by5Qpw3Lt/I+hQ4fyPgUnpJ4/f/5jszkAYOnSpXHevHnEr4KEVHJyMnp4eGCTJk2oXydl0L59e6L4+Pv7U/csNqQngBERDx48qHC/9evXx8zMTOK+c1NgYCCOHDkSdXR0qMcTAPDixYtE/hMTE9n9WjWgbkClqF27NvGHke+q//jx48R9/f3339i7d29s2bIlVq9eHUuVKsWOkSrA5MmTia+B0BowYECu3jiOw1atWuGhQ4cwLS2Nmr+AgIBCV2fOxMQE27Rpg8OHD8elS5figwcPiGKi6JNkdSAgIIAoJl++fBHsiQ3pk/3f5ePjgz169FC5p34DBgwgHoui+2AZgkDdgEohkUiIq7wjIo4ePZqon0mTJhH3gYi4ZcuWfAtDMsh5/fo1r2shlJ4+fVqgRxMTExw7diw+f/6cms/MzEw8ffq0WtaZk0gk2KpVK1y/fj0+f/5c4deba9eupT4mMTE0NCR+2jpt2jTB+jc1NcWUlBSi/mUyGV65cgVbtmxJPX55YWRkRFyT7vjx49R9M+gbUDlIcykhIkqlUpw3b16B32A0NTVx6dKlCr3yiYiIQDc3N+pxKgx06NCB93UQUk5OTnJ7rlOnDm7evFnQavCkCgsLw6VLl6p8nbmyZcviokWLBE8ImJCQgBs3bsTKlStTH6MYNG7cmCgemZmZWKJECUE9kN6H+ZSSosGpU6eIxpWamlrk9gyqINQNqBwtWrQgmsg/6+XLl9i3b180MDD4pU0TExMcOHAg8ePs/HT58mXe5VMY319tPXv2TLDroYju3btH7F9XVxf79euHt2/fJi7mKpRy6sz1799fpfZSWFlZ4ZYtWwTbA5jf+M+dO1foTgwOGjSIKA4+Pj6Ce+jduzeRh0ePHlGPmzy4ubkRjQsRsW/fvtR9F3GoG1A5OI5DX19f4sn8s7KystDf3x99fHzw3bt3olXrTk1NxZkzZ7JcODzo0aOHKNeEr5o1a8Z7LLa2trhkyRJRC3UWJFWoM6etrY2LFi0ifr2hqLKysnDnzp0qnxpDXiZOnEg0/p07dwruoVq1akQePn36RD1u8qCvr4/JyclEYzt37hx130Uc6gZUkm7duhFNZNp69epVkTmhJAQaGhrU9yb9rqtXrwoyro4dO+KpU6dEf5qSn168eIHjxo1T6sKhbt26Cn/BUVTh4eHYvn176vNbUebPn0807mXLlgnuoXjx4kQeoqOjqcdNXo4cOUI0tvT0dKqpDRj0DagkHMfhv//+SzSZaUsqleKOHTsKzbdaMeFz+kQqlWJsbGy+P5OZmYlPnz7FHTt28HqKWK9ePcHGWKJECZw6dSr6+/sT+xBKaWlpePjwYdHrzI0bN06wI+WKSiaT4erVq9Vuw/vPzJkzh2jM69atE9yDhYUFkQd1Wih17tyZaGyIiIMHD6buuwhD3YDKYmdnh6mpqcQTmrY+f/6M/fr1ox4/VUVLS4tXjqJDhw4hAKC5uTk2adIE27Zti25ubtizZ09s3rw52tvb/7JP58CBA8R9iLUhtXHjxujh4YFJSUnEnoRSSEgIzp8/n3fesdzQ0NDATZs2URtTfrp48SIaGRlRn+98GDVqFNFYjx49KriHunXrEnlQl1dvAIA6OjoYHx9PNL4rV65Q912EoW5ApSHd1KhKunHjBtrZ2VGPoapB+kcA8fuTItJYVqlShXiTtVQqxapVq4o2dkNDQxw2bBg+fPiQOAZCKafOXI8ePRSqZaWlpYVnz56lNg559OTJE7V7ZWJsbIwLFiwgGmdgYKDgPkiT/6rLZu4cSE/1ZWZmorm5OXXfRRTqBlSe5cuXE01oVVJaWhrOnz+fFVf8H7q6urwKfu7atYtXf6RHgRGVV7agSpUquHr1atHra+WnnDpzpItDiUSChw8fpuabRF5eXir7ZInjOKxSpQoOHToUd+3ahX5+frxPUAp98u/ChQtE/R8+fJh6PEkgzQaPiDhq1Cjqvoso1A2oPBzH4dq1a4kntSopICAAmzdvTj2WtOGT6DM9PZ13AVTS1weI309QKTM/kZaWlkrUmfPy8sLhw4fLtajYtm0bNZ98dP36dZXYs1SsWDF0dnbGhQsX4tWrV4lf/+SnjRs3CubT1taWeM/Z9OnTqceX9HMXExNDNMbbt29T911EoW5AbZg9e7bof0gyMzNx6dKl+OLFC8Hblslk6OnpicWLF6ceSxoYGBjwenqyYcMGhfq9cuUKcZ87duygEiNVqTO3Z8+ePE9x8qnCrgpavXq1Uq+lRCLBatWq4fDhw3HPnj34+vVrUfNtZWRkCLbAP3bsGHH/DRs2pH6PIWXHjh1EY8zOzsZSpUpR910EoW5ArWjVqhWGh4cTf4jl0YcPH7BRo0YI8D2D95QpU4jzbcijL1++4ODBg0U9haSKkJ7kQURMSUlBCwsLhfpt1qwZcb/p6elYunRparHKqTN38OBBpeck+lkBAQE4ffr0H3XmqlSpQlzaIi9lZGTgo0ePcM2aNThixAjs3r07tm3bFtu3b48DBgzARYsW4cWLFwXdAC9m3S5TU1Ps0KEDLlq0CK9fv44JCQmC+ZZXT548QT09PYXG0a9fP159t2jRgvo9hpRWrVoRj3PChAnUfRdBqBtQO4yMjHDNmjWC5alJTU3FxYsX/5HNGwDQ2toaz507J0g/v+vu3buFtgTD75iYmPAq+bF8+XJB+ueTakKMI9d8Y6cqdeaEyH3l7e2NI0eOlLtmopaWFnbu3BkvXbqkUOkhxO8nUs3MzBS+JhoaGlijRg0cOXIkenp6YkBAgMLehNKpU6d4Z2l3dnbG9PR0Xv1KpVLcvn07mpiYUP/MkFzHyMhIonE+fPiQuu8iCHUDakvp0qVx9erVBebWKUjyfMvs2rUrr03IBSk9PR0XLVqkUuUnxGDJkiXEsUlISBDkjxoAoJOTE3H/KSkpKnfKpXbt2tTrzPHV27dv0cXFRaHx16pVC+/evauQj/379xP3W7x4cXRxccHFixfjzZs3MTExUZigiKTHjx8TpYHgOA4nTZokSC6syMhI7NWrF/XPiryQpreQyWS890wyeEPdgNqjpaWF7du3x02bNqG3tzfxk6Zx48bJ1Y+hoSGuW7dOlHIogYGB2KZNG+qxFIMSJUrwen3y999/C+rjyZMnxB6WLl1KPX65kVNn7tatW9TqzMkrmUyGq1atEqzMD8dxOGrUKN6vJGUyGdatWzfP9jU0NLBmzZo4ZswY3LdvH759+1ZlnhaRKDU1FZcuXZrvq+ucTPJ8PhsFSV1qYTZp0oR4bNOmTaPuu4hB3UChY/369USTnvS0SJ06dUS5schkMjxw4MCP/SCFhTVr1hDHIiYmRvAj3V27diX2ER8fr/J5eGxtbXHx4sVU68zlpdTUVOzWrZso465Xrx7v1AqXL1/+0Y65uTm6urri0qVL8c6dO6LsS6QpqVSKjx49wnXr1uGUKVNw1KhROGfOHDx8+DBGRESI2ndqairOmDEDNTU1qX9O8oLjOPz48SPRuJ48eULddxGDuoFCx19//UU06fnU+NLQ0MAJEyaI8gg+NjYWR4wYUSg2e1tZWfH65i/GUWOO49DPz4/Yy9y5c6nHUd452aFDB+p15nKUnp6OTk5Ooo65YsWKvBdLp0+fxqCgIIFHzZSbXr58iQ0aNKD+GcmL1atXE4+pQoUK1H0XIagbKHS0adOGaMK/e/eOd19WVlZ48uRJ4g+ZPHrw4AFWq1aNejwVgU++nYiICIVP7uQFnxM9X758QX19feqxJIF2nTmZTIY9evRQyljr1q1L9WQgk3ySSqW4efNmuTfxKxMHBwfi8ajLF6hCAnUDhY6yZcsSTfjs7GyFM2e7uLhgaGgo8YetIGVmZuKyZctEWziIiY2NDa8nG2PHjhXNk4aGBgYHBxN7mjx5MvV48qVx48a4e/dupdaZ27p1q1LHSFpuQx2l6nvR5FV4eLioaRr4Qnpf8PX1pe65CEHdQKFDIpEQf8O0t7dXuF99fX1cuXKlKFXUQ0JC0NnZmXpsSSCtpYSIGBoaKnq5Fz5/VMPCwlBHR4d6TBVBWXXmgoODqTyBu3nzpqjjUqaysrLw+fPnuGXLFhwwYABWqFCB11MPVdaFCxewbNmy1D8XOSxdupR4DEKXjWHkCXUDhZJXr14RTfhOnToJ1nfNmjXRy8uL+EMnj44ePYqWlpbU41sQ9vb2vLKoDxkyRHRv2travDY+F6Y6T2LWmRs4cCCVMVWrVk1tn7pERUXhuXPncNasWdi8efNcF5r169enbVNwJScn45QpU1SivEyNGjWI/S9atIi67yICdQOFktOnTxNNeKGPe0okEhwzZoygtZxyFB8fj3/99RdKJBLqcc6L48ePE4/rzZs3Srth8qk59+7dO5U+vcMHoevMBQYGUv2jR/q5p6HMzEx88uQJbtq0Cfv164c2NjZyjW327Nm0rePTp09FKSP1/PlzrFevHvXPA+mevrdv31L3XESgbqBQsnz5cqIJL1ZtLwsLCzxw4IAoeVieP3+ODg4O1GP9OzVq1OD1zV6ZSer09fUxOjqa2GP//v2px1csLC0tcdasWbz2cOVo5syZVMfg7OzM27tYioqKwosXL6K7uzu2bduW92vJW7duURuDTCbDFStWoEQiwVq1aqGPj4/gfUilUty5c6fgaUFIWLBgAbHv2rVrU//sFgGoGyiUDB06lGiy37lzR1Q/Tk5OohQ6zcrKwtWrV+dafoUWFy9eJB7Hy5cvlf6EjE/tudevX6v0kzwhyKkzx6d0D+0j0xoaGsQV4YVURkYGent744YNG7BPnz5Yrlw5Qcalq6tL7WRfeHg4duzY8Y84T548WZScU58+fcLOnTtTmT+VK1cm9itUmSVGvlA3UCghLYQaHh4uuic9PT1cunSpKDluPnz4gK6urkqJrb6+PlpaWqKpqekf2ZYbNWrEy7+Qe8TkxdjYmNerUbESKKoarq6uRHF58+YNdc8AgCdOnCC+pnwVHh6Op06dwqlTp2LTpk1FK0XUunVrpY0pR1lZWbh+/fp8n/BYW1vj+fPnRen/zJkzVApTv3jxgsjn+/fvC0XOOxWHuoFCiYWFBdFkl8lkSnsqU7VqVbx//z6RP3l1+vRpwW4uEokEmzZtijNnzsRTp07hu3fvMDU19Y8+k5OT8cmTJ+jp6Yn//fcfsefHjx9Tmyd8atA9ffqU+vxWBqNHjyaKy/Hjx6l7BgCcOXMm8TWVR+np6ejl5YXr1q3DXr16KbXeF58TWXyVkpKCW7ZsQTs7O7n9devWDcPDwwX3kpiYiBMmTFDqU9xZs2YR+2zYsCH1eV/IoW6g0JKQkEA02ZX5rpnjOBw2bBh+/fqV+ENZkJKSknDixIm8N9XWqFED169fL8qNLzfRrHFnbm6OKSkpxJ7VLVUDHxYvXkwUE6Fr8/GlW7duxNczN3369AmPHz+OU6ZMwcaNG1NND/H48WMi70FBQfj27Vu5fz4lJQXPnj2Lw4cPR1NTU14ejY2NcdOmTaJs9vbx8VHa/bl8+fLEe0rXrVtHfd4XcqgbKLSQ1mNzc3NTuscSJUrg/v37Rdns/ezZM6KTJPXq1cOzZ88qtQCo2HvD5GHt2rXEvu/fv0/dt9js2rWLKCbyFpcWG9LX7oiIaWlp+OjRI1y7di327NmTyiufvChWrBhxIe6cFA0lS5ZEFxcXHD9+PC5ZsgR37tyJ27dvxxUrVuCCBQuwV69eWLNmTUFzlzVo0IDXk+WCpMz9mKQL07CwsEK/d5Ey1A0UWg4fPkw02efNm0fNa6tWrYi+Acqr7Oxs3LBhQ777DIoVK4Y7d+6kUiG9SZMm1OeJlZUVpqenE3t3dHSk7l1MduzYQRSPkSNHUvcM8H3BT6LXr1+LnuRUETp37kw0HkREKysrqp41NTVx+vTpvJ7WFqTQ0NA/NpcLzeTJk4l9NW/enPpcKaxIgEk0BQcHE/18xYoVRXJSsO7evQu1atUCd3d3yMjIEKxdDQ0NmDRpEgQEBEC3bt3++O9t27YFf39/GDVqFHAcJ1i/8ujy5cvg5eWl1D5zU2RkJOzdu5f49+bOnSuCG9VRWloa0c9LJKpxOzMxMSH6+YSEBMjMzBTHjABq06YN0c+/efMGIiMjRXIjn7Kzs2HNmjVQvXp1uHz5sqBtly9fHi5fvgzHjx8HS0tLQdvO0cmTJ0EmkxH9Tu/evUXxwvRd1FdrhZX+/fsTfSN49OgRdc8AgBUqVMDr168Tf6ORR5cuXcLy5csjwPdSHmKUW5FHMpkM69SpQz3WOdjY2BC/3kBElcxjJRSkucj++ecf6p4BAHv37k3k+9q1a9Q95wdpEsTNmzdT9/w7nTp14pUNvyAlJCTgpEmTRElyeu/ePSIvX758KXQJaVUF1fgKVkgVFBRE9POVKlUSyQmZQkJCoH379jBo0CCIiYkRtG0XFxd4/fo1nD9/Hnbv3g1aWlqCti+vEBGqV69Ope/cFBoaCkeOHCH+vTlz5ojgRjWUmJhI9PM2NjYiOSET6ZPhL1++iOREcZUqVQqqVKlC9Du3b98WyQ1/Xbx4EapXrw7bt28nflKTn4oVKwYbNmyABw8eQI0aNQRrFwDg+PHjRD9fokQJaNmypaAemP5f1FdrhZVixYoRf0MxMzOj7vtnzMzM0MPDg8r+IbEllUpx8ODB1GOcQ5UqVYgzikulUqxatSp172LQtWtXoliEhoZS9wwAeOXKFSLf7u7u1D3nBelT8ezsbDQxMaHuOz8aN25MXItTHmVmZuLy5ctRT09PEJ8lS5Ykfsq8e/du6vEtpFA3UKghLfqpqvkwHB0diR/Bq4OysrKwdevW1OObw8mTJ4nHcPDgQeq+xcDOzo44FpUqVaLqWVtbmziJ6IABA6jHOi88PT2JxuLj40PdszxoaWnh7NmzRck2HhISIlj6jhs3bhD1HRsbq9IHA9QY6gYKNQ8ePCCa6LQqn8uDtrY2zp07l1opA7EUExPzY98UberWrUv89C4rKwttbW2pexcaiUSSa4LR/DRnzhyqnnv27EnkF5H+4i4/Pnz4QDSWZcuWUfdMgq2tLV67do34msmjw4cPo4WFhUL+hg8fTtyvi4sL9bgWQqgbKNSQfiNbvHgxdc8FUaFCBdFuLrR0584dlSkDQPrqBhFx586d1H2Lwb///ksUh7CwsD/K2iiTq1evEvmNiYlRmXn3O3ye6LVt25a6bz7069eP+Om/PIqLi8ORI0fyvsampqbEJacOHDhAPZ6FEOoGCjWzZ88mmuTHjh2j7lle+vTpg1FRUUTjE0Lp6ekYFxeHkZGRxHt68pOq5OFp2rQpr5ioUpJCoeCTT2bQoEFUvDZu3Jj4aaAqf95JS8ikpaUJtj+HBqamprhr1y5R9mPev3+f915C0iLfiYmJotX8K8JQN1Co6d69O9Ekf/78OXXPJJiYmOC2bdsEXbDkprt37+KYMWOwYsWKvxzF1dbWxlq1auH06dPRz89PoT6+fPmChoaG1GMKQP4kBRFx/fr11H0LTfny5YnjEBUVxbsMBl84jiPOpoyI2KdPH+oxzgvS4r63b9+m7lkImjVrJsp+zIyMDFyyZAnxImbAgAHEfXXv3p16HAsZ1A0UamrUqEE0wZOSklT2UXx+NGrUCH19fYk/0AXpwYMHcm9w5zgOO3bsiMHBwbz7o73HJYd27doRe09JScESJUpQ9y40L1++JI7Fnj17lOpx+vTpxB5TU1PR2NiYenxzQyKRYExMDNF45s6dS923UGhra+P8+fMxLS2N+LoWpKCgIKL6kkZGRsT7QlWlQHQhgrqBQo2enh7x0xZLS0vqvvmgqamJM2bMEKRsgEwmw3nz5vFK5Kanp4cHDhzg1W90dDTVPS4/Q1orEFF1ki4KNZ/++ecf3k8rx48frxSfLVu25JUsVJWPctepU4d4PKp6YlcRKlasiLdu3SKORUGSyWS4f/9+ub/YnD59mqj91NRULFasGPX4FSKoGyj0fPz4kWiSt2jRgrpnRShXrhzxe/WfJZVKcejQoQp54DiOV7FZRMRu3bpRjyEAYJcuXYi9JyQkFIobpI2NDa9XWT8rOzsbu3btKqrPBg0aYFxcHC9/yqpGzwfSJ2QJCQmFNis0x3E4cOBA/PLlC6/rnJ++fv2KQ4YMKfAtgpubG6/2o6Ki8OrVqzh37lysXLky9ViqMdQNFHpIv5GMGDGCumch6NGjB6+nAUKd/JNIJHjq1Cni/s+cOUM9dgDfb9B89l3RLK4sBH369MGEhATiceemrKws/Ouvv0Tx2bJlS0xMTOTl6+LFi9TjnB+kp/fOnTtH3bPYFC9eHD09PUXZ7H337t18FzL6+vqYnJwsSD9OTk7UY6mGUDdQ6Nm2bRvRZF61ahV1z0Jga2tL/EF+8uQJSiQSwTyYmZlhdHQ0kYfExESVef3Wr18/4hh++fIFDQwMqHsnxdDQkDidhrzauXOnYE/aNDU10d3dndfrNsTvT0xr1apFPd55oa2tTfz6fMKECdR9K4uWLVvi27dveV37/JSeno4LFy5EHR2dXPs9cuSIYH1dvHhRbbd4UIK6gUIP6RHns2fPUvcsBIMHDyb+ADdr1kxwH2PHjlUJH3zQ0NDgtTl98uTJ1L2TULduXQwMDCQeJ4kiIiKwT58+ChUw7dChAz5//lwhH7t27aIe7/xwdHQkHlO1atWo+1YmOjo66O7ujunp6QrNhdz05s2bXLdf9OjRQ9B+YmJisHnz5tRjqSZQN1DocXFxIZrA/v7+1D0Lwe7du4nGLVZqBAMDA+J9JJMmTaIevxxGjBhB5B0RMTw8PM9vpqoEx3E4ZcoUUf7g5KX379/j1KlTsWzZsnJ5LFGiBI4cOVLhPVOIiJGRkSpfC83d3Z14TOp4UlcI7O3teaXyKEgymQw9PT2xePHiCPD95JsQ8+93paeno6urK/U4qgHUDRR6KlWqRDx5FfnWqyqQ3kCmT58umpdDhw4RedmxYwf1+OWgra2Nnz59IvKPiDhq1Cjq3vOjZMmSvLKQC6k3b97g7t27cf78+Thw4EB0c3PDYcOG4ZQpU3DXrl3o7e2N2dnZgvQllUqxY8eO1ONeEKRllw4dOkTdM004jsOhQ4fi169fBZknP+vLly84ZMgQvHv3ruBt5ygtLQ2bNGlCPY4qDnUDhR4tLS3MzMwkmrw2NjbUfSsK6Xt8MY8Xk9ZMunHjBvX4/czEiROJ/CN+L86pqieRnJycqGR1pyl1SN1gaGhIfK9S9IRqYaFEiRK805LQVnh4OJqbm1OPoQpD3UCRgHT/xYwZM348dlVXSKuoi/lKonnz5kReVK0Kur6+PvGmdMS8K9ObmJhg+fLl0cLCQqlJD7W1tXHVqlWinBxSZUmlUrXYx9OxY0fiscn7CrOo0KZNG4WS3tLS3r17qcdOhaFuoEhw6dIl4okrk8nw2bNnOHXqVLXIuGxpaYk9evTAdevWoZeXF9FYs7OzRd3nULVqVSI/b968oR7P3yGtG4iIGBAQgH/99Rfu2LEDvb2983w9kJ6ejm/evMELFy6gu7s7tm3bVvByLnZ2dvj06VPiMRQW+fv7q0yJnLwgzT0WFBRE3bMqoquri0uXLiUuaEtTMplMpXN7UYa6gUJP2bJleWVZ/lmpqam4YcMGlXk8qqGhgbVr18Zx48bhoUOHMDQ0VOEPqpgFNWvWrEnk5fXr19Rj/DvGxsa8kxvyUVpaGp47dw779++v8LUZNGgQJiUlCebt48eP2KpVK9y/f79gbSpDJ06cUOmNz6TlYrZv307dsypTrVo14j1fNHXkyBHqMVNRqBsotEgkEpw1axZxnZ789PXrVxw8eLDSx2JiYoIdOnTAxYsX461btwRJfva7bG1tRfPfvn17Ii+BgYFoYWFBfQ79zuLFiwWPuzyKiYnBpUuXYqlSpYj8GhsbE2+kL0inTp36UfRWIpHghg0bBG1fbE2bNo36PMqNEiVKEL8S7dmzJ3Xfqg7HcThy5Eilfsnhq7S0NJU/lUkJ6gYKJWZmZqLUCMrRvn37RH0CU7lyZRwyZAju2rULX79+zbveFolcXFxEG8/MmTOJ/WRnZ+OtW7dwxIgRaGZmRn1OAXzPDizGIlVeJScn48KFC+VKaNmgQQN89+6dYH2npqbmeZJv6NChohQwFUNZWVnYsmVL6nPpd3r16kU0DqlUqvb7KJWJhYWFoEkj89K3b994Z4xHROzduzf1WKkg1A0UOsqWLYtv3rwRcOrnrrt376KRkZHCfvX09NDR0RFnzZqF58+fF6WmkTzauXOnaNdE0eO1mZmZeOnSJRw4cCD1iu9r1qwRJuAK6NOnT3mWQsh5kkp6eio/+fr6YtWqVfONS82aNfG///4TrE8x9fnzZyxdujT1e9XP7Ny5k2gML168oO5ZHXF2dsaQkBDB59SXL1+wZ8+eP6oKVK9eHW/cuEHczpYtW6jHSAWhbqBQUaJECVHS2+ele/fuEScWLF26NLq5ueH69evR29tb0D9oiujz58+oq6sr+DUpW7asYLlwEL8/nj59+jS6ubmhvr6+0ueYlZWVSmwSlclkuG3btl/mn6WlJd68eVPQPjZv3iz3vNDS0sK5c+dSfeomr7y8vFBbW5v6PSsH0qd/q1evpu5ZXdHX18cVK1YIdu9NS0vLdSO2trY2Pnz4kKitO3fuUI+PCkLdQKFBS0uLeFIKoQMHDuTpSVNTE+vVq4cTJkzAI0eO4MePH5Xuj0QzZswQ/Lrs2rVLNL/Jycl4+PBh7Ny5s1IyYWtoaOCmTZtEGw8fPXr0CC0sLNDFxUXQp5ExMTHYuXNnXnGytLTErVu3Cro/MDdlZmYq9PRYVb69ly9fnth7+/btqftWd2rUqEF8Qjg3HT58OM8+SCtDBAYGUo+LCkLdQKFh+fLlCk94vsrJl2NqaoouLi64ZMkSvHPnDnFxS9qKi4tDKysrwa5JkyZNeBcvJVV8fDx6enqik5OTKIke9fX18fLly0oZC6liY2MFzY10584dQV5NlSxZEhcsWCD4q46IiAhcsWIFlilTBg0MDNDPz493WwMHDqR+7yJNyJqRkaGWhZdVEYlEgmPHjsWEhATec2jOnDl5tl+uXDmitsLDw6nHRAWhbqBQUKNGDaX9Qc5NiYmJ6O/vXygS+T158kSQjeoWFhb4/v17KmP48uULbtu2DVu0aIESiUThsejq6vLab6BuysrKwrlz5woSs5/hOA6bNm2Ky5Ytw+fPn/P6rPr5+eH69euxdevWf/irWLEi7z90qampWKtWLar3L9JNxvfu3aN+zy0slClTBufMmaPQvWrr1q15tt+wYUOitkJCQqjHRNXg/vcPTArq+vXr4OTkRNtGodGlS5egb9++kJKSwuv3S5YsCbdu3YIaNWoI7IxcERERcPLkSTh+/Dj4+PgAItlHTkNDA86dOweurq4iOVQNhYaGQr9+/cDb21v0vgwMDKBOnTpQqVIlKF++PFhYWICRkRFoamoCAEB8fDxER0dDZGQkBAQEgK+vLyQmJubbZpcuXeDs2bPAcRyxn5CQEKhfvz7Ex8fzGo8i4jgOoqKiwMLCQu7fWbhwISxevFhEV4Vb+vr60L17dxg0aBC0adMGJBKJQu19/foVKleuDHFxcX/8txMnToCbm5vcbfn4+ECjRo0U8lMYRX21pu44ODjw/ibAlLdevXqFlSpVIr4eTZs2xbCwMNr2c1VoaCguX76cKAOuKpxyE1tHjx7FYsWKUf8sK8o///zDOwaXLl0S/EmaPNSoUYPYa9OmTanHWt3gOA5btGiBnp6egiZfzdHDhw9/2bago6ODK1asIG5n37591GOlglA3oPbs3r2b9+QODAzEZcuW4ahRo3DYsGG4ZcsWDAoK4t2eKopPjbIcZWZm4pYtW+Tat1StWjU8ePCg2rx+fPPmDbq7u2OVKlXyHFOfPn1E6Ts5ORk/fPiA0dHRVPMPJScnF6qiqhoaGgq9Il2wYIHSPU+aNInIY1JS0o8j6IyCsbOzw0WLFglSvaAgpaWl4e3bt/HMmTMYERHBq43Ro0dTj5kKQt2AWqOtrc0r42pERAR27Ngx1zYlEgkOGDBAoc19tJSamor37t3DZcuWYadOndDc3BwNDQ0xPDxcoXalUik+fvwYFyxYgAMHDsTWrVtjmzZtsG/fvrhy5UqFS8TQ1suXL3HOnDloY2PzYx5YWVkJks03KysLL1y4gBMmTMC6dev+cTpPIpGgjY0Nurm54c6dO/OsBye0nj9/zuuJoapjbm6OHz584BUTqVSKHTp0UKrfCxcuEHm8fPky9RirOsWKFcORI0figwcP1OaLG+L3dBzlypWjHj8VhLoBtaZp06bEkzEsLEyuydikSRNMTU0V4eMgnMLCwvD48eM4adIkbNCgQZ7fNPv27UvbqtrI29sbp0yZgleuXFGoncTERPz777/R0tKSaE5ra2vjgAEDMCAgQKAR/SqZTIbr1q1TSjoFWjg4OPB+UhcbG/vLgllMNDU1ibM4T506lXp8VRENDQ1s3749HjlyRPS0FGLp33//pR5HFYW6AbWGtKK7TCbDZs2ayd3+sGHDRPpIkCsrKwufPn2KGzduxD59+qC1tbXc4+A4jvibqzK1evVqdHR0xC1btij0qlBVtHfvXoVr1WlqauKUKVMEXaxHR0cr/YkJLUaMGME7Ti9evBC1RFEOjRs3JvZG+4SeqlGtWjVctWoV71ddqqROnTpRj6eKQt2AWrNv3z6iifjgwQOi9jU1NakdcY+NjcVLly7hvHnzsGXLlgrnTTE1NVXKe3pSeXl5/fIkTENDA9u2bYseHh4YGxtL2x6RUlJSsH///oLO8WrVqgmSbf769evERXXVHUX2L+7du1d0f/PnzyfyFB0djRzHUY8rbczNzXHixIn47Nkz3tdX1fTo0SN2bfOGugG1hrSG2Lhx44j7WLp0qTifjJ8kk8kwICAA9+zZg8OGDcMqVaqI8qGpW7euQgUbhVZoaGi+T160tbXR1dUVDx48KMpJFSGVkJCADg4Oosxzc3Nz3vvAMjMzccaMGUXyJqyrq4tPnz7lfU3HjBkjqj/S+9exY8eox5QW2tra2K1bNzx37pzKlH0SSmlpaVi9enXqMVZhqBtQa0hvgnzS/vfr10/wD0ZKSgrevXsXly5dii4uLmhmZqa0mDVr1kwlMoaHh4cTbSbW09PDHj164IkTJ1RuD0JKSoroR7bNzMzQ39+f2Ft6enqRrjJfrlw5jImJ4XVd09PTsWHDhqL40tfXx/T0dCI/I0eOpB5PZVO/fn3cvHmz0g450FBRvK6EUDeg1pBWK2/evDlxH0IslD59+oRHjx7FiRMnooODgyglNkho2bIl1ddaISEhWLFiRd7+DQ0NsV+/fnjhwgWVKFA7ZMgQpVy3ihUr8nqyNnHiROqfVZq0a9eOd2HmT58+YcmSJQX35OTkROzF1taWeiyVQenSpXHmzJm8vhiom5YsWUI93moAdQNqzb1794gm5dixY4n7WLBgAVEfmZmZ6OPjgxs2bMBevXphmTJlqMcpNypWrKhQQVG+un//PpYoUUKwcZiamuLQoUPx+vXrVMrYnDx5UqnXjbQuGOL3VAC05xtt5s6dy/sa3759GzU0NAT1s3LlSiIP79+/px5DMdHT08N+/frhtWvXeC9qhVJAQIDCZU0Kkkwmw1mzZlGPu5pA3YBac+zYMaLJeebMGeI+SF/vLVq0iHpc5MXY2Bh37NihlFwjmZmZuGDBAlGfppUoUQL/+usv/Pfff1EqlYo+pvT0dKUvhDmOw8ePHxP5lMlkghY7Vkc4jsNz587xvtYrV64U1A/pfWX37t3UYyjGNXF0dEQPDw/qeye/fv2Kmzdvxvr16yMA4KBBg0TrKyIiAp2dnanHX42gbkCtWbhwIdEEzcrKyjcT8+907NiR+EPg5uZGPS6ktGzZEn19fYnHKq9u376N1apVU+qYSpcujZMnT0Zvb2/RFoJbtmyhcr3at29P7HXw4MHU5xltihUrxjvzvkwmw+7duwviw8zMjHgh37dvX+rxEwpbW1tcuHAhhoSE8LoWQikzMxPPnz+P3bt3R21t7R/+jI2NMSoqSvD+EhMTcdmyZWhsbEz9GqgZ1A2oNR06dCCerL6+vnK9+rG2tub1YVFWsjqh4TgOe/TogS9evCAec26SyWR48+ZNbNWqFfWx2djY4OzZs4n3tBUkOzs7amMKDAwk8urp6Un9OqgC1atX532YISkpCe3t7RX20L17d6J+ZTKZwnm5aGNsbIzDhg3De/fuUc+W/fz5c5w0aVKefweErO+YkpKCN27cwFGjRrEFEn+oG1BrDAwMiE+OICIGBQVhzZo182zX0dGRV9mP169fU4+JENSqVQvXrl2LwcHBxDFARPTz81Nos7aY2Nvb48KFCxXOfP3ixQuq4yB9mvr06VPqsVcVFMlU7+/vj4aGhgr1v3XrVqI+X716RT1mfNDQ0EAnJyc8dOgQ9SoHkZGRuHr16gKP4dvb2/NKP+Dt7Y3NmjXDbt26oZubGzo5OaG9vb3ge9uKKNQNqD2nT5/m9cGRyWR4/vx57NevHzZo0ACbNWuGI0eOxKtXr/JqDxHx+PHj1OMhNJaWlsQbYb28vKj7lodatWrhsmXLeL0CoFFA9WcaNWpE5Dc1NRUlEgn1mKsKGzZsIL7mOTpx4oRCealIE4iuX7+eerxIqFq1Kq5YsULhGpOKKi0tDY8dO4YdO3aUe8Fy/fp14n6kUumPvU0MUaBuQO3hs49ITO3Zs6fQ1dGqWbMmUQyCgoKoeybFz8+PaIy0yw1oaWkRf/MlrTtXmNHS0sIHDx4Qxe9nTZs2jVe/ZcqUIe7L1dWVerwKonjx4jh+/HjqBbJlMhk+fPgQR40ahSYmJkRj6NatG68+PTw8qMe/kEPdgNrDcZxg+2qEkpeXV6H6o2RlZUU0/ri4OOqeSSF9qqQKOW1In0woe0O9qmNpaYmRkZFEMcxRVlYWtmzZkrjPwYMHE/ejqntbtLS0sHPnznjmzBnq+cxCQ0Nx8eLFvF/56+np8UoHEB8fL0qeLcYvUDdQKHB2dhbho6eYIiIiRMvqq2y0tbWJxi6Tyagn1SSFNHuzorX3hOD+/ftEntu0aUPds6rh6OjIuyTG58+fsXTp0kT9HThwgKiPR48eUY/R79StWxc3btyIX7584RU3oZSUlIR79+7Fli1bKvxamTRfXo6KejJXJUHdQKHh8OHDAn8MFVdaWlqhOZZNmudE3U7pkH4j/rmQLy1I99PJZDIMCQnBkydP4rx587Bjx46F6sknXyZNmkQUx5/l5eX1y9HygiDdt7N48WLq8QH4/vRt+vTpxK+ohZZUKsWbN2/iwIEDBfuyUq5cOV6bzf38/NTuC6GaQt1AocHU1JT3KS2xtWHDBrX/QJG+mlK31zykpydVYR8aaeLJvBQVFYVXrlzBZcuWoZubG1aoUKHIFdE9cuQI7/jJm0/L3t6euO0WLVpQi4muri726dMHr1y5Qj1b9tu3b3Hu3LlobW0t+DhPnTrFy5MqpD4pIlA3UKioXr06xsXFCfwRFUa3bt1S6+KkPj4+ROPlU1ePJp8+fSIanyqkP+CbPFEeJSYm4r1793DDhg04ePBgrFmzpko8RRMLAwMDhZ6WDBw4sMA+xo0bR9Rmamqq0hfkHMdh06ZNcdeuXRgfH887HkIoLi4Ot23bho0aNRJtvG3atOHlrTCecFZhqBsodDRo0AATEhIE/sgKo/fv32ONGjWox4gPV65cIRqrUFmMlQVpSQknJyeqfnV1dZW+gTY9PR2fPXuGu3btwrFjx2Ljxo1VYq+WUFSsWJH3vSM1NRVr1aqVb/tnzpwhavP69etKG3v58uXx77//pv5UPisrCy9evIg9e/YUfZGopaXFq/BuamqqKE+2GHlC3UChpGLFisSZi5WllJQU7NmzJ/UYkbJ//36icY4ePZq6ZxIuX75MND53d3eqfh0dHYn8iqnIyEi8ePEiuru7Y6dOndRuf9rPdOrUiXfm6A8fPuT51FhDQ4P4afeMGTNEHauenh66ubnhzZs3qWfL9vf3x1mzZmGpUqWUdq2nTJnCy+u8efOoz9MiBnUDhRZTU1M8dOiQoB9mod7Ty2QyXLJkiVolAFy3bh3RGOfOnUvds5jjo51U8++//ybyq2x9/PgRz507hwsXLsTOnTur1Tfwf/75h/e4L126hBKJBLW1tbF169Y4d+5c3L17N967d4+4rXr16gk+NolEgm3btsUDBw7wLuUilD5//ozr1q0r8EmcGFhYWPB6ehgSEoK6urrU52gRg7qBQk+7du0EybN05coVrFatGvbt2xe/ffumcHuIiBcuXFDZHCm/Q5qde926ddQ9k0Bafys7O5taXT+O4/Ddu3dEflVBX79+xZs3b+LKlSuxb9++aG9vr5JfFjQ0NPDGjRu8x+nj44NJSUkKxSo2NlbQ2Njb2+OyZcuI9+IJrfT0dDxx4gS6urpSPeDi6enJy3/nzp2pz88iCHUDRQKO49DJyQnPnDlDtMiJiYnBXbt2/fGNp27duvjx40deH7TfFRAQoBIbgwti1KhRROM6cOAAdc8klCxZkvj1A63SEm3btiXyqcpKSUnBR48e4ZYtW3DEiBFYr149ouP2YmFubo4fPnygFpdTp04pPAYzMzMcO3asYKcjFZGXlxeOGTMGTU1NqV/bhg0bolQqJR7D1atXqXsvinD/+wcmJUpfXx9atGgB9erVg6pVq4KVlRUYGhoCAEB8fDyEh4eDn58f+Pj4gLe3N0il0lzbKVmyJJw8eRKaN2+usKeEhATo27cvXLt2TeG2xFL37t3h9OnTcv/81atXoWPHjiI6El6BgYFQqVIluX8+KSkJKleuDJ8/fxbR1a/iOA68vb2hQYMGSutT2crKyoKAgAD477//fuDr6wtJSUlK9eHg4AAPHjwAXV1dpfYLAPDo0SPo0qULxMbGEv2elpYWtG/fHgYNGgSdOnUCHR0dkRwWrLCwMDhw4AAcPHgQAgMDqfn4WRKJBLy9vaF+/fpEv5eZmQk1a9ZUmXEUNVFfrTH4o6Wlhdu2bRPkG1d2djbOnDmT+pjyonnz5kTjefLkCXXPpCxbtoz4uin7mPDAgQOJPRYGyWQyDA4OxhMnTuDs2bOxffv2Stk0PmLECGpj/vjxo9zZ/WvXro3r16/H6Ohoan4Rvz8h3L9/P7Zu3VolX6sOHz6c17hWrVpF3XsRhroBhgCMGjVKsKPaR44cQT09Pepj+p1q1aoRjSMkJIS6Z1IqVKjA6/SPm5ubUvzZ2dlRz22jaoqIiMBLly7hkiVLsEePHqLU4PPw8KA2voyMjDz3xZQqVQqnTp2Kvr6+1Pwhfs+WfefOHRw8eDAaGhpS/xznhYmJCa+FZEREBBoZGVH3X4ShboAhEM2aNcPPnz8LcuN5/vw5li1blvqYfsbCwoJoDImJidQ98+HWrVvE1ys1NRUbNGggqi9jY2N89eoVsbesrCx8/Pgx9RNOylR8fDzevXsX161bhwMHDsTq1asrtHFYV1eXOM+WkEpLS8PWrVv/8OLm5oaXLl3CrKwsap4QEYOCgnD+/PlYrlw56p9bediwYQOvcQ4YMIC69yIOdQMMASlTpoxgN9To6GiVym6tqalJ/LRFFcp8kDJ+/Hje16tu3bqieDI1NSXOjJ6jgwcPIsD3k1xVqlTBfv364erVq/HmzZsYGxvLq0111Ldv39DHxwd37tyJo0ePxoYNGxI9uS1Xrhxx4WQhlZSUhJ6entQrD8THx+OOHTuwSZMm1D+rJFSvXp3XwvLhw4dFrpyPCkLdAENg9PT08ODBg4LclDIzM/Gvv/6iPqYcSG/SVlZW1D2TMHjwYF7FMXOUkpIi+PHhypUr83qShPj9lUiVKlXybb9s2bLYpUsXdHd3x/Pnz1M/Pq5MZWVl4evXr/HgwYM4depUbNWqVb6nsrp27UrbMhVlZ2fj5cuXsXfv3mqbQ+j27du8xl2nTh3q3hn0DTBEYtq0aYIlqNy5c6dKHJkmrS1Ws2ZN6p7lQU9PT7B9KDKZDHfv3q3wMWiJRIJ//fWXQgs3Dw8PXn2bm5tj27ZtcebMmXjkyBF88+YNr+PU6qr379/jmTNn8O+//0ZXV1csXbo0AgCuWbOGtjWl6tWrVzht2jSlZssWAzc3N17j3759O3XvDEBQAQMMEXFychLs9caDBw+ol4bw8vIi8pyzr0KVqVixIr58+VKQa/SzoqOjcc6cOcSFkDU0NLBXr168alD9rLi4OCxRooRgcTIwMMAmTZrguHHj0MPDA589e6b0WnM0FR0dTX1PkDIUHR2NGzZsKDRPUvT19XnlvIuNjVXrIuaFDOoGGCJjZ2eHr1+/FuQmFhYWhg4ODtTGcuHCBSK/vXr1oh7//HBzc8PExERBrk1eSk1NxZMnT+KIESPQzs4OtbS0/vBRvnx57NSpE+7YsUOw492DBw8WPX5aWlpYq1YtHDJkCG7cuBHv378vejyZhFd6ejqeOnUKO3XqlOv8VGeWLFnCKyZjx46l7p3xA+oGGErAyMgIz549K8hN7du3b9ROYZCm/VfVm422tjZu3LhRkOtBquzsbAwPD8eQkBAMCQnB5ORkwfs4cuQItdhyHIcVK1ZENzc3XL58OV69elWw06DqqOTkZNy9ezd2794da9eujfXr10c3Nzfcu3evYKWQ+MrHxwfHjRuHZmZm1D+TYmBra4tpaWnEcXn58iVqaGhQ98/4AXUDDCXBcRy6u7sLVqV7zZo1Sv8wr1q1isjjggULqMf9d8qVK8f7BJk6yM/PTyXrB1pZWaGLiwvOnz8fT58+jSEhIbRDJbouXryY74EGa2trvHr1qlI9hYWF4fLlywvc5F8YOHfuHHF8ZDIZOjo6UvfO+AXqBhhKplu3bgoXzMzR9evXlfptcNasWUT+Nm7cSD3eP+Pi4lKoj8RHRUWpXP6t/DAxMcGWLVvilClT8MCBA+jn51do9gF5enrKdaxcQ0NDsFOyeSk1NRUPHjyI7dq1U8ls2WLg7OzMK1aHDx+m7p3xB9QNMChQvXp1waq/BwcHY7Vq1ZTimzT9v6rcdDQ1NXH58uWCPc1TVT1//lzt95jo6elh/fr1cdSoUbhjxw709vam/oqKVP/99x/RKVUdHR3eKSDykkwmw3v37uHQoUOLXFZpbW1tfPv2LXHMkpOTf5xwZKgU1A0wKGFmZoY3btwQ5KaYlJSEXbt2Fd1zly5diHxdv36depwtLS3x33//FSTO6qAlS5ZQj7nQaGpqYrVq1XDAgAG4du1avH37NvXEi/mpQ4cOxGN0dXUVpO93797hggUL0MbGhvp1Ewtra2scPHgwbtu2Db28vDAgIODHvr8HDx7g/fv3ecVu9uzZ1MfGyBXqBhgU0dDQwLVr1wpyg5TJZLhw4UJRs8g2bdqUyNPz58+pxrd169aCbiT29PSkWvdLHmVlZWHjxo2pz21lYGNjg926dcPFixfjxYsXMTw8nHb4MSoqitfrLQ0NDfz69atCfaelpeHZs2dxxYoVOGTIEGzYsCGamJhQv05CwHEcdu/eHa9duyZKTq+goCC1rCRQRKBugKECDBw4kNfpjNx05swZ0R61V65cmcjLx48fqcRTIpHg/PnzBUv4mZqaikOHDv3R/oABA0Q5rSaUgoOD0cDAgPq8pkHJkiXRyckJZ82ahcePH8fAwEClJsu8cOECb+9ibeyOiorCO3fu4Pbt23HSpEno5OSE5cqVU5vSHI0aNcLHjx+LEpscdezYkfo4GXlC3QBDRahfvz6GhYUJ8qH38/PDChUqCO6xePHiRD5SU1OVHkdzc3NB/+C8ffsWa9So8Uc/lStXVunTczt27KA+p1UFIyMjbNasGU6YMAE9PT3xxYsXmJmZKUrc9+7dy9vn/v37RfGUl1JTU/HFixd49OhRXLBgAfbq1Qtr1aqlMmVKOI7DhQsXir7QvXjxIvWxMvKFugGGClGqVCl8+PChIB/+2NhYbNeunaD+JBIJ8VMafX19pcWvcePGgtYqO3bsWL5P5ziOwz59+uD79+8F61MoyWQydHFxoT6nVRVtbW2sW7cuDhs2DDdv3owPHz4U5Cnh2bNneXs6f/68AFdecUmlUgwJCcErV67g2rVrcdSoUdi8eXNBM70XhK6uLq/j/aRKT09HOzs76vORkS/UDTBUDG1tbdy1a5cgN4Hs7GycOnWqoP6+fPlC5EEZx9U5jsMpU6YI9pQgPT0dx48fT3TNJk2ahIGBgYL0/7v4ntaLiopCc3Nz6nNaXZBIJFi5cmXs3bs3rlixAm/cuEE838PCwnjPYVXYY1WQYmNj8dGjR+jh4YEzZszATp06YcWKFVFTU1Ow66CpqamURRIi4j///EN93jEKhLoBhooyduxYwf7wHzhwQLDH6QEBAUR9161bV9Q4FStWDM+cOSNInBARQ0NDsX79+ry8cByHzZo1wz179iicKys9PR3PnTuH/fv3x9KlS2NoaCivdk6fPk19Lqsz5cuXJ4558+bNiftp1aoVr+urKsrIyMDXr1/jqVOn8J9//sEBAwagg4MDr/2SO3bsUJpvMbYoMASHugGGCtO8eXPib7R56cmTJ1imTBmFPT148ICoXycnJ9HiU6dOHcHyUSF+34hramoqiDdNTU10cHDASZMm4YkTJ/Dt27cYHx+fZ9+hoaF49uxZXLhwIXbp0gWLFSv2x1zgu1dDGXXfCiscxxHXr3v06BHRyTcNDQ3igtPqpLCwMLx16xZu3boVx40bh23btkVra+tcY9GxY0elert8+bLabGovwlA3wFBxypYtiy9evBDkphAVFYVNmzZVyA9pzbp+/fqJEpdRo0YJdlIwKysLZ86cqZQbpo6ODpYpUwZtbW2xZMmSaGhoKPfvkpaQyVFiYiKWL1+e+lxWVy5fvkwc8zVr1sjd/vr163ldV3VXUlISPn36FA8dOoTz5s3DXr16UXn9yL5IqDzUDTDUAH19fTx69KggN4WMjAwcOXIkby+7d+8m6m/ChAmCxsLAwEDQkg8RERFqU9tJR0cHfX19eY3z33//LTLlK4Rm8uTJvGK+d+/efOvuGRkZ4b59+3i1zSScQkNDiTKpM5QOdQMMNYHjOJw1a5ZguYG2bt3Kq9zF8uXLifpZtGiRYDGoWrUq+vv7CzJ+RMSbN29iyZIlqV9bEmrWrInp6em8xjtjxgzq/tUNZ2dnhV5/R0dH4z///IOOjo5YqlQptLCwwObNm+M///yDMTExvNtlElY/50ljqBzUDTDUDGdnZ8HKNzx8+BAtLCyI+p8+fTpRH1u3bhVk3P379xcsyaNMJsMVK1aghoYG9evJhxkzZvAad3p6OtaqVYu6f3VAQ0MD3d3dlZqskome7ty5Q33OMfKEugGGGlKpUiXi02d56ePHj1inTh25+x48eDBR+8ePH1dorLq6uoKegvny5YuoG8yVgUQi4V2/ztfXl5VqKABLS0u8e/euYHNODJ06dQpPnTqF/v7+mJGRQdsOFclkMvT09MSWLVuira0t1qhRA6dOncqrbJFUKsVSpUpRn3uMXKFugKGmGBsb44ULFwS54aSmpmKfPn3k6tfFxYWo7du3b/MeY4UKFQTbyI74/QmaECf/VIHy5csTn8bK0apVq6j7V1XatGkjaH1AsRQVFfUjY7ympiZWrFgRO3XqhDNmzMA9e/bgo0ePMDY2lrZN0ZSRkYGdOnXK9RqamJigt7c3cZvdunWjPv8YuULdAEONkUgkuHTpUt4JCX+WvK+jGjZsSNSur68vr7F169YNExISFB5XztjWrFnDa0+WKkP6dC9HUqmUV66fwoxEIsGFCxcKtgdQGfr69Ss6ODjkO64SJUpg8+bNcdSoUbh27Vq8cuUKhoSEqP0rxSlTpuQ7bnNzc+L7x7Jly6jPQ0auUDfAKAT07NkTU1JSBLkBXblyJd+K43Z2dkTtRUREEI1FS0sL161bJ8jiDxExPj4eu3TpQv0aicXp06d5xSU0NDTfE1lFiZIlS+LNmzcFmW/KVkJCAq+UH7q6ulirVi3s1asXLliwAI8ePYovXrzA1NRU2kMqUPHx8XK9Pl6zZg1RuwcOHKA+Fxm5Qt0Ao5BQs2ZNwWqOBQYGYpUqVXLtx8TEhKit9PR0ucdgbW0taOK9Z8+eoa2tLfVrIybm5uYYFRXFKz6KFHAtLLRo0QIjIiIEm3M0lJKSgm3atBEkHhzHYbly5dDJyQknTZqE27dvxzt37vCeY2Lo6tWrco2ld+/eRO1euXKF+nxk5Ap1A4xCRPHixfH27duC3IwSExNz3QPAcRxxaRV5nly0b99e0OPS27ZtKzKbll1cXHg/gSuq+zIkEgnOnTtXrV615ae0tDR0dXUVNWYmJibYsGFDHDJkCC5fvhzPnDmDb9++FazUkrw6f/68XH5Js3xfu3aN+rxk5Ap1A4xChqamJm7cuFGQG5JUKsV58+b9kbGa9Ntl9+7d80x2qKGhgUuWLBFsz0RycrJo2cBVGb4nA798+VLkTvuYm5vj1atXBZlvqqTMzEx0c3NTejy1tLSwcuXK2K1bN5w9ezbu3bsXvb298y3Zo4jkLTw8e/ZsonYVPaHLEA3qBhiFlCFDhvBOTPi7Tp48iQYGBggAWK5cOV6ngsLCwnDlypVoaWn5w6OFhYVgT8AQEV+/fo329vbUY08DAwMDDA4O5hW3ixcvUvevLJo2bYphYWGCzblr166pVJ227OxsHDRoEPU451CqVCls1aoVjhkzBjds2IDXr1/HDx8+KLwHsaCnZ1paWhgUFETU5saNG6nHi5Er1A0wCjENGzYUbP+Fr68vbtq0SeHFV0pKCi5evBg7dOiAkZGRgnhDRNy/f/+PxVxRpXHjxpiVlcUrfqNGjaLuX0w4jsOZM2fyjs/vysrKwrlz56JEIkGO43DYsGGC7OOJjIzEkJAQhdqQSqU4ZswY6jHPD319faxTpw726dMHFy1aRHxf+fDhQ571CzmOwy1bthDHbciQIdTjwsgV6gYYhRwrKyt8/Pgx8U1DXZSWloYjRoygHmdVYcmSJbzimJycjHZ2dtT9i4GZmRlevHhRsDkXERGBLVq0+KMfHR0dHDhwIHp7exM9MZHJZOjj44NDhgxBHR0dtLCw4F3T7+c2p02bRj328sInwWdERMSPmOW0U7t2bbx06RKvmFWtWpV6HBi5Qt0Aowigo6ODnp6evG4eqqzg4GCsXbs29fiqElpaWvjs2TNe8fTy8lLbsi550ahRI/z48aNgc07e+oClSpXCgQMH4o4dO/D69esYFBSE79+/x5CQEAwMDMTr16/jli1bcMiQIbmWETIzM8MnT54o7HfBggXUr4E8TJs2jfcYs7Ky8P379wrV5Hv79i31GDDyhLoBRhFiwoQJgr16oK1Tp06xPEB5UKVKFfz27RuvuM6bN4+6fyHgOA6nTJki2Ims7OxsXLBgQZ6HEsTA2NgYHzx4oLD3lStXUr8eBWFlZaX003M/y93dnXoMGHlC3QCjiOHo6KgWJRryUlZWFs6aNeuPk3iMX5k4cSLv+NavX5+6f0UwNjbGEydOCDbnaNYH1NfXx+vXrys8hu3btyt1kceHrVu3CnC1yJWSkiLXU0IGNagbYBRBbGxs8OXLl1RuSoro48eP2LBhQ+rxUwc4juOdbdrf3x/19PSoj4EPDg4OgiVeRUS8e/fuLyc1aaCrqytIXUdPT0+VfrVqaWkpWIUBEq1YsYL62Bn5Qt0Ao4hiYGAg6LdusXX58mUsXrw49bipE2XKlMG4uDhe8d6wYQN1/6SMHz9esJQYUqkUlyxZojILCy0tLTx+/LjC4zp69KhK1zycN2+eAFdPfr17967In5ZVA6gbYBRhOI7DuXPnqnSBzOzsbJw7dy571caTvn378oq7TCbDtm3bUvcvD8bGxnjy5EnB5hzNV235oaGhgXv37lV4fOfPn1fZrPUSiUTQE4r5KTMzk1edPIbSoW6AwUBXV1fiStvKUFRUFLZs2ZJ6fNSdo0eP8op/WFgYmpqaUvefH3Xq1OGdaDM33b9/H0uXLk19XHkhkUgE2ctz/fp11NfXpz6e3DAxMcHAwEABrmbekslkOGDAAOpjZcgFdQMMBgIA2tvbi35zItGdO3eKXGkNsTA1NcXw8HBe1+Hw4cPU/efFmDFjMC0tTZD5JpPJcMWKFaipqUl9XAXBcRyuXr1a4THfu3dPZU+Oli1bVrT7UXZ2Nv7111/Ux8iQG+oGGIwf8P2m+uLFCxw6dCiWKlUKdXV1sVy5cjh06FDe3/Rv3rypMntDCgvt2rXjXTaid+/e1P3/jJGRER45coTXWHLT169f0cXFhfq4SHF3d1d47D4+PmhmZkZ9LLlhbm6ON27cEOAK/78SExPV8loXcagbYDB+QFobCfF7faS8Nofq6Oigh4cHcZsvX76kHovCyKZNm4ivBSJibGysyryOqlmzJr59+5bXOHKTl5cXli1blvq4+DJjxgyF66a9fPlSZY/Hu7i4CHSlES9cuIBlypShPiYGMdQNMBgI8P1RN6nOnDlT4CZrDQ0NvHLlClG7UqkUq1evrvJ5X9QNPT09DAgIIL7OiN/3tNDeUD98+HDeiTR/l0wmw7Vr16r0CTB5GTt2rMKLpTdv3qjMYvhn1q9fr/C1vn79OrZu3Zr6WBj84P73D0xM1NWmTRu4deuW3D8vlUrB2toaoqKiCvzZ6tWrw6tXr4DjOCJPaWlp8ObNG/D394eAgADw9/cHf39/+PDhA8hkMqK2mL6rXr168PjxY9DS0iL+3QkTJsCWLVt+/H9dXV2wt7cHe3t7qFy5Mujp6YG+vj5oampCdHQ0fP78GT59+gRPnz6Fr1+/8vZsYGAA27dvh4EDB/Ju42fFx8fD0KFD4fz584K0pwoaMmQIeHh4gIaGBu823r9/D23atIEPHz4IZ0xBvXr1CmrUqEH0O58/f4ZXr17BjRs34OzZs/D+/XuR3DEpS9RXawwGAODgwYOJvqXdvHmTqH2+9cdyU2pqKj579gwPHDiAs2bNwk6dOqGtrS17AiUnf//9N++4t2vXDidOnIi3bt0iKjnx9u1b3LlzJzZv3pzoyVTVqlXR39+fl9/c9OTJkzyrzqs7vXr1UrgMSFhYGFauXJn6WAAALSwsiJ+U9enTh7pvhuBQN8BgIADg9OnTiW5I27dvJ2r/0KFDRO3zUc4Cav/+/Thr1ix0dXVFGxsb6q+MVA1NTU18/Pix6NcjL4WGhuLs2bMLTPQ3aNAgQTM1b9y4EbW1tanHX0w6deqkcNLNz58/Y40aNaiPpV+/fkS+pVKpym5MZygEdQMMBgJ8z2pMos2bNxO1f/DgQaL2hVRKSgo+ffoU9+3bhzNnzkQXF5civ4CqWLEilXIRPys6OhonTZr0x+JFT08P9+zZI1g/CQkJ2KNHD+oxVxbt2rVT+Np+/foVHRwcqI6DdA48ffqUeuwZokDdAIOBAIBDhgwhuik9efKEqP1Xr14Rta8MFfUF1OjRo2lfAkREfP78OVapUgUBvufzEnKuPH/+HCtUqEA91srG0dERExMTFYpdQkICNmvWjNoYPnz4QOSX1WwrtFA3wGAgAKCzszPRTSk7OxurVq0qV9v16tUjapu2kpOT8enTp7h3716cMWMGduzYEcuXL1/oFlAcx+Hly5dphxsREb99+4abNm3C5ORkwdrctm2bypbqUAb169fH2NhYhWKYkpJCpZRNxYoVib2qS8kdBjHUDTAYCPA9uRup7t69W2AmYx0dHfTx8SFuWxWVnJyMT548+bGA6tChg9ovoEqVKoUxMTG0QyuokpKSVC5JJi1q1qyJnz9/ViieaWlp6OrqqlTfY8aMIfaop6dHPd4MUaBugMH4QUhICPFN9OLFi2hoaJhre6ampsQ5lNRROQsoT09PnD59Onbo0AHLlStH/XrKS/fu3WmHUDC9fPkSK1WqRD2mqoS9vT2GhYUpFNfMzEx0c3NTmudTp04R+bt9+zb1ODNEg7oBBuMHfJO7ffnyBRcsWIBt2rTBihUroqOjIy5atKjQPakgVVJSEvr4+OCePXtw+vTp2L59e5VdQJH+YVJF7dq1iz1VyAMbGxt8//69QvHNzs7GQYMGie5VIpEQvzKcM2cO9RgzRIO6AQbjB3Xq1FHoRsokn9LT09Hf3x9PnDiB7u7u1PNAWVhYYFRUFO2w8Na3b99wxIgR1D8/qo6lpSW+fv1aoVjLZDKcOHGiqD4dHByIfTVo0IB6fBmiQd0Ag/ELT548UehGysRfiYmJ6O3tjR4eHjht2jR0dnYWvQ6ZhoYG/vvvv7SHzluvX7/+cWKOUTAWFhbo6+urUMxlMhlOmzZNNI+zZs0i8hMfH8+KaBduqBtgMH6hVatWCt1EmYTXzwuoqVOnorOzM1pbWwtyvefPn097eLy1d+9e1NfXp/6ZUTfMzMwE+UK0YMECUfzduHGDyMeZM2eox5QhHqzWG5NK6sKFC9CpUyfaNn5RcnIyfPnyBWxsbEAikdC2oxJKTEyEN2/ewOvXr3/8b0BAAISHh8v1+5aWlhAcHAwGBgYK+QgODoZ79+7B+/fvITY2FvT09KBcuXJQp04daNasGWhqairU/u/69u0bjBs3Dvbt2ydou0VJxsbGcPnyZWjWrJlC7axatQpmzZolkKvv9QPj4uJAT09P7t8ZP348bN26VTAPTKon6qs1BuN3LC0tMTIyUuFvnEJr06ZNWKxYMaxbty4OHDgQly9fjhcuXMCQkBCUSqW07amMEhIS0MvLC3fv3o1TpkxBJycnLFOmzB/Xedu2bbz7yMjIwB07dhSYS6t48eI4adIkwebTmzdvsHr16tQ/I4UBAwMDvHnzpsLXZMuWLYKlyGjdujVx//b29tRjyRAV6gYYjFxxdHRUuMCmGHrw4AFaWlr+4VdfXx/r1auHAwcOxBUrVuDFixfZAuo3xcfHo5eXF+7atQvnzJnD+/p6e3tjtWrViOaTnp4ebtq0ibjI6c86dOhQnqkoGPzQ1dXFCxcu8L4mOfL09BRkn9A///xD1G9YWBj1GDJEh7oBBiNP3NzcMCMjQ+GbqNCKjIzEpk2byjWGnAXUoEGDfiyg3r9/r9Af7KKso0ePKpTtum/fvrwWaDExMdROBRZ2tLS08Pjx4wrPjWPHjqGWlpZCXry9vYn63LdvH/X4MUSHugEGI1+cnZ0xNTVV4Zuo0MrMzMTx48fzHpeBgQE6ODjgoEGDcOXKlXjp0iW2gCpA586dE+SpQZ8+fXjFuXnz5tQ/D4UVDQ0N3Ldvn8Jz5Pz587wX0iYmJpidnU3U34ABA6jHjiE61A0wGAVSpUoVlU0bcODAAUGTDOYsoAYPHswWUD8pODgYDQwMBIvzunXriD1s3bqV+mehMCORSBTat5aj69ev8zqN2LVrV6J+ZDIZWllZUY8bQ3SoG2Aw5EJTUxNnzZqFX79+Vegm+uHDBxwyZAjOmjWL+NtjXvrvv//Q1tZW1PEbGhqig4MDDhkyBFetWoWXL1/G0NDQIrOAcnJyEjSeBgYGGBERQeQhKCiI+uegsMNxHK5evVrh+XL//n00NjYm6nvLli1Effj7+1OPF0MpUDfAYBBhaGiIkydPxoCAALlvaDKZDB8+fIijR49GbW3tH221adNGsDInsbGx2KFDByrxqF+//o8F1JUrVwrdAurx48eixG7ixIlEPmQyGZqamlL/DBQF3N3dFZ43Pj4+aGZmJnefb968IWp/48aN1OPEEB+WR4lJrWVrawsdO3aE6tWrg62tLZQtWxaysrIgIyMDEhISwM/PD/z8/ODmzZsQFhaWaxtly5aF06dPg4ODg8J+ZDIZuLu7w9KlSwGR7kfL0NAQqlSpAtWrV//xv1WrVoVy5cpR9cVHQ4cOFSVnkampKURGRoKurq7cvzN48GC4cOECJCQkCO6H6VfNmDEDVq5cCRzH8W7D19cXnJyc4MuXL/n+XOnSpeXO/5WjLl26wIULF3h7Y1IPsYUSExMA6OjowObNm2HkyJGCtHf58mUYOHAgxMfHC9KekNLR0QE7OzuoWrUqVKtW7cf/2tvbq2QiTUSE0qVLQ1RUlCjt3717F1q2bEn8e+np6RAfHw+RkZHw/v17iIqKgsjIyB//+/79ewgLC4OsrCzhTRchjR49GrZt26bQ3AwMDIS2bdvmuxAaPHgw0WI8OzsbzM3NITExkbcvJvUQWygxMf2kUaNGwaZNm0BHR0fhtoKDg6F79+7w+vVrAZyJLyMjoz+eQFWpUoX6E6jw8HCwtrYWrf2VK1fCzJkzRWlbJpNBdHQ0REREQGRkJISFhUFUVBSEh4dDZGQkREREQHh4OCQlJYnSf2HRkCFDwMPDAzQ0NHi38f79e2jbti2Ehob+8u9Lly4NderUgZkzZ4Kjo6Pc7T1+/BiaNGnC2w+T+kjYvP5MTGquXbt2ga+vL5w6dQrKlCmjUFsVK1YEb29vGD58OBw/flzu3ytZsiQ4ODiAtbU1mJiYAMD3pxcfP36EgIAACAoKUshXXkpOToYnT57AkydPfvn3xsbGuS6gypYtK4qP3/Xx40dR2xfrSRUAgEQiAUtLS7C0tMz351JTU+HTp08QFRUFERERfyyswsLCIDo6GqRSqWheVVn79u2DtLQ0OHjwIGhpafFqw9bWFu7fvw9t27YFAIBhw4ZB//79oXTp0rzau337Nq/fY1I/sSdKTEy5qGTJknDs2DFo1aqVIO2tW7cOZs2aBdnZ2bn+dzs7Oxg6dCh069YNqlSpkm9bMTExcPHiRTh06BDcvXtXEH989PMC6ufXeEI//bl37x6vV2PyatSoUbBz507R2hdKUqkUoqOjITw8HKKion5ZWOX8u7CwMEhJSaFtVTR17twZTpw4odAT32/fvoG+vr7CXlq2bAn37t1TuB0m9RD1HeUMhiqiqamJa9asEez02N27d7FkyZK/9GFnZ4cnT57kXebk+fPnVE7a/Y6NjQ327dsXN2zYQHQaUR49ffpUVO8LFiwQ1C9tJSUlob+/P968eRP379+PS5cuxXHjxmHnzp2xfv36aGlpqdYZxtu1a0c9Aa1MJsu1jBGjcMKeKDExFaBevXrBnj17wNDQUOG2wsPDwc3NDZ48eQKzZ8+GBQsWCLIf6syZMzBq1CiIjY1VuK2CZGRkBA4ODtC4cWNo2LAhNGzYECwsLETrLykpCUxMTEQ7Rbhr1y7BNvGri7KzsyE6OvrHU6nf90zlPJ369u0bbau5ytHRES5dugTGxsbUPISGhkLXrl3h1atX1DwwKUdsocTEJIeqVasGZ86cgUqVKincVkZGBrx69Qrq168vgLP/16dPn6Br167w33//CdamRCKBKlWqQMOGDaFRo0bQqFEjqFq1qkKbavmoevXq4O/vL0rbwcHBYGdnJ0rb6q6EhIQ/Fk85C6ucfVTR0dFUUmHUr18frl27BmZmZkrvO0fx8fHg5OQEz549o+aBSXyxhRITk5wqVqwYHDhwADp37kzbSp5KSEiAjh07wuPHj3n9vrm5OTRq1OjHwqhBgwZUv7XnyN3dHRYtWiR4u9WqVVObU4mqqqysrHyfSuX8u7S0NMH7rlmzJty8eRNKliwpeNvyKjY2Fho0aADv37+n5oFJXLGFEhMTgTiOg3nz5sGiRYtUMucQAEBcXBw0bty4wNNxWlpaULt27R+LooYNG6rsk5XIyEioUKECpKenC9rujh07YPTo0YK2yZS74uLi/kiRkPNUKmdhFR0dTdyuvb093Lp1i/fpNSHk5+cH9evXh4yMDGoemMQTWygxMfFQ+/bt4fDhw1Qf++enN2/eQL169X75Fm9tbf3j9VnDhg2hXr16RBmpaWvmzJmwevVqwdqrUqUKvHr1CjQ1WZYUVVFGRkauJ/l+fjoVGRn5x4LZ1tYWbt26BTY2NpScAyxbtgzmzZtHrX8m8cQWSkxMPGVjYwNnzpyB2rVr07aSq/bv3w8BAQE/FkZWVla0LSmk9PR0qF+/viCvyvT09ODevXuC7xNjUo5iYmL+2DPFcRzMmTMHtLW1qXjKzMyEypUrw4cPH6j0zySe2EKJiUkB6enpwc6dO2HgwIG0rRQJffjwARwdHYlrcv0siUQCBw8ehH79+gnojInp+wlK9iq38IktlJiYBNC4ceNg3bp11L7NFiWFhIRA9+7deR3LNjIygsOHD0OnTp0U9hEQEAArV66EpKQksLa2BktLSyhTpgyULl0aLC0toWzZsmBgYKBwP0zqo5SUFLC0tCzUST+LothCiYlJIDVt2hROnDih9q+41EHfvn0Dd3d32LRpk9wbaF1dXWHt2rWCpHjIUUZGBqxatQqWLVuW60ZzY2NjKFOmDFhZWUHp0qWhTJkyYGlpCdbW1j/+nYWFhcoeDCgqkkqlcO/ePXjw4AFkZWVBw4YNwcnJiVeOs/79+8ORI0dEcMlES2yhxMQkoCwtLeHEiRPQrFkzhdvy9fWF27dvg1Qqhdq1a0OLFi3U/olVamoqPHv2DHx8fMDb2xtq164NCxYs4N3ep0+fYM+ePXDixAkIDAz8I59PqVKloHPnzjBw4EBBrkleevfuHYwdOxZu3rxJ/LuamppQqlSpP55KWVlZ/bKwEqLsBtOf+vDhA/Tp0wd8fHx++fcVK1aEAwcOQKNGjYja27dvHwwdOlRIi0yUxRZKTEwCS0tLC9asWQMTJ07k9fuxsbEwdOhQuHjx4i//vlKlSrB37161qViOiBAYGPhjUeTt7Q2vX7/+pd6dlpYW+Pr6FljfTh7FxcXBu3fvICkp6ceTnFKlSin1ac3Ro0dh6tSp8PnzZ8HbNjExyfOpVM7CysLCAjiOE7zvwqqkpCSoV68evHv3Ltf/XqxYMXj8+DHR/AwICIBq1aoJZZFJBcQWSkxMIql///6wa9cuoicBWVlZ4Ojo+Me32xwZGRnBgwcPoFatWkLZFExxcXHg4+PzA29vb0hISCjw99q2bcvrSYyqKjExEebOnQs7duwAmUym1L61tbWhVKlSuT6VKlu2LFhaWkLp0qVBT09Pqb5UVXPnzoXly5fn+zPdu3eH06dPy91mZmYmGBgY5FkAm0n9xBZKTEwi6tatW9CmTRu5f37jxo0wefLkfH/G2dkZrl27pqAzxZSdnQ1+fn7w+PHjHwujoKAg3qUsNm7cyPsJnKrqyZMnMGbMGEFLygil4sWL/3gq9fPTKSsrqx//jma2a2XJ3t4eAgMD8/0ZXV1dSE1NJXoyaW5urpS6i0zKEVsoMTGJKH9/f6hatarcP9+sWTN49OhRvj/DcRwkJycr9URVRETEL6/Qnj9/LmjBVE1NTbh58ya0bNlSsDZVQVKpFDZv3gwLFiyA5ORk2naIpKOjk+tJvt/3UQlR1JmWihcvDnFxcQX+XFRUFJQqVUrudq2trRVKYcGkWmILJSYmEfXu3TuoUKGC3D9vZ2cHISEhBf4c6QKMRGlpafDixYsfiyJvb2+l3PRLlCgBXl5eKltGRRFFRETApEmTiF7hqItKlCjxx56pn/dRWVpagrm5OW2buapmzZrg5+eX78/o6upCYmIi0UEKeRdgTOohlrufiUlEke5TsLCwKHChxHGcoK9FgoODf9lX5OvrC1lZWYK1L69iYmKgefPmcPPmTaqbYTMzMyEoKAiqV68uWJulS5eGU6dOweXLl2HChAkQGhoqWNu0FRMTAzExMfnmtdLV1f3xBOrn032/L6yUfaqza9euBS6UXFxciHxlZWVBYmKiotaYVEzIYDDE4d69e0iiFStWFNhm06ZNidr8WQkJCXjjxg1cvHgxuri4oLm5OfUY/U7x4sXxyZMnvMeoiGJjY7Fly5YokUhw3LhxmJCQIHgfqampOHv2bNTS0qIea1XDwsIC69Spg3369MHbt28LHvvflZSUhOXLl8/TT7FixTAoKIiozdevX1OPI0NwqBtgMAote/bsIbrJpqamop2dXZ7taWtr4+PHj4najI+Px6FDh2LVqlVRIpFQj4k86Ojo4Pr161EmkxGNVRH9999/WLFixV98WFpa4tGjR0Xp7/Xr1+jo6Eg91qpC8eLFcciQIXjhwgVMS0sTJea56ePHj1i/fv0//FSoUIHXgn3//v3UY8kQHOoGGIxCy19//UV8o/306RPWrVv3j7bMzc3x0qVLxO2dP3+eehz44uzsjJ8+fSIeM4kyMjLw77//zvcJj5OTEwYHBwvet0wmwz179mDx4sWpx5oGVlZWOHbsWLx16xZmZWUJHl+S63D79m1cvXo1uru744ULFzAjI4NXW/3796ceV4bgUDfAYBRabG1ted+4r1y5gu7u7jh58mTcu3cvJiYm8mpr4sSJ1OOgCLq6ujhlyhT88uULr/EXpH379sntY/HixZieni64h5iYGBw6dChyHEc93mJToUIFnDFjBnp5eaFUKhU8ljSVkpKCxYoVox5jhuBQN8BgFGqePXtG7cadnZ2NpUuXph4DITAyMsJx48YRv3osSB8+fCDyYW9vj3fu3BHUQ47u3buHVatWpR5roalRowYuXLgQX758KUrcVEW7du2iHmuG8LD0AExMImvEiBGwe/duKn2fOXMGevToQaVvMVWpUiVwdXWFBg0aQMOGDaF8+fIKtVe5cmUICgqS++c5joMBAwbAmjVrBE/MmJWVBWvWrIElS5ZAWlqaXL8jkUjA3t4eqlSpAtbW1qCjowNSqRRiY2MhJCQEXr16JVeWdKHEcRw0aNAAunfvDt27dy+UKR9+V2ZmJtjb2xeqE41M/y/qqzUGozCjra2NoaGhSv92K5PJ0MHBgfr4lYGRkRFWqFABGzRogM7OzsSvx8aNG8erXzMzM9y1a5cor5Dev3+PHTt2zLNviUSCHTp0wIMHD2JcXFy+bUmlUnzy5AnOnDkTLS0tRbkGGhoa2Lp1a9y8eTOGhYUJHg9VlzwnVhlqC3UDDEahp2fPnkq/cRfl0zekR8vPnTunUH9NmjRBX19fUa7jyZMnf3l9ynEc9uzZE9++fcurvYyMDNy+fTuWKlVK4Tjr6uqiq6sr7tmzB2NiYgQeufro9evXqKurS33eM0SDugEGo0hw7Ngxpd24P336hKamptTHTIvZs2cTxSsxMRE1NTUV6lNLSwunT5+OKSkpgl/PxMREnDRpElpbW+P169cFaTM+Ph6HDx9OPE5DQ0Ps1asXHjt2DJOSkgTxIpRkMhk+fvwYZ86cibVr18ZXr16J3ufXr1//SCvBKHRQN8BgFAmMjIzw9evXot+4U1NTsUGDBtTHS5N69eoRx61p06aC9F2uXDk8f/68CFf2++Z8obV3794Ck1/SynEkj7Kzs/H27ds4bty4Pw4ulClTRpS0DjmKj4/Hxo0bU5/vDNGhboDBKDKULl0a3717J9qNOy0tDV1cXKiPkzYSiYT4VZC7u7ugHrp27Sp6DiihdOnSJdTR0fnFv6rkOMpNaWlpePHiRRw6dGiBOagsLCzw6dOngnv4+PEj1q5dm/pcZygF6gYYjCKFlZWVKDfur1+/YqtWraiPT1UgfdX58OFDwT0YGhrimjVrVG6hkZsOHz6MdnZ2KpvjKCkpCY8fP469e/dGIyMjouugo6OD69atE2xMZ86cKbJJQoso1A0wGEUOPT093Lx5s2AlOh48eIA2NjbUx6VKDB8+nCiGWVlZoiULrFWrFnp5eQlyrYuSvn79ip6entipUydBNkvXrVsXb926xdvPy5cv2RPbogl1AwxGkaVRo0b44MED3jfuDx8+FJmMzqSUK1eOOJ5dunQRzY9EIsHRo0cXeJS/qCs8PBy3bNmCbdq0UXiDfV7UqVMHN23aJFcag7i4ONy/fz86OTmxz1kRhSWcZGJSATVq1AhGjBgBXbp0AXNz83x/Nj09He7evQv79++Hs2fPQmZmppJcqp8CAwOhUqVKcv/81q1bYfz48SI6ArCwsIA1a9bAgAEDRO1HnRQSEgJnzpyBM2fOgI+PDyAq78+SjY0N1K1bF6ytraFkyZIgkUggLi4OwsLCwM/PDwICAkAmkynND5PqiS2UmJhUSBoaGlClShWoV68elCtXDoyMjMDIyAhiYmIgKioK/Pz84MWLF5Camkrbqlpoy5YtMG7cOLl/PigoCCpXriyio/9X69atYfv27UQLucKkV69ewdmzZ+HMmTPw6tUr2naYmPIV9cdaDAaDIQZdunQhfvVTvnx5pfnT0tLCWbNmqdyRe7Hk7++P7u7uaG9vT31uMBjywp4oMTExFVoZGxtDbGwsaGpqyv07I0eOBA8PDxFd/V979x5cZXWvcfx5NwloEoIaEmOpwFQZEghDhAgCAzpJYOgpKBSxSDuetshAAaenirWWqR1bh7ZDaekIDNRJhzMDE20UL8VTCiExglwChgTkIhYVKkYuIRBuuexknT8CGjCXvZL97ncn+/uZ+f1j1uUXGfVxv2uv9+sGDBiglStXKjs7u0Pr1NTUaPPmzTpy5Ih69uyprKwsfetb3wpSl/b8fr/effddrV+/Xm+88YZOnDjhWS9AR3ie1iiKotyqbdu2WX3q8corr3jW66OPPmrKy8vb9WnNli1bvvYeN5/PZ2bPnh3ST6xs7jiiqE5SnjdAURTlWv3617+2+g/9mTNnjM/n86zf5ORk63Cyffv2Vm/Xnjx5ctCuomhOR+44oqhOUJ43QFEU5VqNHj3a+j/8GRkZnvWblpZm3W8gZ342bNhgvW5rgn3HEUWFawX+4B4AOqHi4mKdP39evXr1CnjO+PHjtWfPHhe7allycrLV+H379unw4cNtjlu/fr2+853vtLctSdKJEyf0xhtv6PXXX1dRUZH8fn+H1gM6A5/XDQCAm/x+v9555x2rOR09VN0RMTExVuPLy8sDGvfJJ5+0px0dPXpUS5Ys0ahRo3TnnXdqwYIF2rJlCyEJEYNPlAB0eZs3b9ZDDz0U8PgxY8YoJiZGly9fdrGr5lVXV1uNT0xMDGhcUlKS1bplZWV67LHHuOMIEY9PlAB0eZs3b7Ya36NHD40bN86lblpXUVFhNT49PV19+/Ztc9zkyZOt1t29ezchCRBBCUAEOHLkiI4dO2Y1Z/z48S5107qPPvrI6hUePp9Pf/zjH+U4Totj7rvvPs2YMcOqj/Y+qgO6GoISgIhg+6mSV0GpqqpKR44csZozffp0rV69WrGxsV/7WWZmpt566y1169bNas0dO3ZYjQe6Km7mBhARHnnkEb3yyisBjzfGqE+fPgEflg6mFStWaN68edbzTp06pby8PH344YeKi4tTdna2MjMzrde5cuWKEhISdOXKFeu5QFfk+R0FFEVRbldCQoKpr6+3uivoBz/4gSe9jh07Nqh3Htlau3at539eFBUuxaM3ABGhoqJCJSUlVnMmTJjgUjet27Ztmw4cOODJ3pKUk5Pj2d5AuCEoAYgYtueUsrOzWz0k7RZjjBYvXhzyfSWpqKhIhYWFnuwNhCOCEoCIYRuU7rjjDqWlpbnUTetyc3O1ffv2kO5ZX1+vZ555JqR7AuGOoAQgYrz33nu6dOmS1Ryvbuk2xuiHP/yhLly4ELI9f/e732nXrl0h2w/oDAhKACJGbW2ttm7dajXHq2sCpMY7lebMmWN1r1J7bd68Wb/5zW9c3wfobAhKACKK7eO3cePGqUePHi5107bc3Fw9+eSTroal4uJiffe731VdXZ1rewCdFUEJQESxDUqxsbEaPXq0S90EZtmyZZo9e7Zqa2uDvvaGDRuUlZWlixcvBn1toCsgKAGIKB988IH1JZJePn67JicnR+PGjdPRo0eDsl5NTY0WLVqkKVOmEJKAVhCUAEQUY4zy8/Ot5oRDUJKkXbt2KS0tTc8995zOnTvXobWmT5+uxYsXq76+PjjNAV0UQQlAxLF9/DZs2DAlJCS41I2d6upq/fa3v1W/fv30xBNPaOfOnWpoaLBep1evXi50B3Q9BCUAESc/P9/qcLTP51NWVpaLHdmrqqrS8uXLNWrUKCUmJurtt9+2mp+SkuJSZ0DXQlACEHHKy8utXxHi1X1KgTh79qz15ZSpqakudQN0LQQlABHJ9vGbV+99C9ShQ4esxhOUgMAQlABEJNug1K9fPw0YMMClbjrONijdfffdio6OdqkboOsgKAGISEVFRaqpqbGaEy7ffmvO0aNHre5Zio6O1l133eViR0DXQFACEJEuX76sHTt2WM0J56BUV1dnfccSj9+AthGUAEQs28dvmZmZYf24inNKQPARlABErE2bNlmNj4+PV0ZGhkvddBxBCQg+ghKAiFVSUqIzZ85YzQnnb78RlIDgIygBiFgNDQ0qLCy0mhPO55Rsg1JKSoocx3GpG6BrICgBiGi255RGjhwZtq//OHz4sNXrTGJjY3XnnXe62BHQ+RGUAEQ023NKUVFRuv/++13qpmMuX76s//znP1ZzePwGtI6gBCCiHTt2TB999JHVnK70+I2gBLSOoAQg4tk+fiMoAZGDoAQg4tkGpYEDB6p///7uNNNBBCUguAhKACJeQUGB6urqrOZkZWW51E3H2AalQYMGudQJ0DUQlABEvKqqKu3Zs8dqTrg+frMNSgkJCerdu7dL3QCdH0EJAGT/+C07O1s+X/j9K7SiokKnT5+2msPjN6Bl4fdPOQB4wDYoJSQkKD093Z1mOohzSkDwEJQAQNLOnTtVVVVlNSdcX2dy8OBBq/EvvPCC1q1bp+9///uKiYlxqSugcyIoAYAkv9/fZV5ncvjwYavxiYmJmjlzptauXavy8nL9/ve/59wS0IShKIqiZBYsWGBsVFdXm5iYGM/7blpjx441R44csfo9mlNZWWkef/xx4ziO578TRXlcnjdAURQVFjVw4EDrQDFx4kTP+5ZkHMcxL7zwgqmvr+9wSGrq1VdfNXFxcZ7/fhTlVfHoDQCu+vDDD3X8+HGrOeHw+C0qKkpr167VokWLgv5NvGnTpqmwsFC33nprUNcFOguCEgA00dleZ+I4jlavXq2ZM2e6tkdGRoY2bdrEQW9EJIISADRhG5TS0tKUnJzsUjdte/rpp/XjH//Y9X0yMjKUk5Pj+j5AuCEoAUAT+fn5amhoCHi84zjKzs52saOWDRo0SM8//3zI9psxY4YeffTRkO0HhAOCEgA0UVFRob1791rN8erx21//+lfddNNNId1z2bJliouLC+megJcISgBwg/a8zsRxHJe6ad6ECRM0ZsyYkO4pSUlJSXriiSdCvi/gFYISANzANih94xvf0ODBg13qpnlPPfVUSPdrav78+erWrZtn+wOhRFACgBu89957unz5stWcUD5+S0pKUmZmZrvm1tbW6vDhw9q9e7cuXrzYrjX69Onj2bksINQISgBwg5qaGm3dutVqTiiD0qRJkxQVFWU1x+/36/nnn1dSUpJSU1M1YsQI9e7dW7Nnz9b58+ete5g4caL1HKCz8vzWS4qiqHCrp556yuoG64sXL5oePXqEpLfVq1db9dbQ0GCmTp3a4npDhw41VVVVVmvu3r3b8z8jigpF8YkSADTD9pxSbGysRo8e7VI310tPT7cav27dOr3++ust/rysrMz6moHU1NSQH2AHvEBQAoBm7N+/X1988YXVnFCd20lMTLQa/7e//a3NMWvWrLG6Pyo2Nla9evWy6gPojAhKANAMY4zy8/Ot5oTqnNItt9xiNX7fvn1tjqmoqNDJkyet1u3Zs6fVeKAzIigBQAtsH78NHz5cCQkJLnXzlfr6eqvxN998c5tjfD6fdQCrra21Gg90RgQlAGhBfn6+jDEBj/f5fO3+2r6Nc+fOWY3Pyspqc8zQoUMDClTXGGNUVVVl1QfQGRGUAKAFn3/+uQ4cOGA1JxSP3/79739bjX/mmWcUExPT6pjnnnvOas3PPvtMV65csZoDdEYEJQBohe3jt1AEpbKyMqvxqampWrduXbNnirp166YlS5ZoypQprvYAdFYEJQBohe2B7v79+2vAgAEuddPINrxJ0pQpU1RaWqqFCxdqxIgRGjFihObMmaM9e/Zo4cKF1usVFhZazwE6I0eNFyoBAJoRGxurs2fPqnv37gHPmT9/vlauXOlaT927d9eJEyfUu3dv1/ZojTFGd999tz7++GNP9gdCiU+UAKAVly5d0vbt263muP34rba2Vrm5ua7u0ZqCggJCEiIGQQkA2mD7qCszM1PR0dEuddN45mj69Omurd+WxYsXe7Y3EGoEJQBog21Qio+P17333utKL0OGDFFRUZGSk5NdWb8tGzduVEFBgSd7A14gKAFAG95//32dPXvWao4brzMZMmSItmzZYv0Kk2C5cOGC5s6d68negFcISgDQhoaGButPUYJ9Tik1NVWbNm3yLCQZYzRr1iwdO3bMk/0BrxCUACAAmzZtsho/cuRIxcfHB2Vvrx+3SdLChQuVl5fn2f6AVwhKABAA23NK0dHReuCBBzq8r9eP2/x+vxYsWKA//elPnuwPeI2gBAAB+PTTT61fHdLRx29eh6Ty8nJ9+9vf1ooVKzzZHwgHBCUACFAoX2fiZUiqq6vTqlWrNHjwYOubyYGuhqAEAAGyDUoDBw5U3759rfcJRkgqKSnRr371K6uLIU+fPq1ly5YpJSVFP/nJT1RZWdnu/YGugleYAECAbrnlFp0+fVpRUVEBz3n88ceVk5MT8PhghaTx48d/eaXBkCFDlJmZqbS0NPXv31+33nqrpMZbx48fP66DBw+qqKhIxcXF8vv97d4X6KoMRVEUFVjt2LHD2MjNzQ147dTUVFNeXm61/o327t1rEhISPP/7RFFdpXj0BgAWbK8JyM7Ols/X9r9qU1NTVVBQ0KErAEpLS5Wdna2Kiop2rwHgegQlALBge06pd+/eSk9Pb3UMIQkIXwQlALCwa9cuXbhwwWrOhAkTWvxZMC6TLCkpUVZWFiEJcAGHuQHA0ptvvqkHH3zQas4nn3yiffv2aefOncrNzdWxY8dcObgNILgISgBgacGCBXrxxRfbPd8Yo23btiklJYWQBIQ5ghIAWEpJSdGhQ4c87YEzSUBocEYJACzZPnYLNs4kAaET+K1pABDhoqKilJOTo8cee8yzHnjcBoQWnygBQAAcx9GqVas8DUmlpaWaMGECIQkIIYISAARg0aJFmjVrlmf787gN8AaHuQGgDcOGDdPOnTsVHR3tyf4c3Aa8Q1ACgFb4fD6VlpZqyJAhnuzPmSTAWz5JdlfMAkAEefjhhz0LSaWlpYQkwGM+SVe8bgIAwtUvfvELz/Y+fvw4IQnwmCPpkKQUrxsBgHAzaNAgHThwoN3zKysrFRUVpZ49e7Zrfl1dnfr06aPTp0+3uwcAHeOTdMrrJgAgHE2bNs16jjFGy5Yt01133aXbbrtN8fHxGjx4sNasWaOGhgartaKjozV58mTrHgAEj0/SZ143AQDhaPTo0VbjjTH63ve+p5/97Gf6+OOPv/zrBw8e1I9+9CPNnTtXxth9f+a+++6zGg8guHySPvW6CQAIR2lpaVbjly9frry8vBZ//tJLL+nvf/+71ZoZGRlW4wEEl0/SEa+bAIBwEx0drW9+85tWc1asWNHmmOXLl1utefvtt1uNBxBcjqThkvZ43QgAhJP4+HidP38+4PGXLl1SXFxcm+N69eqlc+fOBbxudXW1br755oDHAwgun6QDkvxeNwIA4cT2Fm7HceTztf1WKNszSrbjAQSV32eMqZZU5nUnABBOKisrVVdXF/D4mJgY3XPPPW2OGzVqlHUfADxTdu1/f7Z52gYAhJmGhgZ9/vnnVnN+/vOft/pzx3G0cOFCqzVtewAQVNuuBaV3vOwCAMLR/v37rcY/8sgjevLJJ5v9meM4Wrx4sbKzs63W3LOHI6SAh965FpQKJAX+GTMARIDCwkLrOUuXLtU//vEPjR8/XklJSUpMTNSkSZO0ZcuWdr0OZceOHdZzAARFnaRC59pBQcdxtkjK9LQlAAgjqampOnjwoGf719TU6I477uCcEuCNQmNMZtOvaLzqWSsAEIYOHTqkd99917P93377bUIS4J1XpcbrAa55TVwTAADXefHFFz3Z1xijP/zhD57sDUD1asxFXwUlY8wpSRu96ggAwtFrr72moqKikO+7fv16FRcXh3xfAJKkjcaYk5LkNL3MzHGcByW96VVXABCOhg4dquLiYnXv3j0k+1VWVio9PV3Hjx8PyX4AvuYhY8xb0vWP3iTp/yTxTyYANFFWVqaf/vSnIdtv3rx5hCTAO8fVmIck3RCUjDF+SctC3BAAhL1Vq1ZZv9C2PZ599lm9/PLLru8DoEV/uZqHGhljritJcZIqJBmKoijqq3IcxyxdutS4oaGhwfzyl7/0/HekqAivCklx1+WiG4PS1bD0bBg0S1EUFZY1d+5cc+nSpaCFpHPnzpmpU6d6/ntRFKVnv5aJWghKsZK+CIOGKYqiwrJSUlJMQUFBh0NSXl6e6d+/v+e/D0VR+kJSbEBB6WpYmhMGTVMURYV1ZWVlmX/961/G7/cHHI5qampMXl6eGTNmjOf9UxT1Zc1pLg9ddz1AU47jdJO0W9I9zQ4AAHwpOTlZU6dO1ciRI5Wenq6+ffsqNjZWUVFROnnypMrLy1VSUqKtW7dq48aNOnXqlNctA/jKXkn3GmPqb/xBi0FJkhzHGS5pl6Ru7vUGAADgmXpJI40x7zf3wxvvUbrO1Ul/dqMrAACAMPDnlkKS1MYnSpLkOM5NkoolDQlyYwAAAF7aL2mEMaa6pQGtfqIkSVcnz5R0OYiNAQAAeOmKpJmthSQpgKAkScaYDyTND0ZXAAAAYWDe1XzTqoCCkiQZY9ZIcv/+fgAAAHctv5pr2tTmGaXrBjdeGfCWpP9qX18AAACe2ihpUnNXATTHKihJkuM4vSQVSBpm3xsAAIBnSiRlGmPOBzoh4Edv11xdfKIaT4oDAAB0Bh9ImmgTkqR2BCVJMsacljRB0oH2zAcAAAihA5ImXM0vVtoVlCTJGPOFpPvV+DEWAABAOCqR9IAxprw9k9sdlCTJGFMh6QFJ/+zIOgAAAC74pxpD0pn2LtChoCRJxpgLkh6UtLKjawEAAATJCkkPXs0p7Wb9rbdWF3Oc/5a0StJNQVsUAAAgcNWS5hpj/jcYiwU1KEmS4zhDJL0saVBQFwYAAGjdQUkzjDFB+2Z+hx+93ehqc8MlLZXkD/b6AAAAN/CrMXcMD2ZIklz4ROm6xR0nQ9JqcTklAABwR4mkOcaYPW4sHvRPlJq62vS9kmZJatfX8gAAAJpRrsZ8ca9bIUly+ROl6zZynDhJCyQ9Lem2kGwKAAC6mrOSlqjxxbYX3d4sZEHpyw0dp6caE+D/SOoX0s0BAEBndUzSMkk5Hf3Kv42QB6UvN3acbpImSZqtxnfHdfOkEQAAEK7qJW2U9JKkDcaY+lA34FlQuq4Jx7ld0jRJD0saKynK244AAIBH/JK2ScqT9Jox5qSXzYRFUGrKcZxekrLV+B650ZKGiuAEAEBX5ZdUJmm7pCJJ+caY89629JX/BwYzDsl7oFxRAAAAAElFTkSuQmCC;fontFamily=Comic Sans MS;" parent="1" vertex="1">
          <mxGeometry x="740" y="731.25" width="60.04" height="48.57" as="geometry" />
        </mxCell>
        <mxCell id="inQNlQKym5KlZ0pr-Kys-95" value="&lt;font style=&quot;font-size: 11px;&quot;&gt;&lt;span style=&quot;font-family: &amp;quot;Comic Sans MS&amp;quot;; font-size: 14px;&quot;&gt;&lt;u&gt;Here is a list of k stars:&lt;br&gt;&lt;/u&gt;&lt;/span&gt;&lt;font face=&quot;Comic Sans MS&quot; style=&quot;font-size: 11px;&quot;&gt;Gaia DR3 6734534837847991396&lt;br&gt;&lt;/font&gt;&lt;/font&gt;&lt;font style=&quot;font-size: 11px;&quot;&gt;&lt;font style=&quot;font-size: 11px;&quot;&gt;&lt;font face=&quot;Comic Sans MS&quot; style=&quot;font-size: 11px;&quot;&gt;Gaia DR3 4111834567779557476&lt;/font&gt;&lt;font style=&quot;font-family: &amp;quot;Comic Sans MS&amp;quot;; font-size: 11px;&quot;&gt;&lt;br&gt;&lt;/font&gt;&lt;/font&gt;&lt;span style=&quot;font-size: 11px;&quot;&gt;&lt;b&gt;.....&lt;/b&gt;&lt;/span&gt;&lt;/font&gt;" style="shape=callout;whiteSpace=wrap;html=1;perimeter=calloutPerimeter;position2=0.28;rounded=1;base=70;size=22;position=0.4;flipV=0;flipH=1;strokeWidth=2;" parent="1" vertex="1">
          <mxGeometry x="586.25" y="652.73" width="200" height="85.62" as="geometry" />
        </mxCell>
        <mxCell id="inQNlQKym5KlZ0pr-Kys-102" value="&lt;font face=&quot;Comic Sans MS&quot;&gt;&lt;span style=&quot;font-size: 14px;&quot;&gt;&lt;b&gt;Use the trained model to do naive star search from a random set of stellar parameters and observations&lt;/b&gt;&lt;/span&gt;&lt;/font&gt;" style="text;html=1;strokeColor=none;fillColor=none;align=center;verticalAlign=middle;whiteSpace=wrap;rounded=0;" parent="1" vertex="1">
          <mxGeometry x="588.13" y="193.56" width="220" height="72.69" as="geometry" />
        </mxCell>
        <mxCell id="inQNlQKym5KlZ0pr-Kys-106" value="&lt;font face=&quot;Comic Sans MS&quot;&gt;&lt;b&gt;&lt;u&gt;Training Objective:&lt;/u&gt; Star embeddings should be similar between the spectra encoder and properties encoder for the same star&lt;/b&gt;&lt;/font&gt;" style="text;html=1;strokeColor=none;fillColor=none;align=left;verticalAlign=middle;whiteSpace=wrap;rounded=0;" parent="1" vertex="1">
          <mxGeometry x="20" y="180" width="232.5" height="70" as="geometry" />
        </mxCell>
        <mxCell id="inQNlQKym5KlZ0pr-Kys-114" style="edgeStyle=orthogonalEdgeStyle;rounded=1;orthogonalLoop=1;jettySize=auto;html=1;exitX=0.25;exitY=1;exitDx=0;exitDy=0;entryX=0;entryY=0.5;entryDx=0;entryDy=0;strokeColor=#000000;fontColor=#46495D;fillColor=#B2C9AB;strokeWidth=2;" parent="1" source="inQNlQKym5KlZ0pr-Kys-113" target="inQNlQKym5KlZ0pr-Kys-70" edge="1">
          <mxGeometry relative="1" as="geometry" />
        </mxCell>
        <mxCell id="inQNlQKym5KlZ0pr-Kys-113" value="&lt;font color=&quot;#990099&quot; face=&quot;Comic Sans MS&quot; style=&quot;font-size: 14px;&quot;&gt;Gaia Source&lt;br&gt;IDs&lt;br&gt;&lt;/font&gt;" style="rounded=1;whiteSpace=wrap;html=1;fillColor=#e1d5e7;strokeColor=#9673a6;strokeWidth=2;" parent="1" vertex="1">
          <mxGeometry x="377" y="392.85" width="85" height="60" as="geometry" />
        </mxCell>
        <mxCell id="inQNlQKym5KlZ0pr-Kys-117" value="&lt;font face=&quot;Comic Sans MS&quot;&gt;Credit: Brain icon by &lt;b&gt;imaginationlol&lt;/b&gt; and Astronomer icon &lt;b&gt;monkik&lt;/b&gt; on &lt;u&gt;flaticon.com&lt;/u&gt;&lt;/font&gt;" style="text;html=1;strokeColor=none;fillColor=none;align=center;verticalAlign=middle;whiteSpace=wrap;rounded=0;" parent="1" vertex="1">
          <mxGeometry x="376.25" y="810" width="450" height="10" as="geometry" />
        </mxCell>
        <mxCell id="inQNlQKym5KlZ0pr-Kys-118" value="&lt;font face=&quot;Comic Sans MS&quot;&gt;Using the trained Transformer-based &lt;br&gt;model and embeddings from&lt;br&gt;Henry W. Leung &amp;amp; Jo Bovy (2023; This work)&lt;/font&gt;" style="text;html=1;strokeColor=none;fillColor=none;align=center;verticalAlign=middle;whiteSpace=wrap;rounded=0;" parent="1" vertex="1">
          <mxGeometry x="15" y="779.82" width="320" height="40" as="geometry" />
        </mxCell>
        <mxCell id="vo4HfqGJKl7FPPki0nje-1" value="&lt;font face=&quot;Comic Sans MS&quot;&gt;Astronomers&lt;/font&gt;" style="text;html=1;strokeColor=none;fillColor=none;align=center;verticalAlign=middle;whiteSpace=wrap;rounded=0;" parent="1" vertex="1">
          <mxGeometry x="570" y="392.85" width="84" height="30" as="geometry" />
        </mxCell>
        <mxCell id="vo4HfqGJKl7FPPki0nje-2" value="&lt;font face=&quot;Comic Sans MS&quot;&gt;NN Model&lt;/font&gt;" style="text;html=1;strokeColor=none;fillColor=none;align=center;verticalAlign=middle;whiteSpace=wrap;rounded=0;" parent="1" vertex="1">
          <mxGeometry x="728.02" y="772.69" width="84" height="30" as="geometry" />
        </mxCell>
      </root>
    </mxGraphModel>
  </diagram>
</mxfile>
